<?xml version="1.0" encoding="UTF-8" standalone="no"?>
<svg
   xmlns:dc="http://purl.org/dc/elements/1.1/"
   xmlns:cc="http://creativecommons.org/ns#"
   xmlns:rdf="http://www.w3.org/1999/02/22-rdf-syntax-ns#"
   xmlns:svg="http://www.w3.org/2000/svg"
   xmlns="http://www.w3.org/2000/svg"
   xmlns:xlink="http://www.w3.org/1999/xlink"
   xmlns:sodipodi="http://sodipodi.sourceforge.net/DTD/sodipodi-0.dtd"
   xmlns:inkscape="http://www.inkscape.org/namespaces/inkscape"
   width="32.008926mm"
   height="62.465298mm"
   viewBox="0 0 32.008926 62.465298"
   version="1.1"
   id="svg8"
   inkscape:version="1.0.1 (3bc2e813f5, 2020-09-07)"
   sodipodi:docname="houshafarin.svg"
   inkscape:export-filename="./Houshafarin.png"
   inkscape:export-xdpi="173.42"
   inkscape:export-ydpi="173.42">
  <defs
     id="defs2">
    <linearGradient
       id="linearGradient925">
      <stop
         style="stop-color:#ffffff;stop-opacity:1;"
         offset="0"
         id="stop921" />
      <stop
         style="stop-color:#ffffff;stop-opacity:0;"
         offset="1"
         id="stop923" />
    </linearGradient>
    <radialGradient
       xlink:href="#linearGradient925"
       id="radialGradient942"
       gradientUnits="userSpaceOnUse"
       gradientTransform="matrix(1.0125361e-6,-0.0745696,0.07868958,0,264.21281,32.714976)"
       cx="169.77869"
       cy="10.216177"
       fx="169.77869"
       fy="10.216177"
       r="69.531975" />
    <style
       id="style6"
       type="text/css">
    .fil0 {fill:#004234}
    .fil1 {fill:#34A853}
   </style>
    <radialGradient
       inkscape:collect="always"
       xlink:href="#linearGradient925"
       id="radialGradient1257"
       gradientUnits="userSpaceOnUse"
       gradientTransform="matrix(4.6977521e-6,-0.34597236,0.36508738,0,36.033096,211.06721)"
       cx="169.77869"
       cy="10.216177"
       fx="169.77869"
       fy="10.216177"
       r="69.531975" />
  </defs>
  <sodipodi:namedview
     id="base"
     pagecolor="#ffffff"
     bordercolor="#666666"
     borderopacity="1.0"
     inkscape:pageopacity="0.0"
     inkscape:pageshadow="2"
     inkscape:zoom="2.8284271"
     inkscape:cx="123.05388"
     inkscape:cy="138.28657"
     inkscape:document-units="mm"
     inkscape:current-layer="layer1"
     inkscape:document-rotation="0"
     showgrid="false"
     inkscape:window-width="1920"
     inkscape:window-height="1135"
     inkscape:window-x="0"
     inkscape:window-y="0"
     inkscape:window-maximized="1"
     showguides="true"
     inkscape:guide-bbox="true"
     inkscape:snap-nodes="false"
     inkscape:snap-others="false"
     fit-margin-top="0"
     fit-margin-left="0"
     fit-margin-right="0"
     fit-margin-bottom="0">
    <sodipodi:guide
       position="-334.14756,-305.20825"
       orientation="1,0"
       id="guide724" />
    <sodipodi:guide
       position="-490.60392,-347.80247"
       orientation="1,0"
       id="guide750" />
    <sodipodi:guide
       position="-314.93918,-456.46149"
       orientation="0,-1"
       id="guide836" />
    <sodipodi:guide
       position="10.340193,53.172877"
       orientation="1,0"
       id="guide967" />
    <sodipodi:guide
       position="15.485133,47.560217"
       orientation="1,0"
       id="guide969" />
    <sodipodi:guide
       position="25.245853,47.554877"
       orientation="0,-1"
       id="guide971" />
    <sodipodi:guide
       position="25.245853,51.999297"
       orientation="1,0"
       id="guide975" />
    <sodipodi:guide
       position="28.885713,36.532477"
       orientation="1,0"
       id="guide997" />
    <sodipodi:guide
       position="14.069043,37.690027"
       orientation="1,0"
       id="guide999" />
    <sodipodi:guide
       position="20.286753,37.921537"
       orientation="0,-1"
       id="guide1009" />
    <sodipodi:guide
       position="73.047402,8.2918596"
       orientation="1,0"
       id="guide1030" />
    <sodipodi:guide
       position="27.20834,3.0001928"
       orientation="1,0"
       id="guide1032" />
    <sodipodi:guide
       position="43.280579,20.557435"
       orientation="1,0"
       id="guide1156" />
    <sodipodi:guide
       position="30.581203,11.900738"
       orientation="1,0"
       id="guide1264" />
  </sodipodi:namedview>
  <metadata
     id="metadata5">
    <rdf:RDF>
      <cc:Work
         rdf:about="">
        <dc:format>image/svg+xml</dc:format>
        <dc:type
           rdf:resource="http://purl.org/dc/dcmitype/StillImage" />
        <dc:title />
      </cc:Work>
    </rdf:RDF>
  </metadata>
  <g
     inkscape:label="Layer 1"
     inkscape:groupmode="layer"
     id="layer1"
     transform="translate(-232.688,-9.3229103)">
    <g
       id="g1063"
       transform="matrix(0.45254149,0,0,0.4464955,-90.282275,51.251042)"
       style="opacity:0.15">
      <g
         id="g1051">
        <g
           id="g970"
           style="fill:#2f00ff;fill-opacity:1;stroke:none;stroke-width:0;stroke-miterlimit:4;stroke-dasharray:none">
          <path
             id="path974"
             style="color:#000000;font-style:normal;font-variant:normal;font-weight:normal;font-stretch:normal;font-size:medium;line-height:normal;font-family:sans-serif;font-variant-ligatures:normal;font-variant-position:normal;font-variant-caps:normal;font-variant-numeric:normal;font-variant-alternates:normal;font-variant-east-asian:normal;font-feature-settings:normal;font-variation-settings:normal;text-indent:0;text-align:start;text-decoration:none;text-decoration-line:none;text-decoration-style:solid;text-decoration-color:#000000;letter-spacing:normal;word-spacing:normal;text-transform:none;writing-mode:lr-tb;direction:ltr;text-orientation:mixed;dominant-baseline:auto;baseline-shift:baseline;text-anchor:start;white-space:normal;shape-padding:0;shape-margin:0;inline-size:0;clip-rule:nonzero;display:inline;overflow:visible;visibility:visible;isolation:auto;mix-blend-mode:normal;color-interpolation:sRGB;color-interpolation-filters:linearRGB;solid-color:#000000;solid-opacity:1;vector-effect:none;fill:#999999;fill-opacity:1;fill-rule:nonzero;stroke:none;stroke-width:0;stroke-linecap:round;stroke-linejoin:miter;stroke-miterlimit:4;stroke-dasharray:none;stroke-dashoffset:0;stroke-opacity:1;color-rendering:auto;image-rendering:auto;shape-rendering:auto;text-rendering:auto;enable-background:accumulate;stop-color:#000000;stop-opacity:1"
             d="m 908.50391,595.76367 v 0.94336 1.24024 h 82.20312 l 5.36133,-2.1836 z m 89.11328,0 2.13476,2.1836 h 24.76175 v -2.1836 z m 82.47261,0 0.041,2.1836 h 102.2793 c -0.056,-0.94319 -0.068,-1.49701 -0.045,-2.1836 z m 120.5489,0 -0.1524,2.1836 h 42.9922 v -2.1836 z"
             transform="scale(0.26458333)" />
        </g>
        <g
           id="g976"
           style="fill:#999999;fill-opacity:1">
          <path
             style="color:#000000;font-style:normal;font-variant:normal;font-weight:normal;font-stretch:normal;font-size:medium;line-height:normal;font-family:sans-serif;font-variant-ligatures:normal;font-variant-position:normal;font-variant-caps:normal;font-variant-numeric:normal;font-variant-alternates:normal;font-variant-east-asian:normal;font-feature-settings:normal;font-variation-settings:normal;text-indent:0;text-align:start;text-decoration:none;text-decoration-line:none;text-decoration-style:solid;text-decoration-color:#000000;letter-spacing:normal;word-spacing:normal;text-transform:none;writing-mode:lr-tb;direction:ltr;text-orientation:mixed;dominant-baseline:auto;baseline-shift:baseline;text-anchor:start;white-space:normal;shape-padding:0;shape-margin:0;inline-size:0;clip-rule:nonzero;display:inline;overflow:visible;visibility:visible;isolation:auto;mix-blend-mode:normal;color-interpolation:sRGB;color-interpolation-filters:linearRGB;solid-color:#000000;solid-opacity:1;vector-effect:none;fill:#999999;fill-opacity:1;fill-rule:nonzero;stroke:none;stroke-width:0.5;stroke-linecap:round;stroke-linejoin:miter;stroke-miterlimit:4;stroke-dasharray:none;stroke-dashoffset:0;stroke-opacity:1;color-rendering:auto;image-rendering:auto;shape-rendering:auto;text-rendering:auto;enable-background:accumulate;stop-color:#000000;stop-opacity:1"
             d="m 240.62567,176.39946 h 88.12737 v 0.0786 h -88.12737 z"
             id="path978" />
          <path
             style="color:#000000;font-style:normal;font-variant:normal;font-weight:normal;font-stretch:normal;font-size:medium;line-height:normal;font-family:sans-serif;font-variant-ligatures:normal;font-variant-position:normal;font-variant-caps:normal;font-variant-numeric:normal;font-variant-alternates:normal;font-variant-east-asian:normal;font-feature-settings:normal;font-variation-settings:normal;text-indent:0;text-align:start;text-decoration:none;text-decoration-line:none;text-decoration-style:solid;text-decoration-color:#000000;letter-spacing:normal;word-spacing:normal;text-transform:none;writing-mode:lr-tb;direction:ltr;text-orientation:mixed;dominant-baseline:auto;baseline-shift:baseline;text-anchor:start;white-space:normal;shape-padding:0;shape-margin:0;inline-size:0;clip-rule:nonzero;display:inline;overflow:visible;visibility:visible;isolation:auto;mix-blend-mode:normal;color-interpolation:sRGB;color-interpolation-filters:linearRGB;solid-color:#000000;solid-opacity:1;vector-effect:none;fill:#999999;fill-opacity:1;fill-rule:nonzero;stroke:none;stroke-width:0.5;stroke-linecap:round;stroke-linejoin:miter;stroke-miterlimit:4;stroke-dasharray:none;stroke-dashoffset:0;stroke-opacity:1;color-rendering:auto;image-rendering:auto;shape-rendering:auto;text-rendering:auto;enable-background:accumulate;stop-color:#000000;stop-opacity:1"
             d="m 240.375,176.15039 v 0.25 0.32813 h 88.62891 v -0.57813 z"
             id="path980" />
        </g>
      </g>
      <path
         id="path947"
         style="fill:#3f50a2;fill-opacity:1;stroke-width:0.264583"
         d="m 285.53193,153.44851 c -0.10092,0 -0.98214,0.55032 -1.95803,1.22318 l -1.77405,1.2237 0.13332,2.14974 c 0.0734,1.18259 0.22127,4.59789 0.32867,7.5892 0.18047,5.02664 0.24426,5.53766 0.84335,6.74274 0.94369,1.89819 1.68048,2.22528 5.08289,2.25878 3.13587,0.0309 3.72816,-0.20111 4.60748,-1.80609 0.25911,-0.47295 0.53377,-0.85343 0.60978,-0.84543 0.076,0.008 0.49515,0.57343 0.93173,1.25677 0.4462,0.69842 1.19923,1.44476 1.7198,1.70481 0.50932,0.25444 1.44404,0.46279 2.07687,0.46302 1.47492,5.3e-4 2.49431,-1.00734 2.95331,-2.92075 0.5652,-2.356 -0.28808,-6.17399 -1.77457,-7.9406 -2.63138,-3.12721 -6.95978,-1.43293 -6.95978,2.72438 0,0.62715 -0.18534,1.40514 -0.41188,1.72858 -0.37227,0.53155 -0.63441,0.58807 -2.72748,0.58807 -3.59085,0 -3.32875,0.64666 -3.42045,-8.44548 -0.0427,-4.2321 -0.16005,-7.69462 -0.26096,-7.69462 z m 32.08898,0.26459 c -0.23098,0 -3.44998,2.23511 -4.25193,2.95227 -0.49737,0.44478 -0.52777,0.65199 -0.33123,2.27428 0.11893,0.98174 0.5684,4.80258 0.9989,8.49095 0.43048,3.6884 0.92184,6.87332 1.09141,7.07761 0.89408,1.0773 1.09762,0.074 1.83242,-9.02116 0.78227,-9.68216 0.89969,-11.77395 0.66043,-11.77395 z m -12.10985,4.3248 c -0.0578,0.004 -0.1121,0.0146 -0.16227,0.0305 -0.55459,0.17603 -2.45231,4.49485 -2.22982,5.07462 0.0724,0.18869 0.57885,0.3002 1.24539,0.2744 0.95038,-0.0368 1.45502,0.17469 3.28507,1.37615 2.08288,1.36745 4.01785,3.17321 4.01785,3.75015 0,0.15253 -0.43365,0.45858 -0.96377,0.68007 -0.74557,0.31123 -1.79432,0.38339 -4.63074,0.31729 l -3.66643,-0.0853 v 2.57969 2.57969 l 3.37343,-0.006 c 5.00042,-0.009 6.20141,-0.72742 7.10396,-4.25039 0.89757,-3.50355 0.13936,-5.89416 -2.90526,-9.15706 -1.89386,-2.02966 -3.60076,-3.23169 -4.46794,-3.16415 z m 15.71739,0.0181 c -0.12901,-0.001 -0.24434,0.0203 -0.34467,0.0651 -0.58322,0.26024 -2.4425,4.46078 -2.2252,5.02708 0.0725,0.18895 0.59351,0.29715 1.30122,0.26975 1.03823,-0.0402 1.45352,0.13936 3.44165,1.48983 2.51619,1.70918 3.93935,3.14903 3.70829,3.75119 -0.26125,0.68081 -2.1454,0.97326 -5.6906,0.88315 l -3.40289,-0.0863 v 2.57969 2.57917 l 3.37344,-0.007 c 2.98746,-0.007 3.50964,-0.0765 4.56406,-0.61443 1.48349,-0.75684 2.24811,-2.04582 2.65928,-4.48344 0.55305,-3.27896 -0.15537,-5.15903 -3.18741,-8.45995 -1.72572,-1.87873 -3.2951,-2.98611 -4.1982,-2.99362 z" />
      <path
         id="path959"
         style="fill:#54c4c5;fill-opacity:1;stroke-width:0.264583"
         d="m 284.4152,64.030716 c -37.04064,0 -38.80936,0.02162 -39.83117,0.485759 -1.32274,0.600835 -2.40097,1.84839 -2.76417,3.19722 -0.187,0.694595 -0.25347,13.532194 -0.20567,39.874055 l 0.0708,38.8493 0.75241,1.10898 c 0.42891,0.6321 1.22557,1.34354 1.85208,1.65365 1.09468,0.54161 1.26731,0.54447 40.12572,0.53846 37.76662,-0.005 39.06171,-0.0216 40.13295,-0.50797 0.69646,-0.31621 1.3833,-0.91996 1.85209,-1.62833 l 0.74517,-1.12603 0.078,-38.91338 c 0.0544,-27.111786 -0.008,-39.2102 -0.20566,-39.893177 -0.38195,-1.320387 -1.47478,-2.563566 -2.77193,-3.152778 -1.02182,-0.464148 -2.79001,-0.485759 -39.83064,-0.485759 z m -9.21599,8.775176 c 7.48958,-0.01709 15.85216,0.877475 21.51911,2.468581 12.64426,3.550127 21.02083,10.89768 24.57215,21.553207 1.56887,4.70734 1.87299,7.0007 1.87997,14.15521 0.006,6.41511 -0.0167,6.70235 -0.74464,9.525 -1.3429,5.20626 -3.68885,9.44578 -7.2993,13.19196 -2.88348,2.99188 -5.53466,4.75358 -10.33838,6.86831 l -2.51355,1.10639 -22.0767,0.0718 c -12.14212,0.0396 -21.98733,-0.0199 -21.87824,-0.1323 0.10909,-0.1124 2.78084,-1.75879 5.9371,-3.6592 l 5.73868,-3.45561 0.0677,-19.35541 0.0682,-19.354886 1.12239,-0.280604 c 1.21788,-0.30394 5.34477,-1.811996 8.92816,-3.262849 1.23692,-0.500814 2.51745,-0.992619 2.8458,-1.092957 l 0.5974,-0.182417 -0.0682,19.491313 -0.0677,19.49184 -3.91036,2.15645 -3.91035,2.15646 11.18639,0.0729 11.1864,0.0729 1.98438,-0.99322 c 6.30044,-3.15259 8.42253,-9.07696 8.12662,-22.68544 -0.11959,-5.50109 -0.23109,-6.80225 -0.8232,-9.58701 -1.33617,-6.284039 -3.30837,-10.376844 -6.59961,-13.696322 -5.47195,-5.518962 -12.39498,-7.946115 -23.59027,-8.26978 -7.74605,-0.223946 -11.56608,0.463228 -16.76022,3.014287 -2.93566,1.441815 -5.57761,3.868727 -6.71329,6.166549 -2.17339,4.397422 -2.09759,9.959215 0.22324,16.378846 0.49474,1.36849 0.84667,2.54124 0.78187,2.60604 -0.20871,0.2087 -2.74302,-1.29971 -4.05402,-2.41277 -4.92529,-4.18165 -7.43533,-10.241386 -6.68693,-16.144235 0.99227,-7.82625 9.00442,-13.442693 21.93252,-15.374255 2.70854,-0.40468 5.93254,-0.600985 9.33688,-0.608748 z" />
      <path
         id="path949"
         style="fill:#999999;fill-opacity:1;stroke-width:0.264583"
         d="m 275.8431,154.50685 c -0.43773,0 -2.01123,1.65756 -2.01123,2.11873 0,0.23513 0.35718,0.69164 0.79375,1.01441 0.43656,0.32277 0.79375,0.73934 0.79375,0.92604 0,0.1867 -0.35719,0.68194 -0.79375,1.10019 -0.43657,0.41825 -0.79375,0.88114 -0.79375,1.02888 0,0.14775 0.38031,0.66114 0.84542,1.14101 0.46511,0.47987 0.96565,0.87282 1.11207,0.87282 0.36767,0 2.01126,-1.62376 2.01126,-1.98696 0,-0.1625 -0.35719,-0.6375 -0.79375,-1.05575 -0.43657,-0.41825 -0.79375,-0.8945 -0.79375,-1.05833 0,-0.16383 0.35718,-0.64007 0.79375,-1.05834 0.43656,-0.41825 0.79375,-0.88164 0.79375,-1.02939 0,-0.35283 -1.61449,-2.01331 -1.95752,-2.01331 z m -4.8555,0.79581 c -0.63355,0.006 -8.90673,2.92165 -9.07801,3.19878 -0.11366,0.1839 -0.34877,1.08525 -0.52193,2.00297 l -0.31471,1.66863 1.5813,2.4505 c 2.02129,3.13245 2.45478,3.99354 2.20917,4.39095 -0.29736,0.48113 -2.96531,0.83464 -6.31125,0.83664 -1.63711,7.9e-4 -2.97656,0.0687 -2.97656,0.15089 0,0.0822 0.61363,1.15375 1.36374,2.38125 v 5.3e-4 l 1.36374,2.23191 2.0097,-0.002 c 3.37402,-0.002 5.19031,-0.8634 5.88699,-2.79001 0.39761,-1.09964 0.55189,-1.12591 1.15858,-0.19999 0.81836,1.249 2.06952,2.20298 3.4127,2.60294 1.73987,0.5181 6.78863,0.52824 7.77007,0.0155 2.81229,-1.4692 4.1415,-5.92925 2.86806,-9.62319 -0.47141,-1.36735 -1.57123,-2.96829 -2.03917,-2.96829 -0.12951,0 -0.76983,0.79653 -1.42317,1.77043 l -1.18803,1.77096 1.44693,1.5167 c 1.57416,1.65035 1.74813,2.17043 0.88109,2.63446 -0.80225,0.42935 -6.03639,0.60452 -7.36595,0.2465 -1.61031,-0.43361 -2.9454,-1.80622 -5.16663,-5.31234 -1.09069,-1.7216 -1.98282,-3.18575 -1.98282,-3.25355 0,-0.0678 1.48829,-0.61905 3.3073,-1.22524 l 3.30729,-1.10226 v -1.69809 c 0,-0.93383 -0.0893,-1.6965 -0.19843,-1.6955 z m -20.10834,14.55312 c -1.49159,-0.002 -2.71198,0.0577 -2.71198,0.13178 0,0.0741 0.65204,1.14582 1.449,2.38125 l 1.44953,2.24585 h 2.79208 2.79207 l -0.89606,-1.40094 c -0.493,-0.77069 -1.18141,-1.84095 -1.52963,-2.37816 l -0.63303,-0.97668 z m -7.16597,0.002 c -1.50371,-0.003 -2.69434,0.0956 -2.64584,0.21911 0.0485,0.12352 0.6835,1.19508 1.41077,2.38125 l 1.32188,2.15645 h 2.71301 c 1.49193,0 2.7125,-0.0729 2.7125,-0.16226 0,-0.0894 -0.62507,-1.15868 -1.38906,-2.37608 l -1.38906,-2.21331 z" />
      <path
         style="fill:none;stroke:none;stroke-width:0.264583px;stroke-linecap:butt;stroke-linejoin:miter;stroke-opacity:1"
         d="m 317.65155,157.87888 -0.0103,0.15169 -0.4287,0.0124 0.0676,-0.23222 0.20256,-0.0787 z"
         id="path990" />
    </g>
    <g
       id="g1134"
       transform="matrix(0.18396269,0,0,0.18396269,244.78832,16.684666)"
       inkscape:export-xdpi="150"
       inkscape:export-ydpi="150"
       style="opacity:0.1">
      <g
         transform="matrix(2.3715197,0,0,2.3559978,-1844.9869,-698.49432)"
         id="g1064"
         inkscape:label="Layer 1">
        <g
           id="g1062">
          <g
             id="g1060"
             transform="translate(-6.0683965,-190.54765)">
            <path
               id="path1052"
               d="m 749.36212,632.73868 v 58.04883 58.05078 h 25.80078 25.79883 V 690.78751 632.73868 H 775.1629 Z m 9.5633,9.56445 h 32.47186 v 96.97852 h -32.47186 c 0,-32.32617 0,-64.65235 0,-96.97852 z"
               style="fill:#2e1c59;fill-opacity:1"
               inkscape:connector-curvature="0"
               sodipodi:nodetypes="cccccccccccccc" />
            <path
               sodipodi:nodetypes="cccccccccccccc"
               id="path1054"
               d="m 809.6629,697.23868 v 25.79883 25.80078 h 25.94922 25.94922 v -25.80078 -25.79883 h -25.94922 z m 9.55277,9.57422 h 32.7929 v 32.46875 h -32.7929 z"
               style="fill:#2e1c59;fill-opacity:1"
               inkscape:connector-curvature="0" />
            <path
               sodipodi:nodetypes="cccccccccccccc"
               id="path1056"
               d="m 689.36212,632.73868 v 25.95117 25.94922 h 25.94922 25.95117 v -25.94922 -25.95117 h -25.95117 z m 9.56641,9.56836 h 32.76953 v 32.76562 h -32.76953 z"
               style="fill:#2e1c59;fill-opacity:1"
               inkscape:connector-curvature="0" />
            <path
               sodipodi:nodetypes="cccccccccccccc"
               id="path1058"
               d="m 809.6629,632.73868 v 25.95117 25.94922 h 25.94922 25.94922 v -25.94922 -25.95117 h -25.94922 z m 9.55277,9.56836 h 32.78118 v 32.76953 h -32.78118 z"
               style="fill:#2e1c59;fill-opacity:1"
               inkscape:connector-curvature="0" />
          </g>
        </g>
      </g>
      <g
         id="g1084"
         transform="matrix(0.26278895,0,0,0.26458333,-300.55107,291.6609)">
        <rect
           id="rect1066"
           height="15.618"
           width="19.243"
           y="1126.189"
           x="211.222"
           style="fill:#2e1c59" />
        <rect
           id="rect1068"
           height="15.891"
           width="19.277"
           y="1135.531"
           x="732.375"
           style="fill:#2e1c59" />
        <rect
           id="rect1070"
           height="15.891"
           width="19.375"
           y="1135.531"
           x="693.40302"
           style="fill:#2e1c59" />
        <g
           id="g1074">
          <path
             id="path1072"
             d="m 346.615,1180.426 c -14.681,0.828 -22.046,-6.096 -22.1,-20.806 l -0.213,-69.187 -17.741,0.064 0.228,78.254 c 2.073,18.752 12.533,28.24 31.335,28.463 l 70.831,0.402 c 10.654,-0.02 18.366,-4.265 23.112,-12.637 0.714,0.982 1.369,1.765 1.919,2.256 7.544,7.861 16.957,11.764 28.241,11.745 l 0.283,-0.248 v 0.248 c 11.293,-0.045 20.682,-3.997 28.171,-11.898 0.57,-0.496 1.196,-1.274 1.935,-2.281 4.786,8.397 12.508,12.548 23.161,12.528 l 45.108,-0.694 36.215,-0.223 c 16.615,0.179 26.738,-2.926 30.398,-9.398 3.739,-6.631 4.677,-12.637 2.832,-17.994 -1.949,-5.54 -5.912,-10.763 -11.884,-15.697 -3.496,-2.812 -7.916,-6.339 -13.252,-10.381 -6.527,-4.91 -28.365,-17.21 -23.896,-19.58 l 55.211,-26.341 v -17.84 c -45.649,19.913 -72.773,31.881 -77.093,39.093 -1.944,3.239 -2.168,3.953 -1.488,7.191 0.828,4.107 8.665,11.472 23.469,22.076 14.8,10.252 24.054,18.376 27.75,24.293 3.943,5.981 -3.283,8.843 -21.724,8.64 l -65.229,-0.645 c -10.737,0 -17.403,-7.102 -20.027,-21.346 -0.03,-11.14 -3.918,-20.741 -11.656,-28.776 -7.737,-8.104 -17.141,-12.146 -28.24,-12.102 h -0.268 c -11.11,0.045 -20.504,4.131 -28.201,12.28 -7.677,8.08 -11.517,17.701 -11.472,28.846 -2.514,14.264 -9.141,21.411 -19.883,21.456 m 75.289,-6.412 c -4.325,4.464 -9.493,6.696 -15.554,6.721 -5.862,0.02 -10.971,-2.212 -15.296,-6.612 -4.34,-4.508 -6.507,-9.756 -6.517,-15.717 -0.02,-6.185 2.113,-11.541 6.408,-15.985 4.221,-4.285 9.309,-6.453 15.261,-6.472 6.15,-0.025 11.352,2.118 15.583,6.383 4.33,4.419 6.507,9.736 6.522,15.941 0.021,5.935 -2.121,11.207 -6.407,15.741 z"
             inkscape:connector-curvature="0"
             style="fill:#2e1c59" />
        </g>
        <g
           id="g1078">
          <polygon
             id="polygon1076"
             points="579.093,1096.84 579.093,1091.785 626.074,1069.925 626.074,1074.985 "
             style="fill:#2e1c59" />
        </g>
        <path
           id="path1080"
           d="m 207.878,1180.882 c -14.392,0.72 -28.213,-6.092 -28.213,-20.479 v -24.069 h -17.424 v 32.915 c 1.99,18.445 12.134,27.772 30.506,28.016 l 40.557,-0.132 v 0 l 6.024,-0.068 6.014,0.068 v 0 l 10.228,0.132 c 18.377,-0.244 28.526,-9.57 30.531,-28.016 v -32.915 h -17.433 v 24.069 c 0,14.387 -7.196,21.199 -21.598,20.479"
           inkscape:connector-curvature="0"
           style="fill:#2e1c59" />
        <path
           id="path1082"
           d="m 756.328,1180.868 c -0.127,-0.01 -0.238,0.015 -0.365,0.015 l -52.44,0.175 -7.697,-0.175 c -14.402,0.72 -21.608,-6.092 -21.608,-20.479 v -24.069 h -17.404 l -0.282,0.219 v 46.758 c -3.6,19.36 -11.823,28.998 -35.849,28.998 l -0.068,15.944 c 28.55,0 45.609,-11.366 51.16,-34.078 4.16,2.082 9.342,3.089 15.55,3.089 l 16.197,-0.2 52.805,0.088 v -16.285 z"
           inkscape:connector-curvature="0"
           style="fill:#2e1c59" />
      </g>
      <g
         id="g1100"
         transform="matrix(0.26390511,0,0,0.26458333,-300.79101,291.6609)">
        <g
           id="g1092">
          <rect
             x="524.54797"
             y="963.84497"
             width="18.948"
             height="15.648"
             id="rect1086"
             style="fill:#929497" />
          <rect
             x="484.96799"
             y="963.84497"
             width="18.982"
             height="15.648"
             id="rect1088"
             style="fill:#929497" />
          <rect
             x="445.35599"
             y="963.84497"
             width="19.077999"
             height="15.648"
             id="rect1090"
             style="fill:#929497" />
        </g>
        <rect
           x="246.96201"
           y="963.84497"
           width="19.079"
           height="15.648"
           id="rect1094"
           style="fill:#929497" />
        <path
           d="m 752.425,1015.478 c 1.447,-2.398 2.417,-5.177 2.89,-8.372 0.28,-7.956 -1.501,-15.768 -5.177,-23.426 l -1.11,-2.219 c -3.021,-5.684 -7.083,-11.281 -12.294,-16.806 -13.052,-13.91 -31.276,-21.742 -54.552,-23.445 v 16.956 c 15.725,1.187 28.839,6.813 39.324,16.868 6.577,6.277 10.654,11.904 12.758,17.018 0,0 0.077,12.477 0.077,12.888 -2.418,3.546 -7.604,5.36 -15.792,5.36 h -14.827 c 3.966,-4.704 5.93,-10.374 5.93,-16.912 0,-8.067 -3.092,-14.885 -9.283,-20.468 -6.19,-5.675 -13.741,-8.521 -22.682,-8.521 -8.873,0 -16.362,2.846 -22.466,8.521 -6.19,5.583 -9.293,12.401 -9.293,20.468 0,6.538 1.959,12.207 5.819,16.912 h -17.134 c 0.68,-6.345 0.333,-14.152 -1.013,-23.513 -0.873,-9.385 -4.497,-17.515 -10.87,-24.376 -7.055,-7.396 -15.846,-11.064 -26.456,-11.064 -10.379,0 -19.199,3.773 -26.393,11.411 -7.238,7.552 -10.827,16.589 -10.827,27.006 0,11.237 4.133,19.888 10.827,27.479 9.856,11.176 42.547,8.477 42.547,8.477 -6.471,9.404 -17.925,14.152 -34.427,14.152 l 0.193,15.184 c 25.746,0 46.788,-9.664 53.008,-28.883 h 95.352 c 18.464,0.876 25.948,-10.415 25.871,-10.695 z m -139.458,-5.177 h -16.429 c -5.66,0 -10.514,-2.094 -14.538,-6.147 -4.087,-4.101 -6.08,-9.037 -6.08,-14.885 0,-13.954 6.891,-20.946 20.618,-20.946 13.259,0 20.323,7.358 21.206,22.133 1.283,12.983 -0.314,19.565 -4.777,19.845 z m 64.718,-1.424 c -10.601,0 -15.865,-4.878 -15.865,-14.495 0,-9.688 5.264,-14.537 15.865,-14.537 10.74,0 16.082,4.849 16.082,14.537 0,9.617 -5.342,14.495 -16.082,14.495 z"
           id="path1096"
           inkscape:connector-curvature="0"
           style="fill:#929497" />
        <path
           d="m 421.022,1005.129 c -4.438,-3.181 -8.122,-8.85 -8.874,-17.267 -0.948,-10.612 -3.69,-19.849 -11.044,-27.588 -7.399,-7.749 -16.416,-11.685 -27.026,-11.685 h -0.286 c -10.659,0 -19.646,3.936 -27.03,11.685 -7.389,7.739 -11.059,16.933 -11.059,27.588 -2.451,13.416 -8.602,20.164 -18.527,20.45 -9.036,-1.786 -13.623,-8.227 -13.623,-19.484 v -23.735 h -0.542 v -0.242 h -16.978 v 23.504 c 0,14.023 -7.034,20.683 -21.101,20.002 h -12.253 c -7.142,0.133 -12.39,-2.481 -15.72,-7.942 -1.061,-1.795 -2.372,-4.839 -3.946,-9.194 -1.248,-3.359 -17.683,-41.078 -17.683,-41.078 h -18.591 l 15.952,34.188 c 0.518,1.499 0.927,2.989 1.204,4.622 l 0.375,2.9 c 0,4.519 -1.435,8.203 -4.355,11.113 -3.956,3.581 -9.979,5.391 -18.058,5.391 h -29.393 v 16.031 h 30.197 c 14.147,0 25.062,-3.961 32.688,-11.789 2.683,7.828 11.996,11.789 27.829,11.789 h 20.179 c 9.071,-0.286 16.184,-2.678 21.363,-7.354 5.031,4.829 12.262,7.354 21.777,7.63 l 6.274,0.405 c 10.21,0 17.55,-3.966 22.157,-12.035 0.685,0.981 1.292,1.662 1.835,2.19 7.206,7.542 16.228,11.335 27.03,11.335 l 0.286,-0.232 v 0.232 c 10.782,0 19.78,-3.793 27.026,-11.335 0.508,-0.528 1.1,-1.209 1.85,-2.19 4.127,7.292 10.562,12.256 19.296,12.948 l 121.247,-0.247 v -19.054 H 426.219 c 0,0 -2.974,0.042 -5.197,-1.552 z m -32.334,-2.662 c -4.114,4.247 -9.086,6.373 -14.896,6.373 -5.623,0 -10.496,-2.126 -14.62,-6.373 -4.134,-4.341 -6.215,-9.357 -6.215,-15.069 0,-5.953 2.082,-11.024 6.215,-15.306 4.05,-4.079 8.943,-6.161 14.62,-6.161 5.91,0 10.872,2.081 14.896,6.161 4.114,4.282 6.23,9.352 6.23,15.306 0,5.712 -2.116,10.728 -6.23,15.069 z"
           id="path1098"
           inkscape:connector-curvature="0"
           style="fill:#929497" />
      </g>
      <g
         id="g1132"
         transform="matrix(0.27310496,0,0,0.26458333,-303.3251,291.6609)">
        <rect
           x="439.25699"
           y="798.32202"
           width="19.593"
           height="15.949"
           id="rect1102"
           style="fill:#929497" />
        <path
           d="m 584.073,818.928 c 3.679,5.743 4.746,11.556 3.231,17.375 -1.984,8.48 -6.197,14.099 -12.639,16.941 -4.631,2.024 -12.549,3.061 -23.577,3.061 h -32.83 v -16.702 h 32.516 c 6.685,0 12.145,-1.172 16.427,-3.525 3.944,-2.404 4.681,-5.594 2.094,-9.493 -2.453,-3.699 -5.838,-7.309 -10.096,-10.689 -3.475,-3.041 -7.848,-6.281 -13.082,-9.782 l -16.383,-10.44 v -14.613 c 5.259,-0.324 11.656,2.119 19.299,7.388 7.045,4.657 13.531,9.373 19.459,14.264 7.535,6.498 12.749,11.902 15.581,16.215 z"
           id="path1104"
           inkscape:connector-curvature="0"
           style="fill:#929497" />
        <path
           d="m 721.9,795.919 v 23.722 c 0,14.209 -7.065,20.954 -21.284,20.262 l -5.284,0.11 -44.487,-0.11 c -14.194,0.693 -21.303,-6.053 -21.303,-20.262 v -23.722 h -17.21 l -0.264,0.234 v 46.201 c -3.57,19.055 -12.504,28.547 -36.24,28.547 l 0.822,15.735 c 28.149,0 45,-11.173 50.459,-33.598 4.123,1.974 9.228,3.012 15.311,3.012 h 77.341 c 11.322,-3.246 17.829,-13.431 19.389,-27.635 v -32.496 z"
           id="path1106"
           inkscape:connector-curvature="0"
           style="fill:#929497" />
        <g
           id="g1114">
          <rect
             x="312.633"
             y="798.33801"
             width="19.613001"
             height="16.177999"
             id="rect1108"
             style="fill:#929497" />
          <rect
             x="386.45001"
             y="798.33801"
             width="19.587999"
             height="16.177999"
             id="rect1110"
             style="fill:#929497" />
          <rect
             x="349.47101"
             y="798.33801"
             width="19.728001"
             height="16.177999"
             id="rect1112"
             style="fill:#929497" />
        </g>
        <g
           id="g1122">
          <rect
             x="645.755"
             y="869.65601"
             width="19.603001"
             height="16.183001"
             id="rect1116"
             style="fill:#929497" />
          <rect
             x="719.57202"
             y="869.65601"
             width="19.577999"
             height="16.183001"
             id="rect1118"
             style="fill:#929497" />
          <rect
             x="682.58899"
             y="869.65601"
             width="19.733"
             height="16.183001"
             id="rect1120"
             style="fill:#929497" />
        </g>
        <rect
           x="261.491"
           y="838.81"
           width="144.547"
           height="17.450001"
           id="rect1124"
           style="fill:#929497" />
        <path
           d="m 249.804,798.412 -0.289,29.934 c 1.157,26.164 -7.748,40.662 -26.728,43.694 v -0.319 c -1.789,0.189 -3.53,0.434 -5.489,0.434 -23.093,0 -34.625,-14.912 -34.625,-44.865 V 812.333 H 166.27 V 835.4 c 0,14.623 3.086,26.03 8.914,34.59 -0.748,0.334 16.223,20.316 39.65,18.865 28.662,-1.769 45.932,-10.873 51.596,-32.715 0.02,0.01 0.04,0.01 0.065,0.02 v -57.748 z"
           id="path1126"
           inkscape:connector-curvature="0"
           style="fill:#929497" />
        <path
           d="m 441.109,829.379 h 15.305 v 19.212 c -3.303,25.072 -19.443,37.621 -48.395,37.621 l 0.073,-14.972 c 22.153,0 29.711,-8.569 33.017,-26.351 z"
           id="path1128"
           inkscape:connector-curvature="0"
           style="fill:#929497" />
        <path
           d="m 501.423,852.875 h -17.865 l 0.268,-103.46 h 17.597 z"
           id="path1130"
           inkscape:connector-curvature="0"
           style="fill:#929497" />
      </g>
    </g>
    <g
       id="g1255"
       inkscape:export-xdpi="150"
       inkscape:export-ydpi="150"
       transform="matrix(1.0897472,0,0,1.0897472,65.480166,-59.539057)"
       style="opacity:0.1">
      <path
         id="path1207"
         style="fill:#000000;fill-opacity:1;stroke:none;stroke-width:0.208165px;stroke-linecap:butt;stroke-linejoin:miter;stroke-opacity:1"
         d="M 36.633364,125.9495 10.459,164.5341 l 15.584353,6.78246 z m 0.506997,0.11872 -10.577,45.30322 35.702405,-6.85157 -4.6081,-6.83937 -4.386924,0.003 c -0.09795,-0.14405 -0.121231,-0.17811 -0.213045,-0.31306 l 0.0021,0.001 4.38611,-0.0106 -2.122311,-1.12254 -3.032223,0.005 c -0.206727,-0.3034 -0.777367,-1.14288 -0.777367,-1.14288 l 0.770862,1.14288 -1.168897,0.002 1.920651,1.11239 3.137526,4.6512 0.306962,0.45698 -26.036536,4.84595 7.250826,-33.07188 2.44269,2.82812 3.767713,-0.0736 z m 0.622057,8.50348 -0.274843,1.19898 2.4618,1.28965 z m -6.466545,3.78031 -6.754401,28.4215 -9.49958,-4.15274 z m -0.468778,1.44293 -15.174124,22.63393 8.726685,3.8165 0.400881,-1.56002 -7.467121,-2.90009 13.041647,-20.00217 z m 20.135938,16.72439 2.967985,4.35074 -22.601807,4.17957 -0.429341,1.8186 25.042871,-4.61786 -2.971642,-4.56825 z" />
      <circle
         style="fill:url(#radialGradient1257);fill-opacity:1;stroke:none;stroke-width:0.00263402;stroke-linejoin:round;stroke-miterlimit:4;stroke-dasharray:none;stroke-opacity:1;paint-order:markers fill stroke"
         id="circle1209"
         cx="40.07497"
         cy="150.98828"
         r="31.224815" />
      <path
         id="path1211"
         style="fill:#aa0236;fill-opacity:1;stroke-width:16.2462;stroke-linejoin:round;paint-order:markers fill stroke"
         d="m 76.742698,139.28966 -5.30212,0.0468 -4.787804,5.10412 v -5.10412 h -4.371475 v 15.19608 h 4.371475 v -4.39221 l 1.488464,-1.60068 4.038082,6.13031 5.243981,-0.0102 -6.375067,-9.24628 z m -34.010653,0.0305 v 15.19608 h 15.196076 v -15.19608 z m 34.997405,0.0163 v 3.7112 h 4.952062 v 11.48488 h 4.371474 v -11.48488 h 4.676809 v -3.7112 z m 15.776664,0 v 15.19608 h 4.371474 7.965582 v -3.7112 h -7.965582 v -2.59882 h 6.774732 v -3.22494 h -6.774732 v -1.94992 h 7.965582 v -3.7112 h -7.965582 z" />
      <path
         d="m 105.77825,161.34064 q -0.32514,0.8118 -0.4877,0.8118 -0.84111,0 -1.22278,-0.20825 -0.29686,0.27178 -0.8199,0.27178 h -0.50891 v -1.07651 h 0.44883 q -0.1661,-0.13766 -0.1661,-0.36002 0,-0.3706 0.3428,-0.85768 0.50537,-0.72002 1.08142,-0.72002 0.73508,0 1.12029,0.71296 0.0848,0.1553 0.0848,0.25413 0,0.14118 -0.15903,0.14118 -0.0884,0 -0.23678,-0.0529 -0.35694,-0.12706 -0.9648,-0.12706 -0.74215,0 -0.74215,0.38119 0,0.45178 1.09202,0.57884 0.54778,0.0635 1.00014,0.007 0.0565,-0.007 0.0848,-0.007 0.10248,0 0.10248,0.0741 0,0.0529 -0.0495,0.17648 z"
         style="font-style:normal;font-variant:normal;font-weight:bold;font-stretch:normal;font-size:598.891px;line-height:1.25;font-family:'B Zar';-inkscape-font-specification:'B Zar Bold';letter-spacing:0px;word-spacing:0px;fill:#aa0236;fill-opacity:1;stroke-width:0.0847625"
         id="path1213" />
      <path
         d="m 102.93333,162.21597 h -0.26858 q -0.27566,0 -0.51244,-0.15177 -0.23678,-0.15177 -0.33574,-0.40237 -0.72448,0.55414 -1.62566,0.55414 -0.947126,0 -1.286397,-0.36707 -0.219111,0.36707 -0.600789,0.36707 h -0.303928 v -1.07651 h 0.197906 q 0.303929,0 0.441758,-0.1906 0.07068,-0.0988 0.134293,-0.34942 0.04594,-0.18707 0.134295,-0.18707 0.06008,0 0.187304,0.33884 0.130761,0.3353 0.307463,0.3353 0.477098,-0.6212 1.137965,-1.08357 0.77396,-0.54002 1.38888,-0.54002 0.3004,0 0.51597,0.22236 0.21912,0.22237 0.21912,0.52238 0,0.39884 -0.26859,0.81532 0.0919,0.11648 0.27565,0.11648 h 0.26152 z m -0.92238,-1.39064 q 0,-0.2153 -0.30747,-0.36355 -0.25445,-0.12353 -0.49476,-0.12353 -0.73155,0 -1.33941,0.79062 0.22265,0.0423 0.66087,0.0423 0.56898,0 0.986,-0.0777 0.49477,-0.0918 0.49477,-0.26824 z"
         style="font-style:normal;font-variant:normal;font-weight:bold;font-stretch:normal;font-size:598.891px;line-height:1.25;font-family:'B Zar';-inkscape-font-specification:'B Zar Bold';letter-spacing:0px;word-spacing:0px;fill:#aa0236;fill-opacity:1;stroke-width:0.0847625"
         id="path1215" />
      <path
         d="m 98.197704,162.21597 h -2.883788 v -1.07651 h 2.883788 z"
         style="font-style:normal;font-variant:normal;font-weight:bold;font-stretch:normal;font-size:598.891px;line-height:1.25;font-family:'B Zar';-inkscape-font-specification:'B Zar Bold';letter-spacing:0px;word-spacing:0px;fill:#aa0236;fill-opacity:1;stroke-width:0.0847625"
         id="path1217" />
      <path
         d="m 95.511824,162.21597 h -0.197908 q -0.09542,0 -0.159032,-0.0635 0.01414,1.15769 -0.745685,1.97654 -0.120158,0.13059 -0.180237,0.16236 -0.07421,0.0424 -0.23678,0.0459 -0.307463,0.0106 -0.802232,-0.0459 -0.667936,-0.0741 -0.667936,-0.22236 0,-0.12353 0.286258,-0.23648 0.572517,-0.22589 0.971866,-0.45531 1.035477,-0.59296 1.035477,-1.02004 0,-0.36001 -0.957729,-1.0518 l 0.537177,-0.79768 q 0.05654,-0.0847 0.08835,-0.0847 0.03181,0 0.106022,0.0847 0.540709,0.63179 0.823434,0.63179 h 0.09895 z"
         style="font-style:normal;font-variant:normal;font-weight:bold;font-stretch:normal;font-size:598.891px;line-height:1.25;font-family:'B Zar';-inkscape-font-specification:'B Zar Bold';letter-spacing:0px;word-spacing:0px;fill:#aa0236;fill-opacity:1;stroke-width:0.0847625"
         id="path1219" />
      <path
         style="font-style:normal;font-variant:normal;font-weight:bold;font-stretch:normal;font-size:598.891px;line-height:1.25;font-family:'B Zar';-inkscape-font-specification:'B Zar Bold';letter-spacing:0px;word-spacing:0px;fill:#aa0236;fill-opacity:1;stroke-width:0.114221"
         d="m 88.148414,158.28027 q 0.06191,0.0571 -0.0048,0.12367 l -0.595286,0.58977 q -0.06191,0.0618 -0.128582,0 l -0.600048,-0.58026 q -0.07143,-0.0714 0.01429,-0.15696 l 0.552424,-0.56123 q 0.0762,-0.0761 0.152394,0 z"
         id="path1221" />
      <path
         d="m 83.831914,161.75685 q 0,0.75748 -0.256591,1.39228 -0.194879,0.48454 -0.500189,0.82188 -0.243599,0.26987 -0.350782,0.26987 -0.386511,0 -1.198508,-0.1288 -0.227359,-0.0368 -0.227359,-0.18094 0,-0.0767 0.175391,-0.13493 0.331295,-0.1104 0.431983,-0.1564 1.347914,-0.62561 1.546042,-1.31868 -0.233856,0.0184 -0.435231,0.0184 -1.179019,0 -1.179019,-0.57654 0,-0.29747 0.220863,-0.88321 0.302063,-0.80348 0.737293,-0.80348 0.53267,0 0.818493,0.62561 0.217614,0.47841 0.217614,1.05494 z m -0.571645,-0.35573 q -0.0812,-0.24534 -0.302063,-0.37721 -0.159151,-0.0951 -0.295567,-0.0951 -0.331295,0 -0.331295,0.2944 0,0.19013 0.669086,0.19013 0.142912,0 0.259839,-0.0123 z"
         style="font-style:normal;font-variant:normal;font-weight:bold;font-stretch:normal;font-size:598.891px;line-height:1.25;font-family:'B Zar';-inkscape-font-specification:'B Zar Bold';letter-spacing:0px;word-spacing:0px;fill:#aa0236;fill-opacity:1;stroke-width:0.0757446"
         id="path1223" />
      <path
         d="m 81.751171,162.03893 q 0,1.14809 -0.795161,1.94978 -0.120159,0.12206 -0.187305,0.15505 -0.06715,0.033 -0.229714,0.0363 -0.335735,0.01 -0.80223,-0.0396 -0.667936,-0.0693 -0.667936,-0.20785 0,-0.11547 0.286258,-0.22104 0.572516,-0.21114 0.971865,-0.42558 1.035477,-0.55426 1.035477,-0.95345 0,-0.33651 -0.957729,-0.98314 l 0.512438,-0.7258 q 0.04948,-0.0726 0.102489,-0.0726 0.04948,0 0.137828,0.0726 0.212042,0.17485 0.381678,0.51796 0.212042,0.43218 0.212042,0.89736 z"
         style="font-style:normal;font-variant:normal;font-weight:bold;font-stretch:normal;font-size:598.891px;line-height:1.25;font-family:'B Zar';-inkscape-font-specification:'B Zar Bold';letter-spacing:0px;word-spacing:0px;fill:#aa0236;fill-opacity:1;stroke-width:0.081949"
         id="path1225" />
      <path
         d="m 79.304676,160.27724 c -0.517871,0.0119 -0.624406,0.0161 -0.953945,0.0205 -0.507717,0.0275 -0.931676,0.19866 -0.92764,0.71617 0.533947,0.33875 1.586445,-0.12318 2.271349,-0.002 0.684286,0.14576 0.888032,0.73684 0.6454,1.51429 -0.247361,0.52886 -0.535586,1.17127 -1.935071,1.17127 -1.191734,-0.10668 -1.039247,-0.0976 -1.556482,0.17416 -0.05248,-0.28266 0.171921,-1.0682 0.854394,-1.15025 0.994742,-0.1196 2.02814,0.0881 2.19355,-0.56635 -0.243849,-0.46556 -1.947455,0.14086 -2.690948,-0.2449 -0.445549,-0.29804 -0.479847,-0.76075 -0.331785,-1.09317 0.17199,-0.37413 0.375788,-0.68238 0.611391,-0.92474 0.296861,-0.3059 0.570118,-0.59865 0.892894,-0.59865 0.753672,0.0918 0.885549,0.85147 0.926893,0.98407 z"
         style="font-style:normal;font-variant:normal;font-weight:bold;font-stretch:normal;font-size:598.891px;line-height:1.25;font-family:'B Zar';-inkscape-font-specification:'B Zar Bold';letter-spacing:0px;word-spacing:0px;fill:#aa0236;fill-opacity:1;stroke-width:0.0847625"
         id="path1227"
         sodipodi:nodetypes="cccccccscccccc" />
      <path
         d="m 76.245834,160.95059 q 0,0.75941 -0.20828,1.07969 -0.294237,0.45235 -1.001726,0.45235 h -0.667817 q -0.386806,0 -0.601698,-0.23113 -0.211585,-0.23113 -0.211585,-0.62074 0,-0.27075 0.06281,-0.5514 0.04298,-0.18821 0.15869,-0.18821 0.138854,0 0.188444,0.28396 0.04959,0.30046 0.816588,0.30046 1.163721,0 1.163721,-0.25754 0,-0.17169 -0.58186,-0.61083 -0.581861,-0.43914 -0.776917,-0.43914 -0.04628,0 -0.105792,0.0297 -0.0562,0.0297 -0.07604,0.0297 -0.125628,0 -0.125628,-0.13207 0,-0.0429 0.02314,-0.10236 l 0.307461,-0.77592 q 0.04298,-0.10566 0.155383,-0.10566 0.277705,0 0.852954,0.62734 0.628146,0.68348 0.628146,1.21177 z"
         style="font-style:normal;font-variant:normal;font-weight:bold;font-stretch:normal;font-size:598.891px;line-height:1.25;font-family:'B Zar';-inkscape-font-specification:'B Zar Bold';letter-spacing:0px;word-spacing:0px;fill:#aa0236;fill-opacity:1;stroke-width:0.0792935"
         id="path1229" />
      <path
         d="m 73.442789,157.78885 -0.294258,4.47624 q -0.02146,0.33101 -0.140997,0.33101 -0.122608,0 -0.162456,-0.41953 l -0.34943,-3.74496 0.827599,-0.75438 q 0.05517,-0.05 0.08582,-0.05 0.04291,0 0.03372,0.16166 z"
         style="font-style:normal;font-variant:normal;font-weight:bold;font-stretch:normal;font-size:598.891px;line-height:1.25;font-family:'B Zar';-inkscape-font-specification:'B Zar Bold';letter-spacing:0px;word-spacing:0px;fill:#aa0236;fill-opacity:1;stroke-width:0.0824333"
         id="path1231" />
      <path
         style="font-style:normal;font-variant:normal;font-weight:bold;font-stretch:normal;font-size:598.891px;line-height:1.25;font-family:'B Zar';-inkscape-font-specification:'B Zar Bold';letter-spacing:0px;word-spacing:0px;fill:#aa0236;fill-opacity:1;stroke-width:0.0831657"
         d="m 72.615238,160.99965 q 0,0.52666 -0.254451,0.94459 -0.3216,0.53006 -0.91532,0.53006 h -0.26152 v -1.03633 h 0.219111 q 0.699743,0 0.699743,-0.19708 0,-0.17329 -0.629062,-0.73053 l 0.50537,-0.74752 q 0.04241,-0.0612 0.09895,-0.017 0.289792,0.22766 0.434688,0.66937 0.102487,0.3126 0.102487,0.58443 z"
         id="path1233" />
      <path
         d="m 71.381855,162.4743 h -2.094667 v -1.03633 h 2.094667 z"
         style="font-style:normal;font-variant:normal;font-weight:bold;font-stretch:normal;font-size:598.891px;line-height:1.25;font-family:'B Zar';-inkscape-font-specification:'B Zar Bold';letter-spacing:0px;word-spacing:0px;fill:#aa0236;fill-opacity:1;stroke-width:0.0708794"
         id="path1235" />
      <path
         style="font-style:normal;font-variant:normal;font-weight:bold;font-stretch:normal;font-size:598.891px;line-height:1.25;font-family:'B Zar';-inkscape-font-specification:'B Zar Bold';letter-spacing:0px;word-spacing:0px;fill:#aa0236;fill-opacity:1;stroke-width:0.0919106"
         d="m 68.133711,158.99724 q 0.04687,0.0451 -0.0039,0.0939 l -0.456962,0.43559 q -0.05077,0.0451 -0.09764,0 l -0.44134,-0.42433 -0.433527,0.42433 q -0.04687,0.0451 -0.09764,0 l -0.464772,-0.43184 q -0.05468,-0.0488 0.01172,-0.11265 l 0.421812,-0.41306 q 0.05858,-0.0563 0.11717,0 l 0.429622,0.41306 0.429622,-0.41306 q 0.05468,-0.0526 0.113264,0 z"
         id="path1237" />
      <path
         style="font-style:normal;font-variant:normal;font-weight:bold;font-stretch:normal;font-size:598.891px;line-height:1.25;font-family:'B Zar';-inkscape-font-specification:'B Zar Bold';letter-spacing:0px;word-spacing:0px;fill:#aa0236;fill-opacity:1;stroke-width:0.0919106"
         d="m 67.657221,158.13357 q 0.04687,0.0451 -0.0039,0.0939 l -0.449151,0.42808 q -0.04687,0.0451 -0.09764,0 l -0.453057,-0.42057 q -0.05468,-0.0526 0.0078,-0.11266 l 0.421812,-0.4093 q 0.05468,-0.0526 0.109357,0 z"
         id="path1239" />
      <path
         style="font-style:normal;font-variant:normal;font-weight:bold;font-stretch:normal;font-size:598.891px;line-height:1.25;font-family:'B Zar';-inkscape-font-specification:'B Zar Bold';letter-spacing:0px;word-spacing:0px;fill:#aa0236;fill-opacity:1;stroke-width:0.0831657"
         d="M 69.287188,162.4743 H 69.09635 q -0.275656,0 -0.462962,-0.35677 -0.240314,0.36696 -0.523039,0.36696 -0.353405,0 -0.58312,-0.36017 -0.229713,0.34998 -0.533641,0.34998 -0.215577,0 -0.406415,-0.068 0,1.03294 -0.586641,1.57319 -0.586632,0.54365 -1.664518,0.54365 -0.848172,0 -1.388884,-0.3126 -0.660867,-0.38395 -0.660867,-1.14166 0,-0.74752 0.35694,-1.26059 0.09188,-0.13252 0.194372,-0.13252 0.08128,0 0.08128,0.10194 0,0.0578 -0.02474,0.12911 -0.127226,0.37037 -0.127226,0.65918 0,0.9276 1.583255,0.9276 0.629063,0 1.145034,-0.13931 0.766855,-0.20726 0.766855,-0.63879 0,-0.3024 -0.879944,-1.20622 l 0.434677,-0.75092 q 0.04947,-0.0849 0.09541,-0.0849 0.04241,0 0.09541,0.0646 0.28978,0.35677 0.406404,0.4655 0.257986,0.23784 0.501836,0.23784 0.208509,0 0.282724,-0.17329 0.01767,-0.0815 0.06715,-0.31599 0.03888,-0.16989 0.159032,-0.16989 0.116624,0 0.155499,0.16989 0.06715,0.29561 0.08128,0.31599 0.08128,0.17329 0.303928,0.17329 0.212043,0 0.289793,-0.17329 l 0.07775,-0.31599 q 0.04241,-0.16989 0.166101,-0.16989 0.109555,0 0.144896,0.16989 0.05654,0.27522 0.07775,0.31599 0.08482,0.1699 0.310997,0.1699 h 0.254451 z"
         id="path1241" />
      <path
         style="font-style:normal;font-variant:normal;font-weight:bold;font-stretch:normal;font-size:598.891px;line-height:1.25;font-family:'B Zar';-inkscape-font-specification:'B Zar Bold';letter-spacing:0px;word-spacing:0px;fill:#aa0236;fill-opacity:1;stroke-width:0.0930246"
         d="m 90.647479,162.58211 h -0.301461 q -0.683307,0 -0.936532,-0.72139 -0.22911,0.72139 -0.876243,0.72139 h -0.345672 v -1.14002 h 0.221069 q 0.643114,0 0.819971,-0.78493 0.05627,-0.25043 0.200971,-0.25043 0.144701,0 0.176857,0.25043 0.09647,0.78493 0.739579,0.78493 h 0.301461 z"
         id="path1243" />
      <path
         d="m 88.412661,162.58211 h -3.279876 v -1.14002 h 3.279876 z"
         style="font-style:normal;font-variant:normal;font-weight:bold;font-stretch:normal;font-size:598.891px;line-height:1.25;font-family:'B Zar';-inkscape-font-specification:'B Zar Bold';letter-spacing:0px;word-spacing:0px;fill:#aa0236;fill-opacity:1;stroke-width:0.0930246"
         id="path1245" />
      <path
         d="m 85.35787,162.58211 h -0.393907 q -1.065156,0 -1.065156,-1.59603 0,-1.27084 -0.100486,-2.67998 l 0.73154,-0.47844 q 0.136662,-0.0897 0.180877,-0.0897 0.05627,0 0.05627,0.18689 l -0.004,2.98275 q 0,0.5345 0.482335,0.5345 h 0.112545 z"
         style="font-style:normal;font-variant:normal;font-weight:bold;font-stretch:normal;font-size:598.891px;line-height:1.25;font-family:'B Zar';-inkscape-font-specification:'B Zar Bold';letter-spacing:0px;word-spacing:0px;fill:#aa0236;fill-opacity:1;stroke-width:0.0930246"
         id="path1247" />
      <path
         id="path1249"
         style="font-style:normal;font-variant:normal;font-weight:bold;font-stretch:normal;font-size:598.891px;line-height:1.25;font-family:'B Zar';-inkscape-font-specification:'B Zar Bold';letter-spacing:0px;word-spacing:0px;fill:#aa0236;fill-opacity:1;stroke-width:0.0931905"
         d="m 91.756845,158.81975 c -0.332275,0 -0.601578,0.22132 -0.80791,0.66395 -0.160779,0.3451 -0.241169,0.6727 -0.241169,0.98279 0,0.41262 0.328257,0.61893 0.984768,0.61893 0.163458,0 0.443487,-0.02 0.840072,-0.06 0,0.14254 -0.166143,0.25258 -0.498417,0.3301 -0.238488,0.055 -0.464918,0.0825 -0.679289,0.0825 h -0.932511 v 1.14409 h 0.562721 c 0.672589,0 1.185744,-0.17505 1.539456,-0.52516 0.340313,-0.3426 0.510471,-0.83024 0.510471,-1.46292 0,-0.57767 -0.136661,-1.02781 -0.409986,-1.35041 -0.238487,-0.28258 -0.527893,-0.42387 -0.868206,-0.42387 z m -0.180871,0.88151 c 0.289401,0 0.539948,0.15005 0.751639,0.45014 -0.182215,0.045 -0.37649,0.0675 -0.582822,0.0675 -0.353712,0 -0.530566,-0.0663 -0.530566,-0.19881 0,-0.0925 0.03484,-0.1688 0.104507,-0.22882 0.07235,-0.06 0.158095,-0.09 0.257242,-0.09 z" />
      <path
         style="font-style:normal;font-variant:normal;font-weight:bold;font-stretch:normal;font-size:598.891px;line-height:1.25;font-family:'B Zar';-inkscape-font-specification:'B Zar Bold';letter-spacing:0px;word-spacing:0px;fill:#aa0236;fill-opacity:1;stroke-width:0.114221"
         d="m 90.650661,158.27904 q 0.06191,0.0571 -0.0048,0.12366 l -0.595286,0.58977 q -0.06191,0.0618 -0.128582,0 l -0.600048,-0.58026 q -0.07143,-0.0713 0.01429,-0.15695 l 0.552423,-0.56124 q 0.0762,-0.0761 0.152396,0 z"
         id="path1251" />
      <path
         style="font-style:normal;font-variant:normal;font-weight:bold;font-stretch:normal;font-size:598.891px;line-height:1.25;font-family:'B Zar';-inkscape-font-specification:'B Zar Bold';letter-spacing:0px;word-spacing:0px;fill:#aa0236;fill-opacity:1;stroke-width:0.114221"
         d="m 72.082604,158.34671 q 0.06191,0.0571 -0.0048,0.12366 l -0.595287,0.58977 q -0.06191,0.0618 -0.128583,0 l -0.600047,-0.58026 q -0.07143,-0.0713 0.01429,-0.15695 l 0.552424,-0.56123 q 0.0762,-0.0761 0.152394,0 z"
         id="path1253" />
    </g>
    <ellipse
       style="fill:#ffffff;fill-opacity:1;stroke-width:0.580263;stop-color:#000000"
       id="path1638"
       cx="248.56874"
       cy="24.020597"
       rx="14.335889"
       ry="14.2449" />
    <g
       id="g1196"
       transform="translate(0.07914924)">
      <circle
         style="fill:none;fill-opacity:1;stroke:#aa0236;stroke-width:0.5;stroke-miterlimit:4;stroke-dasharray:none;stroke-opacity:1;stop-color:#000000"
         id="path973"
         cx="248.61331"
         cy="23.969053"
         r="14.396143" />
      <g
         id="g965"
         transform="matrix(1.1142983,0,0,1.1142983,-52.992598,1.3610029)">
        <path
           id="path934"
           style="fill:#000000;fill-opacity:1;stroke:none;stroke-width:0.0448671px;stroke-linecap:butt;stroke-linejoin:miter;stroke-opacity:1"
           d="m 264.34219,14.36902 -5.64153,8.316382 3.359,1.461866 z m 0.10928,0.02559 -2.27973,9.764488 7.69516,-1.476762 -0.99321,-1.474132 -0.94554,6.46e-4 c -0.0211,-0.03105 -0.0261,-0.03839 -0.0459,-0.06748 l 4.5e-4,2.16e-4 0.94537,-0.0023 -0.45744,-0.241948 -0.65355,0.0011 c -0.0446,-0.06539 -0.16755,-0.246332 -0.16755,-0.246332 l 0.16615,0.246332 -0.25194,4.31e-4 0.41397,0.23976 0.67625,1.002503 0.0662,0.0985 -5.61182,1.044479 1.56282,-7.128191 0.52649,0.609563 0.81207,-0.01586 z m 0.13407,1.832808 -0.0592,0.258424 0.53061,0.277966 z m -1.39377,0.814794 -1.45582,6.125865 -2.04751,-0.895066 z m -0.10104,0.311004 -3.27058,4.878434 1.88092,0.822594 0.0864,-0.336241 -1.60944,-0.625075 2.81095,-4.311193 z m 4.34002,3.604713 0.63971,0.937743 -4.87151,0.900849 -0.0925,0.391974 5.39765,-0.995316 -0.6405,-0.984624 z" />
        <circle
           style="fill:url(#radialGradient942);fill-opacity:1;stroke:none;stroke-width:0.00056773;stroke-linejoin:round;stroke-miterlimit:4;stroke-dasharray:none;stroke-opacity:1;paint-order:markers fill stroke"
           id="circle936"
           cx="265.08267"
           cy="19.765787"
           r="6.7300811" />
        <path
           style="fill:#aa0236;fill-opacity:1;stroke-width:3.50165;stroke-linejoin:round;paint-order:markers fill stroke"
           d="m 265.65668,17.250909 v 3.275307 h 3.2753 v -3.275307 z"
           id="path1129" />
      </g>
      <g
         transform="matrix(0.08670039,0,0,0.08613292,183.76227,-23.853873)"
         id="g4457"
         inkscape:label="Layer 1">
        <g
           id="g4459">
          <g
             id="g4461"
             transform="translate(-6.0683965,-190.54765)">
            <path
               id="path4463"
               d="m 749.36212,632.73868 v 58.04883 58.05078 h 25.80078 25.79883 V 690.78751 632.73868 H 775.1629 Z m 9.5633,9.56445 h 32.47186 v 96.97852 h -32.47186 c 0,-32.32617 0,-64.65235 0,-96.97852 z"
               style="fill:#2e1c59;fill-opacity:1"
               inkscape:connector-curvature="0"
               sodipodi:nodetypes="cccccccccccccc" />
            <path
               sodipodi:nodetypes="cccccccccccccc"
               id="path4465"
               d="m 809.6629,697.23868 v 25.79883 25.80078 h 25.94922 25.94922 v -25.80078 -25.79883 h -25.94922 z m 9.55277,9.57422 h 32.7929 v 32.46875 h -32.7929 z"
               style="fill:#2e1c59;fill-opacity:1"
               inkscape:connector-curvature="0" />
            <path
               sodipodi:nodetypes="cccccccccccccc"
               id="path4467"
               d="m 689.36212,632.73868 v 25.95117 25.94922 h 25.94922 25.95117 v -25.94922 -25.95117 h -25.95117 z m 9.56641,9.56836 h 32.76953 v 32.76562 h -32.76953 z"
               style="fill:#2e1c59;fill-opacity:1"
               inkscape:connector-curvature="0" />
            <path
               sodipodi:nodetypes="cccccccccccccc"
               id="path4469"
               d="m 809.6629,632.73868 v 25.95117 25.94922 h 25.94922 25.94922 v -25.94922 -25.95117 h -25.94922 z m 9.55277,9.56836 h 32.78118 v 32.76953 h -32.78118 z"
               style="fill:#2e1c59;fill-opacity:1"
               inkscape:connector-curvature="0" />
          </g>
        </g>
      </g>
      <path
         id="path1021-3"
         style="fill:#54c4c5;fill-opacity:1;stroke-width:0.0393263"
         d="m 251.24575,24.956173 c -1.45616,0 -1.71388,0.01397 -1.86131,0.05685 -0.55025,0.159955 -0.95468,0.553932 -1.14325,1.113661 -0.0782,0.232104 -0.0801,0.320811 -0.0801,3.69561 0,3.332768 0.003,3.466939 0.0777,3.709441 0.18229,0.590177 0.65457,1.02463 1.25937,1.158512 0.16237,0.03594 1.06946,0.04603 3.63768,0.04025 3.84055,-0.0087 3.59454,0.0098 4.06662,-0.305392 0.2703,-0.180509 0.50522,-0.479701 0.64181,-0.817408 l 0.0895,-0.220982 0.0117,-3.382075 c 0.007,-2.352851 -9.4e-4,-3.459195 -0.032,-3.635551 -0.0957,-0.554775 -0.42865,-1.00013 -0.93494,-1.250377 l -0.29908,-0.14786 -3.53778,-0.01088 c -0.792,-0.0025 -1.41049,-0.004 -1.89588,-0.004 z m 0.79052,0.984854 c 0.52503,0.0022 1.11384,0.03484 1.50616,0.09095 2.53512,0.362537 3.83887,1.68526 3.96453,4.022288 0.0425,0.791746 -0.11601,1.624046 -0.40641,2.132996 -0.42004,0.736146 -1.02055,1.231134 -1.89112,1.55885 l -0.24673,0.09286 h -2.45697 c -1.35135,0 -2.45652,-0.01328 -2.45597,-0.02949 6.2e-4,-0.01622 0.31003,-0.212944 0.68783,-0.437197 l 0.68689,-0.407705 0.0102,-2.203668 0.0102,-2.203585 0.33427,-0.107691 c 0.18384,-0.05921 0.50828,-0.180385 0.72101,-0.269294 0.21273,-0.0889 0.40317,-0.161687 0.42314,-0.161687 0.0218,0 0.0323,0.885275 0.0262,2.228474 l -0.0101,2.228476 -0.45225,0.248478 -0.45226,0.248479 1.28395,6.17e-4 1.28395,6.17e-4 0.23012,-0.120364 c 0.58153,-0.304296 0.82565,-0.782426 0.92241,-1.806328 0.0683,-0.722933 -0.0184,-1.700547 -0.20402,-2.302519 -0.4312,-1.397771 -1.57801,-2.0746 -3.51641,-2.075295 -0.70994,-3.13e-4 -1.07285,0.05985 -1.54578,0.25616 -1.06397,0.441619 -1.39311,1.349759 -0.94714,2.61329 0.0625,0.177088 0.11367,0.332578 0.11367,0.345488 0,0.06145 -0.40746,-0.19336 -0.58375,-0.365076 -0.46407,-0.452016 -0.65519,-0.901509 -0.6548,-1.5398 1.9e-4,-0.375585 0.0112,-0.434262 0.11483,-0.648885 0.35211,-0.725206 1.32792,-1.219261 2.68456,-1.359222 0.21288,-0.02194 0.50493,-0.03153 0.81994,-0.03019 z" />
    </g>
    <text
       xml:space="preserve"
       style="font-style:normal;font-weight:normal;font-size:1.65519px;line-height:1.25;font-family:sans-serif;fill:#2e1c59;fill-opacity:1;stroke:none;stroke-width:0.0775874"
       x="242.85649"
       y="31.080187"
       id="text987"><tspan
         sodipodi:role="line"
         id="tspan985"
         x="242.85649"
         y="31.080187"
         style="font-style:normal;font-variant:normal;font-weight:900;font-stretch:normal;font-size:1.65519px;font-family:IRANSansX;-inkscape-font-specification:'IRANSansX Heavy';text-align:center;text-anchor:middle;fill:#2e1c59;fill-opacity:1;stroke-width:0.0775874" /><tspan
         sodipodi:role="line"
         x="242.85649"
         y="33.360798"
         style="font-style:normal;font-variant:normal;font-weight:900;font-stretch:normal;font-size:1.65519px;font-family:IRANSansX;-inkscape-font-specification:'IRANSansX Heavy';text-align:center;text-anchor:middle;fill:#2e1c59;fill-opacity:1;stroke-width:0.0775874"
         id="tspan989"></tspan></text>
    <text
       xml:space="preserve"
       style="font-style:normal;font-weight:normal;font-size:1.46222px;line-height:1.25;font-family:sans-serif;fill:#2e1c59;fill-opacity:1;stroke:none;stroke-width:0.0685415"
       x="242.92078"
       y="31.164682"
       id="text995"><tspan
         sodipodi:role="line"
         id="tspan991"
         x="242.92078"
         y="31.164682"
         style="font-style:normal;font-variant:normal;font-weight:900;font-stretch:normal;font-size:1.46222px;font-family:IRANSansX;-inkscape-font-specification:'IRANSansX Heavy';text-align:center;text-anchor:middle;fill:#2e1c59;fill-opacity:1;stroke-width:0.0685415">  </tspan><tspan
         sodipodi:role="line"
         x="242.92078"
         y="33.179409"
         style="font-style:normal;font-variant:normal;font-weight:900;font-stretch:normal;font-size:1.46222px;font-family:IRANSansX;-inkscape-font-specification:'IRANSansX Heavy';text-align:center;text-anchor:middle;fill:#2e1c59;fill-opacity:1;stroke-width:0.0685415"
         id="tspan993" /></text>
    <g
       id="g1024">
      <path
         d="m 261.18955,49.891596 q -0.37724,0.475424 -1.00769,0.599447 -0.50126,0.113688 -1.04904,0.206706 -0.10335,0.0052 -0.15503,-0.02067 -0.0568,-0.02067 0.0982,-0.129191 0.63045,-0.37207 1.25057,-0.733806 0.62529,-0.366903 0.95085,-0.775147 0.32556,-0.413411 0.59945,-0.971517 0.27388,-0.558107 0.49609,-1.043865 0.0568,-0.103353 0.12919,-0.07235 0.0723,0.02584 0.0103,0.186035 -0.18604,0.444418 -0.22221,0.733806 0.005,0.485759 0.20154,0.733806 0.2067,0.258382 0.46509,0.258382 0.0465,-0.0155 0.15503,-0.341065 0.11368,-0.325562 0.1912,-0.496094 0.22738,0.04651 0.32556,0.222209 0.10335,0.170532 0.11369,0.341065 0,0.589111 -0.3669,1.219565 -0.36174,0.625285 -0.95085,0.625285 -0.40307,-0.0155 -0.66663,-0.403077 -0.17053,-0.248047 -0.18087,-0.697632 -0.24288,0.392741 -0.38757,0.558106 z"
         style="font-style:normal;font-variant:normal;font-weight:normal;font-stretch:normal;font-size:19.9759px;line-height:1.45;font-family:'Dima SHekasteh Free2';-inkscape-font-specification:'Dima SHekasteh Free2';text-align:end;text-anchor:end;fill:#2e1c59;fill-opacity:1;stroke:none;stroke-width:0.264583"
         id="path950" />
      <path
         d="m 259.24135,42.036773 q -0.0517,0.253214 -0.12403,1.007691 -0.0672,0.749309 -0.16019,2.02055 -0.0982,1.260906 -0.1757,2.04122 -0.0775,0.775147 -0.1447,1.095541 -0.22738,1.090374 -0.76481,2.165245 -0.57878,1.152385 -1.44694,1.881023 -0.99736,0.831991 -2.05156,0.831991 -1.06453,0 -1.63814,-0.604614 -0.53743,-0.568442 -0.53743,-1.550295 0,-1.560629 1.2454,-3.322796 0.0827,-0.113689 0.14986,-0.118857 0.062,-0.0052 0.062,0.08268 0,0.06718 -0.0568,0.170532 -0.72864,1.204062 -0.72864,2.077394 0,0.826824 0.62529,1.276409 0.53743,0.382406 1.33841,0.382406 1.20924,0 2.11357,-0.723471 0.90434,-0.718302 1.1834,-1.901694 0.0413,-0.191202 0.093,-0.842326 0.0568,-0.651123 0.11369,-1.777671 0.062,-1.167888 0.11368,-1.881023 0.0568,-0.713136 0.10853,-0.987021 0.0517,-0.289388 0.1757,-0.640788 0.12919,-0.356568 0.33073,-0.79065 0.21187,-0.454753 0.21187,-0.165364 0,0.10852 -0.0362,0.273885 z"
         style="font-style:normal;font-variant:normal;font-weight:normal;font-stretch:normal;font-size:19.9759px;line-height:1.45;font-family:'Dima SHekasteh Free2';-inkscape-font-specification:'Dima SHekasteh Free2';text-align:end;text-anchor:end;fill:#2e1c59;fill-opacity:1;stroke:none;stroke-width:0.264583"
         id="path952" />
      <path
         d="m 255.77693,46.754834 q -0.55811,0.79065 -0.55811,1.364259 0,0.124024 0.0259,0.232544 0.0259,0.108521 0.062,0.191203 0.0362,0.07752 0.0775,0.124023 0.0465,0.04134 0.0878,0.04134 0.0775,0 0.22738,-0.366903 0.0775,-0.191202 0.093,-0.191202 0.15503,0 0.29972,0.253214 0.093,0.170532 0.093,0.366903 0,0.5271 -0.33073,1.043865 -0.38241,0.620118 -0.8785,0.620118 -0.31522,0 -0.53227,-0.294556 -0.21187,-0.299724 -0.21187,-0.656292 0,-0.583944 0.39791,-1.379761 0.32039,-0.645956 0.90434,-1.410768 -0.1602,-0.06718 -0.29973,-0.170532 -0.13952,-0.108521 -0.26872,-0.253215 -0.25321,-0.284221 -0.25321,-0.831991 0,-0.397909 0.15503,-1.080039 0.0568,-0.227376 0.0982,-0.377238 0.0413,-0.149861 0.0672,-0.227376 0.093,-0.294556 0.22221,-0.635621 0.13436,-0.346232 0.31006,-0.744141 0.34624,-0.795817 0.46509,-0.795817 0.0827,0.0052 0.0155,0.237711 -0.0672,0.196371 -0.12403,0.392741 -0.0568,0.191203 -0.11369,0.382406 -0.0259,0.113689 -0.0672,0.268718 -0.0362,0.149862 -0.0775,0.341065 -0.0413,0.191203 -0.0724,0.387573 -0.031,0.196371 -0.0413,0.408244 -0.005,0.361735 0.13952,0.625286 0.14987,0.258382 0.67697,0.30489 0.0465,0 0.0878,0 0.0465,-0.0052 0.0827,0 0.0362,0.0052 0.0568,0.03101 0.0207,0.02067 0.0207,0.06718 0,0.149862 -0.0723,0.356568 -0.0723,0.201538 -0.32556,0.676961 -0.093,0.160197 -0.18604,0.310059 -0.0879,0.144694 -0.1757,0.279053 l -0.0775,0.108521 z"
         style="font-style:normal;font-variant:normal;font-weight:normal;font-stretch:normal;font-size:19.9759px;line-height:1.45;font-family:'Dima SHekasteh Free2';-inkscape-font-specification:'Dima SHekasteh Free2';text-align:end;text-anchor:end;fill:#2e1c59;fill-opacity:1;stroke:none;stroke-width:0.264583"
         id="path954" />
      <path
         d="m 253.46493,44.651602 q -0.20154,0.341065 -0.3669,0.341065 -0.031,0 -0.12403,-0.0155 -0.0879,-0.0155 -0.15503,-0.0155 -0.37207,0 -0.8785,0.289388 -0.25321,0.144695 -0.47025,0.320394 -0.21704,0.1757 -0.40825,0.392741 -0.0982,0.113689 -0.0982,0.222209 0,0.382406 0.96118,0.465088 0.58395,0.05684 0.58395,0.635621 0,0.79065 -0.75965,1.819012 -1.7725,2.408123 -5.13147,3.917076 -3.22978,1.452109 -6.42339,1.452109 -1.73633,0 -3.20911,-0.418579 -1.46244,-0.408245 -2.28926,-1.126547 -0.71831,-0.625286 -0.71831,-1.064536 0,-0.180868 0.14987,-0.180868 0.0672,0 0.13436,0.03618 2.58898,1.25057 6.59391,1.25057 2.71301,0 5.27617,-0.971517 2.06189,-0.785483 3.76205,-2.077394 1.34875,-1.023195 1.9482,-1.91203 0.10852,-0.160197 0.10852,-0.258382 0,-0.170533 -0.52193,-0.248047 -0.62012,-0.09302 -0.82166,-0.310059 -0.1602,-0.165364 -0.1602,-0.45992 0,-0.547771 0.5271,-1.224733 0.58395,-0.754476 1.5968,-1.353923 0.39275,-0.227377 0.68213,-0.227377 0.35141,0 0.35141,0.304892 0,0.180867 -0.13953,0.418579 z"
         style="font-style:normal;font-variant:normal;font-weight:normal;font-stretch:normal;font-size:19.9759px;line-height:1.45;font-family:'Dima SHekasteh Free2';-inkscape-font-specification:'Dima SHekasteh Free2';text-align:end;text-anchor:end;fill:#2e1c59;fill-opacity:1;stroke:none;stroke-width:0.264583"
         id="path956" />
      <path
         style="font-style:normal;font-variant:normal;font-weight:normal;font-stretch:normal;font-size:19.9759px;line-height:1.25;font-family:'Dima Shekasteh Free';-inkscape-font-specification:'Dima Shekasteh Free';fill:#2e1c59;fill-opacity:1;stroke:none;stroke-width:0.264583"
         d="m 249.31042,42.81473 q 0.005,0.06201 0.005,0.124024 0,0.434082 -0.28938,0.72347 -0.25322,0.248047 -0.45475,0.201538 -0.50126,-0.113688 -1.03353,-0.3514 0.28422,-0.656291 0.77515,-1.379761 0.53743,0.155029 0.72863,0.273885 0.24288,0.144694 0.26872,0.408244 z"
         id="path1083" />
      <path
         style="font-style:normal;font-variant:normal;font-weight:normal;font-stretch:normal;font-size:19.9759px;line-height:1.25;font-family:'Dima Shekasteh Free';-inkscape-font-specification:'Dima Shekasteh Free';fill:#2e1c59;fill-opacity:1;stroke:none;stroke-width:0.264583"
         d="m 248.84533,45.636266 q -0.22221,1.364258 -0.57878,2.718182 -0.35656,1.353923 -1.89136,1.617473 -1.52962,0.26355 -0.62011,-0.28422 0.91467,-0.552939 1.33842,-0.914674 0.42891,-0.361735 0.64078,-0.63562 0.21188,-0.279054 0.37207,-0.754477 0.16537,-0.480591 0.3204,-1.002524 0.15503,-0.521932 0.22221,-0.707967 0.0723,-0.186035 0.1447,-0.180868 0.0827,0.0155 0.0517,0.144695 z"
         id="path1065" />
      <path
         style="font-style:normal;font-variant:normal;font-weight:normal;font-stretch:normal;font-size:19.9759px;line-height:1.25;font-family:'Dima Shekasteh Free';-inkscape-font-specification:'Dima Shekasteh Free';fill:#2e1c59;fill-opacity:1;stroke:none;stroke-width:0.264583"
         d="m 244.83086,51.281529 q 0.005,0.06201 0.005,0.124023 0,0.434083 -0.28939,0.723471 -0.25322,0.248047 -0.45476,0.201538 -0.50126,-0.113688 -1.03353,-0.3514 0.28422,-0.656291 0.77515,-1.379762 0.53744,0.15503 0.72864,0.273886 0.24288,0.144694 0.26872,0.408244 z"
         id="path1087" />
      <path
         id="path1067"
         style="font-style:normal;font-variant:normal;font-weight:normal;font-stretch:normal;font-size:19.9759px;line-height:1.25;font-family:'Dima Shekasteh Free';-inkscape-font-specification:'Dima Shekasteh Free';fill:#2e1c59;fill-opacity:1;stroke:none;stroke-width:0.264583"
         d="m 244.21785,42.730895 c -0.0155,-0.006 -0.0353,0.0097 -0.0594,0.04754 -0.0724,0.16881 -0.14297,0.339342 -0.21187,0.511596 -0.0655,0.172257 -0.12747,0.342789 -0.18603,0.511599 -0.0517,0.20326 -0.10508,0.470254 -0.1602,0.800983 -0.0551,0.330729 -0.10508,0.644234 -0.14986,0.940512 -0.0413,0.292833 -0.10508,0.780312 -0.19121,1.462442 -0.0827,0.68213 -0.12402,1.088652 -0.12402,1.219565 v 0.04651 c -0.0172,0.475421 0.0448,0.862996 0.18604,1.162719 0.15502,0.30317 0.37206,0.45992 0.65112,0.470254 0.27216,-0.01378 0.50298,-0.155027 0.69246,-0.423746 0.19293,-0.268718 0.34451,-0.611505 0.45476,-1.028361 0.1136,-0.420301 0.17216,-0.723469 0.1757,-0.909505 0.0103,-0.110241 -0.0121,-0.165365 -0.0672,-0.165365 -0.0482,0 -0.0982,0.07751 -0.14987,0.232545 -0.0517,0.151585 -0.11541,0.284221 -0.1912,0.397907 -0.0724,0.113692 -0.17914,0.186039 -0.32039,0.217043 -0.13781,0.031 -0.27734,0 -0.41858,-0.09302 -0.23082,-0.172254 -0.34623,-0.475421 -0.34623,-0.909505 V 46.9849 c 0,-0.120579 0.009,-0.322117 0.0258,-0.604616 0,-0.04479 0.012,-0.199816 0.0362,-0.465087 0.0276,-0.265274 0.0775,-0.704522 0.14986,-1.317749 0.0724,-0.616672 0.15159,-1.21095 0.23771,-1.782837 -0.007,-0.04996 -0.0181,-0.07769 -0.0336,-0.08372 z" />
      <path
         style="font-style:normal;font-variant:normal;font-weight:normal;font-stretch:normal;font-size:19.9759px;line-height:1.25;font-family:'Dima Shekasteh Free';-inkscape-font-specification:'Dima Shekasteh Free';fill:#2e1c59;fill-opacity:1;stroke:none;stroke-width:0.264583"
         d="m 242.05504,38.856312 q 0.0413,0.149862 -0.005,0.310059 -0.0413,0.160197 -0.1602,0.335898 -0.0724,0.118855 -0.15503,0.217041 -0.0775,0.09302 -0.16537,0.180867 -0.0259,0.03101 -0.0827,0.07751 -0.0568,0.04651 -0.11885,0.08785 -0.062,0.04134 -0.11886,0.06201 -0.0568,0.0155 -0.0827,-0.0155 -0.18604,-0.149861 -0.3669,-0.304891 -0.18087,-0.15503 -0.39791,-0.289388 -0.0362,-0.02584 -0.031,-0.04651 0,-0.02584 0.0259,-0.07235 l 0.82682,-1.260905 q 0.0362,-0.05168 0.0724,-0.04651 0.0362,0 0.0775,0.02584 0.10852,0.06201 0.21704,0.139526 0.10852,0.07752 0.20154,0.170533 0.093,0.08785 0.1602,0.19637 0.0723,0.103353 0.10335,0.232544 z"
         id="path1093" />
      <path
         id="path1071"
         style="font-style:normal;font-variant:normal;font-weight:normal;font-stretch:normal;font-size:19.9759px;line-height:1.25;font-family:'Dima Shekasteh Free';-inkscape-font-specification:'Dima Shekasteh Free';fill:#2e1c59;fill-opacity:1;stroke:none;stroke-width:0.264583"
         d="m 241.49709,41.775915 c -0.0723,0.144693 -0.17742,0.423746 -0.31523,0.837158 -0.031,0.08268 -0.0637,0.180866 -0.0982,0.294555 -0.0379,0.113689 -0.081,0.24288 -0.12919,0.387572 -0.0103,0.05168 0.0155,0.124024 0.0775,0.217043 0.0276,0.05168 0.0568,0.103352 0.0879,0.155028 0.031,0.05168 0.062,0.103354 0.093,0.15503 0.0654,0.134358 0.13436,0.292833 0.2067,0.475424 0.062,0.165365 0.093,0.280776 0.093,0.346231 0,0.196371 -0.10335,0.566719 -0.31006,1.111044 -0.0476,0.105386 -0.1528,0.366038 -0.31109,0.76998 -0.003,0.0038 -0.006,0.0063 -0.009,0.01035 -0.18259,0.375515 -0.27389,0.701077 -0.27389,0.976683 -0.003,0.230822 0.0431,0.404799 0.13953,0.521933 0.0999,0.113689 0.2291,0.199816 0.38757,0.258381 0.0655,0.02756 0.15159,0.05512 0.25838,0.08268 0.1068,0.02756 0.21016,0.05857 0.31006,0.09302 0.0999,0.03445 0.18432,0.07579 0.25322,0.124024 0.0724,0.04823 0.10688,0.106796 0.10335,0.175699 0,0.151585 -0.0672,0.337619 -0.20154,0.558104 -0.13091,0.220488 -0.31867,0.434083 -0.56327,0.640789 -0.24461,0.206706 -0.52538,0.380683 -0.84233,0.52193 -0.42374,0.192927 -0.86299,0.289388 -1.31774,0.289388 -0.54778,0 -0.9698,-0.120576 -1.26608,-0.361733 -0.29283,-0.241157 -0.45475,-0.566719 -0.48576,-0.976685 -0.0379,-0.389295 0.0551,-0.921562 0.27906,-1.596803 0.0999,-0.303167 0.22565,-0.620117 0.37723,-0.950846 0.15503,-0.334174 0.30834,-0.663178 0.45992,-0.987018 0.031,-0.07924 0.05,-0.134361 0.0568,-0.165364 0.0103,-0.03101 0.0103,-0.05168 0,-0.06201 h -0.005 c -0.031,-0.01378 -0.0672,0.01206 -0.10852,0.07752 -0.003,0.0069 -0.0207,0.03617 -0.0517,0.08785 -0.19292,0.337619 -0.38241,0.690743 -0.56844,1.059368 -0.18259,0.368625 -0.34623,0.745863 -0.49093,1.131713 -0.14469,0.38585 -0.26354,0.776869 -0.35656,1.173054 -0.093,0.396187 -0.14468,0.790649 -0.15503,1.183391 0,0.21704 0.0293,0.444418 0.0879,0.68213 0.0586,0.241155 0.16536,0.468532 0.32039,0.682128 0.34107,0.420304 0.8406,0.635622 1.49862,0.645956 0.57877,0 1.09037,-0.153307 1.53479,-0.45992 0.23082,-0.13436 0.44442,-0.301447 0.64079,-0.501263 0.19637,-0.199814 0.36173,-0.401352 0.49609,-0.604613 0.32039,-0.440973 0.57016,-0.959458 0.74931,-1.555461 0.18259,-0.599446 0.27388,-1.129991 0.27388,-1.591633 0,-0.306615 -0.0844,-0.516766 -0.25321,-0.630455 -0.0517,-0.04134 -0.18431,-0.09991 -0.39791,-0.175699 -0.21015,-0.07579 -0.35484,-0.139525 -0.43408,-0.191201 -0.072,-0.04909 -0.10392,-0.09819 -0.0982,-0.14728 0.002,-0.0029 0.004,-0.0048 0.005,-0.0078 0.11024,-0.292833 0.22393,-0.587388 0.34107,-0.883668 0.11713,-0.299723 0.23599,-0.596001 0.35657,-0.888834 0.19981,-0.547772 0.29972,-1.002522 0.29972,-1.364257 0,-0.351401 -0.0775,-0.69591 -0.23255,-1.033529 -0.16536,-0.334174 -0.33589,-0.530545 -0.51159,-0.589111 z" />
    </g>
    <g
       id="g1277"
       transform="translate(0.59789241)">
      <path
         id="path968"
         style="font-style:normal;font-variant:normal;font-weight:normal;font-stretch:normal;font-size:19.9759px;line-height:1.45;font-family:'Dima SHekasteh Free2';-inkscape-font-specification:'Dima SHekasteh Free2';text-align:end;text-anchor:end;fill:#2e1c59;fill-opacity:1;stroke:none;stroke-width:0.264583"
         d="m 262.92844,62.822776 c -0.0414,0 -0.093,0.0534 -0.15503,0.160197 -0.11714,0.213601 -0.18604,0.330734 -0.20671,0.351401 -0.0517,-0.06891 -0.11369,-0.129196 -0.18603,-0.180869 -0.12403,-0.07235 -0.23082,-0.108519 -0.3204,-0.108519 -0.1378,0 -0.27388,0.06718 -0.40824,0.201536 -0.093,0.09302 -0.16877,0.194648 -0.22737,0.304892 -0.0551,0.106799 -0.13264,0.273886 -0.23255,0.501261 -0.0414,0.130914 -0.10335,0.280776 -0.18603,0.449586 -0.0758,0.15503 -0.14471,0.261826 -0.20671,0.320394 -0.0115,0.01281 -0.0577,0.04882 -0.0806,0.06925 -0.0337,-0.06044 -0.0744,-0.117171 -0.12609,-0.167434 -0.11024,-0.110238 -0.23599,-0.155024 -0.37724,-0.134358 -0.14124,0.02067 -0.28249,0.08096 -0.42374,0.180867 -0.1378,0.09646 -0.267,0.22221 -0.38757,0.377237 -0.12058,0.151586 -0.21532,0.304893 -0.28422,0.459923 -0.069,0.151582 -0.10519,0.292833 -0.10853,0.423746 -0.003,0.130916 0.0431,0.22221 0.13953,0.273884 0.0655,0.03443 0.13436,0.05338 0.20671,0.05684 0.0723,0.0034 0.14469,0.0017 0.21704,-0.0052 0.0758,-0.0069 0.14986,-0.01204 0.22221,-0.0155 0.0758,-0.0069 0.14814,-0.0034 0.21704,0.01034 -0.0207,0.124023 -0.0896,0.260104 -0.20671,0.408244 -0.11713,0.148137 -0.26528,0.298 -0.44441,0.449582 -0.17915,0.151585 -0.38069,0.299723 -0.60462,0.444418 -0.22393,0.144693 -0.45304,0.275609 -0.68729,0.392743 -0.23428,0.113688 -0.4651,0.210153 -0.69247,0.289388 -0.22737,0.07925 -0.43236,0.129201 -0.61495,0.14986 0.15159,0.02412 0.3204,0.03273 0.50643,0.02584 0.18603,-0.01031 0.36345,-0.02755 0.53227,-0.05168 0.17225,-0.02411 0.32384,-0.04822 0.45475,-0.07235 0.13095,-0.02755 0.22052,-0.0465 0.26872,-0.05684 0.0827,-0.0206 0.1464,-0.03264 0.1912,-0.03617 0.0448,-0.0034 0.081,-0.0068 0.10852,-0.01034 0.031,-0.0034 0.0568,-0.0068 0.0775,-0.01033 0.0241,-0.0069 0.0568,-0.02412 0.0982,-0.05168 0.0413,-0.02756 0.0965,-0.06718 0.16536,-0.118856 0.0724,-0.05168 0.16882,-0.124026 0.28939,-0.217041 0.11025,-0.08268 0.23255,-0.201538 0.36691,-0.356568 0.13436,-0.15503 0.26354,-0.329007 0.38757,-0.52193 0.12747,-0.196371 0.24115,-0.403077 0.34106,-0.62012 0.10334,-0.217041 0.17741,-0.428914 0.22221,-0.635619 5.8e-4,-0.0025 4.6e-4,-0.0047 10e-4,-0.0072 0.0861,-0.121396 0.17286,-0.246941 0.26251,-0.390673 0.007,-0.0034 0.15158,-0.287666 0.43408,-0.852662 0.11024,-0.210151 0.24289,-0.315228 0.39791,-0.315228 0.062,0 0.16192,0.02584 0.29973,0.07752 0.13435,0.05512 0.23599,0.08268 0.30489,0.08268 0.21704,0 0.40824,-0.105074 0.5736,-0.315225 0.15504,-0.206708 0.23255,-0.444418 0.23255,-0.713137 0,-0.09302 -0.0448,-0.196368 -0.13436,-0.310057 -0.0861,-0.124023 -0.15844,-0.186036 -0.21704,-0.186036 z m -0.0258,3.917074 c -0.20325,0.04823 -0.44269,0.382405 -0.7183,1.002522 -0.27561,0.623565 -0.41341,1.116214 -0.41341,1.477947 0,0.155032 0.0292,0.29628 0.0879,0.423746 0.0586,0.127468 0.15502,0.191203 0.28938,0.191203 0.13092,0 0.23944,-0.06546 0.32557,-0.196371 0.093,-0.127471 0.13952,-0.266993 0.13952,-0.418578 -0.0103,-0.217041 -0.17569,-0.413409 -0.49609,-0.589111 0.0896,-0.582221 0.3514,-1.212675 0.78548,-1.891358 z" />
      <path
         id="path1139"
         style="font-style:normal;font-variant:normal;font-weight:normal;font-stretch:normal;font-size:19.9759px;line-height:1.45;font-family:'Dima SHekasteh Free2';-inkscape-font-specification:'Dima SHekasteh Free2';text-align:end;text-anchor:end;fill:#2e1c59;fill-opacity:1;stroke:none;stroke-width:0.264583"
         d="m 254.65355,55.144352 c -0.1757,0.227375 -0.33417,0.447863 -0.47542,0.661459 -0.13781,0.21015 -0.26183,0.418578 -0.37207,0.625284 0.3514,0.117133 0.62873,0.273886 0.83199,0.470255 0.0448,0.0379 0.0758,0.05685 0.093,0.05685 0.0276,0 0.10163,-0.04478 0.22221,-0.134357 0.35484,-0.279054 0.53226,-0.585669 0.53226,-0.919843 0,-0.182589 -0.0586,-0.325562 -0.1757,-0.428913 -0.11713,-0.1068 -0.33589,-0.217041 -0.65629,-0.33073 z m -0.90433,1.891358 c -0.1757,0.227375 -0.33418,0.44786 -0.47542,0.661459 -0.13781,0.21015 -0.26183,0.418578 -0.37208,0.625284 0.3514,0.117134 0.62873,0.273884 0.83199,0.470254 0.0448,0.0379 0.0758,0.05685 0.093,0.05684 0.0275,0 0.10163,-0.04478 0.22221,-0.134358 0.15543,-0.122232 0.2749,-0.250114 0.36225,-0.382921 0.33838,0.116083 0.60772,0.269227 0.80564,0.460435 0.0448,0.0379 0.0758,0.05685 0.093,0.05684 0.0275,0 0.10163,-0.04478 0.22221,-0.134358 0.35485,-0.279054 0.53227,-0.585666 0.53227,-0.91984 0,-0.182589 -0.0586,-0.325562 -0.1757,-0.428914 -0.11714,-0.106798 -0.3359,-0.217042 -0.65629,-0.330729 -0.1757,0.227375 -0.33417,0.44786 -0.47542,0.661459 -0.0728,0.110987 -0.1411,0.221218 -0.20619,0.331245 0.02,-0.07617 0.0305,-0.153787 0.0305,-0.233061 0,-0.182589 -0.0586,-0.325562 -0.1757,-0.428914 -0.11714,-0.106798 -0.3359,-0.217042 -0.65629,-0.330729 z" />
      <path
         style="font-style:normal;font-variant:normal;font-weight:normal;font-stretch:normal;font-size:19.9759px;line-height:1.45;font-family:'Dima SHekasteh Free2';-inkscape-font-specification:'Dima SHekasteh Free2';text-align:end;text-anchor:end;fill:#2e1c59;fill-opacity:1;stroke:none;stroke-width:0.264583"
         d="m 263.18797,57.191932 q -0.35657,0.826823 -0.85783,1.064535 -0.20154,0.09302 -2.07223,1.746665 -1.87069,1.653647 -3.7052,2.542482 -2.69234,1.302247 -5.7981,1.302247 -0.69763,0 -1.2609,-0.103353 -0.36174,-0.06201 -0.70281,-0.186035 -0.28421,-0.103353 -0.32556,-0.103353 -0.0672,0 -0.10852,0.08785 -1.85001,4.185794 -4.12378,6.196009 -1.71566,1.503784 -3.24528,1.503784 -0.42375,0 -0.7183,-0.129188 -0.22738,-0.103355 -0.22738,-0.382409 0,-0.242878 0.16536,-0.485757 0.16537,-0.237713 0.38758,-0.258381 3.514,-0.382408 6.06681,-4.06694 0.32556,-0.46509 0.64596,-1.049031 0.32039,-0.583946 0.64596,-1.297081 0.53226,-1.152385 0.78031,-1.359091 0.14986,-0.129191 0.28422,-0.129191 -0.0413,0 0.59428,0.10852 0.64079,0.108521 1.5658,0.108521 3.27629,0 5.9893,-1.2299 1.81385,-0.811321 3.73104,-2.413292 1.86552,-1.555461 2.22726,-1.700155 0.10852,-0.04134 0.12402,-0.04134 0.0258,0 0.0258,0.02584 0,0.031 -0.0878,0.248047 z"
         id="path972" />
      <g
         id="g1018"
         transform="matrix(0.52980545,0,0,0.52980545,67.131991,13.111114)"
         style="fill:#2e1c59;fill-opacity:1">
        <path
           style="font-style:normal;font-variant:normal;font-weight:normal;font-stretch:normal;font-size:19.9759px;line-height:1.45;font-family:'Dima SHekasteh Free2';-inkscape-font-specification:'Dima SHekasteh Free2';text-align:end;text-anchor:end;fill:#2e1c59;fill-opacity:1;stroke:none;stroke-width:0.499397"
           d="m 321.00647,108.42147 q -0.01,-0.01 -0.01,-0.039 -0.01,-0.0195 -0.01,-0.0293 0,-0.01 -0.01,-0.0195 l -0.0293,-0.0878 q -0.0195,-0.0585 -0.039,-0.0878 -0.039,-0.0975 -0.10729,-0.19507 l -0.0878,-0.11705 -0.11705,-0.13655 q -0.078,-0.078 -0.15606,-0.14631 -0.078,-0.0683 -0.16582,-0.13656 l -0.039,-0.0293 q -0.0585,-0.0488 -0.11705,-0.0878 -0.0585,-0.0293 -0.11705,-0.0683 -0.039,-0.0293 -0.078,-0.0488 -0.0195,-0.0195 -0.039,-0.0293 -0.0195,-0.01 -0.039,-0.0195 -0.0195,-0.0195 -0.039,-0.0293 -0.0195,0 -0.039,-0.0195 l -0.0683,-0.0293 q -0.01,-0.01 -0.0195,-0.01 -0.0195,-0.01 -0.0195,-0.01 -0.078,-0.0195 -0.14631,0.0683 -0.01,0.01 -0.01,0.0195 l -1.49234,2.27265 q -0.0488,0.078 -0.0488,0.11704 0,0.039 0.0488,0.0878 0,0.01 0.01,0.01 0.19508,0.1268 0.39991,0.28286 0.0683,0.0488 0.13655,0.1073 0.22434,0.16581 0.42917,0.34138 0.19508,0.17557 0.40967,0.34139 0.0585,0.0585 0.13655,0.0585 h 0.0683 l 0.0585,-0.0195 q 0.078,-0.0293 0.18532,-0.11704 l 0.0488,-0.039 0.0975,-0.0975 q 0.0488,-0.0293 0.078,-0.078 l 0.0585,-0.0585 q 0.0293,-0.0195 0.0585,-0.0488 0.0195,-0.0293 0.039,-0.0488 0,-0.01 0.0195,-0.0293 l 0.15606,-0.19508 q 0.0293,-0.0293 0.0683,-0.0878 0.0195,-0.0195 0.039,-0.0488 0.01,-0.0293 0.0293,-0.0488 l 0.0488,-0.0683 0.11704,-0.17557 q 0,-0.01 0.0195,-0.0293 0.0195,-0.039 0.0488,-0.078 0.0293,-0.0293 0.0488,-0.078 l 0.0488,-0.0878 q 0,-0.01 0.01,-0.0195 0,0 0,-0.01 0.0195,-0.039 0.039,-0.078 0.01,-0.039 0.0293,-0.078 l 0.039,-0.11705 q 0,-0.0195 0.01,-0.0293 0,-0.01 0,-0.0293 l 0.0293,-0.11705 q 0,-0.0195 0.01,-0.0488 0,-0.0195 0,-0.039 v -0.13655 q 0,-0.0195 0,-0.0488 -0.01,-0.0195 -0.01,-0.039 -0.01,-0.0195 -0.01,-0.0488 -0.01,-0.0195 -0.01,-0.0585 z"
           id="path1010" />
        <path
           style="font-style:normal;font-variant:normal;font-weight:normal;font-stretch:normal;font-size:19.9759px;line-height:1.45;font-family:'Dima SHekasteh Free2';-inkscape-font-specification:'Dima SHekasteh Free2';text-align:end;text-anchor:end;fill:#2e1c59;fill-opacity:1;stroke:none;stroke-width:0.499397"
           d="m 323.99115,108.23615 q -0.0488,-0.2341 -0.17557,-0.42917 -0.1268,-0.18533 -0.29261,-0.35114 -0.16582,-0.16582 -0.37065,-0.30237 -0.19508,-0.1268 -0.39015,-0.24385 -0.078,-0.0488 -0.14631,-0.0585 -0.0585,0 -0.1268,0.0878 l -1.48259,2.2824 q -0.0488,0.078 -0.0488,0.1073 0,0.039 0.0488,0.10729 0.39016,0.24385 0.71203,0.51695 0.33164,0.28287 0.67302,0.55597 0.039,0.0293 0.0878,0.0488 0.0488,0.0195 0.11705,0 0.0683,-0.01 0.16582,-0.0683 0.0975,-0.0585 0.22434,-0.19508 0.20483,-0.19508 0.37064,-0.41942 0.17557,-0.21458 0.34139,-0.46818 0.20483,-0.31213 0.28286,-0.60474 0.0878,-0.29262 0.01,-0.56572 z"
           id="path1008" />
      </g>
      <path
         d="m 246.75854,59.134238 q 0.0517,0.403076 0.0517,0.857829 0,0.775148 -0.20671,2.309936 -0.10852,0.785484 -0.42375,1.757006 -0.31006,0.94051 -0.63562,1.51412 l -0.12919,0.227377 q -0.55294,0.65112 -1.22989,1.080034 -0.83717,0.527104 -1.61748,0.527104 -0.93018,0 -1.56063,-0.987022 0.40308,0.403076 1.28674,0.403076 1.51929,0 2.83188,-1.446941 -0.70797,-0.718305 -0.70797,-2.00505 0,-1.07487 0.47542,-2.273761 0.44959,-1.131717 1.12655,-1.906865 0.30489,-0.346233 0.51676,-0.346233 0.18604,0 0.22221,0.28939 z m -0.55294,1.260905 q 0,-0.785484 -0.093,-0.785484 -0.0672,0 -0.22737,0.170534 -0.50643,0.527103 -0.85266,1.529622 -0.36174,1.0387 -0.36174,2.04639 0,1.224736 0.54778,1.932699 0.41857,-0.552937 0.58394,-0.961178 0.21704,-0.542607 0.29455,-1.467615 0.10852,-1.281578 0.10852,-2.464968 z m 0.96119,-5.389854 q 0.26355,0.02585 0.50643,0.01552 0.24804,-0.01552 0.50126,-0.09302 0.25321,-0.07752 0.51676,-0.227377 0.26355,-0.155032 0.56328,-0.413412 0.062,-0.05166 0.12919,-0.124023 0.0723,-0.07235 0.13436,-0.139529 0.0672,-0.06718 0.11885,-0.10852 0.0517,-0.04652 0.0724,-0.04652 0.0465,-0.0053 0.0568,0.07752 0.0103,0.07752 -0.0516,0.196372 -0.12403,0.248044 -0.3514,0.583941 -0.22221,0.330731 -0.49093,0.599448 -0.49609,0.50126 -0.94051,0.744144 -0.44442,0.237708 -1.06453,0.263546 -0.27389,0 -0.48576,-0.01033 -0.21188,-0.01552 -0.57361,0.0053 -0.35657,0.01552 -0.66663,0.149861 -0.30489,0.134359 -0.53743,0.294556 -0.0362,0.01033 -0.0724,0.01033 -0.031,-0.0053 -0.0413,-0.02585 -0.0155,-0.02066 0.0568,-0.165363 0.093,-0.206709 0.3359,-0.496094 0.24804,-0.294556 0.64078,-0.589112 0.39791,-0.299727 0.75448,-0.408247 0.36174,-0.113686 0.88883,-0.09302 z"
         style="font-style:normal;font-variant:normal;font-weight:normal;font-stretch:normal;font-size:19.9759px;line-height:1.25;font-family:'Dima Shekasteh Free';-inkscape-font-specification:'Dima Shekasteh Free';fill:#2e1c59;fill-opacity:1;stroke:none;stroke-width:0.264583"
         id="path1103" />
      <path
         style="font-style:normal;font-variant:normal;font-weight:normal;font-stretch:normal;font-size:19.9759px;line-height:1.25;font-family:'Dima Shekasteh Free';-inkscape-font-specification:'Dima Shekasteh Free';fill:#2e1c59;fill-opacity:1;stroke:none;stroke-width:0.264583"
         d="m 243.11239,56.351702 q 0.0413,0.149861 -0.005,0.310058 -0.0413,0.160197 -0.1602,0.335897 -0.0724,0.118856 -0.15503,0.217045 -0.0775,0.09302 -0.16536,0.180865 -0.0259,0.03099 -0.0827,0.07752 -0.0568,0.04652 -0.11886,0.08785 -0.062,0.04133 -0.11886,0.06201 -0.0568,0.01552 -0.0827,-0.01552 -0.18604,-0.14986 -0.36691,-0.304892 -0.18086,-0.155027 -0.3979,-0.289385 -0.0362,-0.02585 -0.0362,-0.04652 0.005,-0.02585 0.031,-0.07235 l 0.82682,-1.260906 q 0.0362,-0.05166 0.0724,-0.04652 0.0362,0 0.0775,0.02585 0.10852,0.06201 0.21704,0.13953 0.10852,0.07751 0.20154,0.170528 0.093,0.08785 0.1602,0.196373 0.0724,0.103354 0.10335,0.232542 z"
         id="path1131" />
      <path
         style="font-style:normal;font-variant:normal;font-weight:normal;font-stretch:normal;font-size:19.9759px;line-height:1.25;font-family:'Dima Shekasteh Free';-inkscape-font-specification:'Dima Shekasteh Free';fill:#2e1c59;fill-opacity:1;stroke:none;stroke-width:0.264583"
         d="m 242.46815,63.956143 q 0.48576,-0.196368 0.48576,-0.413413 -0.0155,-0.08785 -0.12402,-0.258381 -0.11886,-0.170534 -0.21188,-0.170534 -0.0724,0.03619 -0.18087,0.06201 -0.10335,0.02585 -0.22737,0.02585 -0.18603,0 -0.3359,-0.134359 -0.14469,-0.124022 -0.16536,-0.346233 -0.0155,-0.07752 0.093,-0.361735 0.10852,-0.289385 0.40307,-0.775148 0.29972,-0.490923 0.45992,-0.490923 0.43409,0 0.72864,0.387574 0.30489,0.387574 0.30489,1.038694 0,0.501265 -0.18087,0.97152 -0.1757,0.470255 -0.39791,0.816487 -0.2222,0.341063 -0.47542,0.527099 -0.1912,0.144695 -0.62528,0.304892 -0.42892,0.160197 -0.5271,0.196367 -0.42375,0.217046 -0.92501,0.769982 -0.49609,0.547771 -0.8785,1.012856 -0.85266,0.935345 -1.41594,1.291915 -0.56327,0.361735 -0.78548,0.47542 -0.22738,0.113691 -0.42891,0.227377 -0.17054,0.09302 -0.25322,0.04652 -0.0413,-0.04133 0.0362,-0.09818 0.0465,-0.03099 0.66145,-0.485757 0.63562,-0.501265 0.75965,-0.635623 0.35656,-0.330726 0.50642,-0.516762 0.1602,-0.13953 0.43409,-0.480592 0.1912,-0.232542 0.65629,-0.847493 0.47026,-0.61495 0.73897,-0.914677 0.26872,-0.304887 0.57878,-0.552937 0.31523,-0.248044 0.59945,-0.387574 0.28939,-0.139524 0.69246,-0.284218 z"
         id="path1105" />
      <path
         style="font-style:normal;font-variant:normal;font-weight:normal;font-stretch:normal;font-size:19.9759px;line-height:1.25;font-family:'Dima Shekasteh Free';-inkscape-font-specification:'Dima Shekasteh Free';fill:#2e1c59;fill-opacity:1;stroke:none;stroke-width:0.264583"
         d="m 245.44174,57.526462 c -0.0724,0 -0.16536,0.148138 -0.27905,0.444418 -0.0482,0.124024 -0.13092,0.222208 -0.24805,0.294555 -0.11368,0.0689 -0.26011,0.09819 -0.43925,0.08785 -0.1071,-0.0063 -0.14126,-0.01283 -0.19844,-0.01913 L 244.155,58.187911 c -1.10244,0.31695 -2.64067,1.080037 -4.61471,2.289265 -2.1773,1.333254 -3.71209,2.539034 -4.60437,3.617351 -0.73036,0.885389 -1.29535,1.81212 -1.69499,2.780191 -0.36862,0.902619 -0.55293,1.734604 -0.55293,2.495972 0,0.830268 0.20843,1.434882 0.62528,1.813842 0.0689,0.06201 0.11715,0.09302 0.14469,0.09302 0.0586,0 0.13264,-0.124028 0.22222,-0.372072 0.16536,-0.458197 0.24804,-0.7183 0.24804,-0.780308 0,-0.05171 -0.0224,-0.09476 -0.0672,-0.129193 -0.3135,-0.23427 -0.52538,-0.456475 -0.63562,-0.666628 -0.0999,-0.192929 -0.14986,-0.456475 -0.14986,-0.79065 0,-1.236794 0.76998,-2.580375 2.30994,-4.03076 1.15066,-1.081762 2.65617,-2.163519 4.51652,-3.245281 1.2988,-0.751031 2.3306,-1.278131 3.09542,-1.581298 0.24115,-0.09646 0.42202,-0.144696 0.5426,-0.144696 0.32327,-0.08755 0.76829,-0.124002 1.03352,-0.294555 0.26183,-0.144693 0.45648,-0.318669 0.58395,-0.52193 0.12747,-0.203261 0.21704,-0.39102 0.26872,-0.563275 0.0551,-0.175699 0.0861,-0.339341 0.093,-0.490926 0,-0.08613 -0.0259,-0.132636 -0.0775,-0.139525 z"
         id="path1120" />
      <path
         style="font-style:normal;font-variant:normal;font-weight:normal;font-stretch:normal;font-size:19.9759px;line-height:1.25;font-family:'Dima Shekasteh Free';-inkscape-font-specification:'Dima Shekasteh Free';fill:#2e1c59;fill-opacity:1;stroke:none;stroke-width:0.264583"
         d="m 236.8314,58.367595 c -0.0103,0 -0.0207,0.0069 -0.031,0.02066 -0.0103,0.01379 -0.0241,0.03445 -0.0413,0.06201 -0.1068,0.172254 -0.22393,0.363456 -0.3514,0.573609 -0.12402,0.210151 -0.24115,0.413409 -0.3514,0.60978 l -0.031,0.06201 c -0.0103,0.0241 -10e-6,0.04995 0.031,0.07751 l 0.42892,0.346231 c 0.0896,0.07235 0.16536,0.137803 0.22737,0.196371 0.062,0.05857 0.10852,0.106797 0.13953,0.144693 0.0172,0.031 0.0517,0.04651 0.10335,0.04651 0.007,0 0.0172,-0.0016 0.031,-0.0051 0.0138,-0.0034 0.0293,-0.01378 0.0465,-0.031 0.0517,-0.04134 0.0982,-0.08096 0.13953,-0.118856 0.0448,-0.0379 0.0861,-0.07924 0.12403,-0.124024 0.0413,-0.04478 0.0827,-0.09474 0.12402,-0.149862 0.0413,-0.05512 0.0861,-0.120579 0.13436,-0.196371 0.0758,-0.124024 0.12748,-0.235987 0.15503,-0.335897 0.031,-0.103351 0.0379,-0.201538 0.0207,-0.294555 -0.0379,-0.158475 -0.14297,-0.313505 -0.31523,-0.465087 -0.0896,-0.07924 -0.17742,-0.148141 -0.26355,-0.206706 -0.0827,-0.06201 -0.15675,-0.117134 -0.22221,-0.165365 -0.0275,-0.01378 -0.0482,-0.02585 -0.062,-0.03618 -0.0138,-0.01035 -0.0258,-0.01381 -0.0362,-0.01035 z"
         id="path1107" />
    </g>
  </g>
</svg>
