<?xml version="1.0" encoding="UTF-8" standalone="no"?>
<svg
   xmlns:dc="http://purl.org/dc/elements/1.1/"
   xmlns:cc="http://creativecommons.org/ns#"
   xmlns:rdf="http://www.w3.org/1999/02/22-rdf-syntax-ns#"
   xmlns:svg="http://www.w3.org/2000/svg"
   xmlns="http://www.w3.org/2000/svg"
   xmlns:xlink="http://www.w3.org/1999/xlink"
   xmlns:sodipodi="http://sodipodi.sourceforge.net/DTD/sodipodi-0.dtd"
   xmlns:inkscape="http://www.inkscape.org/namespaces/inkscape"
   width="32.008926mm"
   height="62.465298mm"
   viewBox="0 0 32.008926 62.465298"
   version="1.1"
   id="svg8"
   inkscape:version="1.0.1 (3bc2e813f5, 2020-09-07)"
   sodipodi:docname="houshafarin-white.svg"
   inkscape:export-filename="./Houshafarin.png"
   inkscape:export-xdpi="173.42"
   inkscape:export-ydpi="173.42">
  <defs
     id="defs2">
    <linearGradient
       id="linearGradient925">
      <stop
         style="stop-color:#ffffff;stop-opacity:1;"
         offset="0"
         id="stop921" />
      <stop
         style="stop-color:#ffffff;stop-opacity:0;"
         offset="1"
         id="stop923" />
    </linearGradient>
    <radialGradient
       xlink:href="#linearGradient925"
       id="radialGradient942"
       gradientUnits="userSpaceOnUse"
       gradientTransform="matrix(1.0125361e-6,-0.0745696,0.07868958,0,264.21281,32.714976)"
       cx="169.77869"
       cy="10.216177"
       fx="169.77869"
       fy="10.216177"
       r="69.531975" />
    <style
       id="style6"
       type="text/css">
    .fil0 {fill:#004234}
    .fil1 {fill:#34A853}
   </style>
  </defs>
  <sodipodi:namedview
     id="base"
     pagecolor="#ffffff"
     bordercolor="#666666"
     borderopacity="1.0"
     inkscape:pageopacity="0.0"
     inkscape:pageshadow="2"
     inkscape:zoom="4"
     inkscape:cx="47.923641"
     inkscape:cy="92.495338"
     inkscape:document-units="mm"
     inkscape:current-layer="layer1"
     inkscape:document-rotation="0"
     showgrid="false"
     inkscape:window-width="1920"
     inkscape:window-height="1135"
     inkscape:window-x="0"
     inkscape:window-y="0"
     inkscape:window-maximized="1"
     showguides="true"
     inkscape:guide-bbox="true"
     inkscape:snap-nodes="false"
     inkscape:snap-others="false"
     fit-margin-top="0"
     fit-margin-left="0"
     fit-margin-right="0"
     fit-margin-bottom="0">
    <sodipodi:guide
       position="-334.14756,-305.20825"
       orientation="1,0"
       id="guide724" />
    <sodipodi:guide
       position="-490.60392,-347.80247"
       orientation="1,0"
       id="guide750" />
    <sodipodi:guide
       position="-314.93918,-456.46149"
       orientation="0,-1"
       id="guide836" />
    <sodipodi:guide
       position="10.340193,53.172877"
       orientation="1,0"
       id="guide967" />
    <sodipodi:guide
       position="15.485133,47.560217"
       orientation="1,0"
       id="guide969" />
    <sodipodi:guide
       position="25.245853,47.554877"
       orientation="0,-1"
       id="guide971" />
    <sodipodi:guide
       position="25.245853,51.999297"
       orientation="1,0"
       id="guide975" />
    <sodipodi:guide
       position="28.885713,36.532477"
       orientation="1,0"
       id="guide997" />
    <sodipodi:guide
       position="14.069043,37.690027"
       orientation="1,0"
       id="guide999" />
    <sodipodi:guide
       position="20.286753,37.921537"
       orientation="0,-1"
       id="guide1009" />
    <sodipodi:guide
       position="73.047402,8.2918596"
       orientation="1,0"
       id="guide1030" />
    <sodipodi:guide
       position="27.20834,3.0001928"
       orientation="1,0"
       id="guide1032" />
    <sodipodi:guide
       position="43.280579,20.557435"
       orientation="1,0"
       id="guide1156" />
    <sodipodi:guide
       position="30.581203,11.900738"
       orientation="1,0"
       id="guide1264" />
  </sodipodi:namedview>
  <metadata
     id="metadata5">
    <rdf:RDF>
      <cc:Work
         rdf:about="">
        <dc:format>image/svg+xml</dc:format>
        <dc:type
           rdf:resource="http://purl.org/dc/dcmitype/StillImage" />
        <dc:title></dc:title>
      </cc:Work>
    </rdf:RDF>
  </metadata>
  <g
     inkscape:label="Layer 1"
     inkscape:groupmode="layer"
     id="layer1"
     transform="translate(-232.688,-9.3229103)">
    <ellipse
       style="fill:#ffffff;fill-opacity:1;stroke-width:0.580263;stop-color:#000000"
       id="path1638"
       cx="248.56874"
       cy="24.020597"
       rx="14.335889"
       ry="14.2449" />
    <g
       id="g1196"
       transform="translate(0.07914924)">
      <circle
         style="fill:none;fill-opacity:1;stroke:#aa0236;stroke-width:0.5;stroke-miterlimit:4;stroke-dasharray:none;stroke-opacity:1;stop-color:#000000"
         id="path973"
         cx="248.61331"
         cy="23.969053"
         r="14.396143" />
      <g
         id="g965"
         transform="matrix(1.1142983,0,0,1.1142983,-52.992598,1.3610029)">
        <path
           id="path934"
           style="fill:#000000;fill-opacity:1;stroke:none;stroke-width:0.0448671px;stroke-linecap:butt;stroke-linejoin:miter;stroke-opacity:1"
           d="m 264.34219,14.36902 -5.64153,8.316382 3.359,1.461866 z m 0.10928,0.02559 -2.27973,9.764488 7.69516,-1.476762 -0.99321,-1.474132 -0.94554,6.46e-4 c -0.0211,-0.03105 -0.0261,-0.03839 -0.0459,-0.06748 l 4.5e-4,2.16e-4 0.94537,-0.0023 -0.45744,-0.241948 -0.65355,0.0011 c -0.0446,-0.06539 -0.16755,-0.246332 -0.16755,-0.246332 l 0.16615,0.246332 -0.25194,4.31e-4 0.41397,0.23976 0.67625,1.002503 0.0662,0.0985 -5.61182,1.044479 1.56282,-7.128191 0.52649,0.609563 0.81207,-0.01586 z m 0.13407,1.832808 -0.0592,0.258424 0.53061,0.277966 z m -1.39377,0.814794 -1.45582,6.125865 -2.04751,-0.895066 z m -0.10104,0.311004 -3.27058,4.878434 1.88092,0.822594 0.0864,-0.336241 -1.60944,-0.625075 2.81095,-4.311193 z m 4.34002,3.604713 0.63971,0.937743 -4.87151,0.900849 -0.0925,0.391974 5.39765,-0.995316 -0.6405,-0.984624 z" />
        <circle
           style="fill:url(#radialGradient942);fill-opacity:1;stroke:none;stroke-width:0.00056773;stroke-linejoin:round;stroke-miterlimit:4;stroke-dasharray:none;stroke-opacity:1;paint-order:markers fill stroke"
           id="circle936"
           cx="265.08267"
           cy="19.765787"
           r="6.7300811" />
        <path
           style="fill:#aa0236;fill-opacity:1;stroke-width:3.50165;stroke-linejoin:round;paint-order:markers fill stroke"
           d="m 265.65668,17.250909 v 3.275307 h 3.2753 v -3.275307 z"
           id="path1129" />
      </g>
      <g
         transform="matrix(0.08670039,0,0,0.08613292,183.76227,-23.853873)"
         id="g4457"
         inkscape:label="Layer 1">
        <g
           id="g4459">
          <g
             id="g4461"
             transform="translate(-6.0683965,-190.54765)">
            <path
               id="path4463"
               d="m 749.36212,632.73868 v 58.04883 58.05078 h 25.80078 25.79883 V 690.78751 632.73868 H 775.1629 Z m 9.5633,9.56445 h 32.47186 v 96.97852 h -32.47186 c 0,-32.32617 0,-64.65235 0,-96.97852 z"
               style="fill:#2e1c59;fill-opacity:1"
               inkscape:connector-curvature="0"
               sodipodi:nodetypes="cccccccccccccc" />
            <path
               sodipodi:nodetypes="cccccccccccccc"
               id="path4465"
               d="m 809.6629,697.23868 v 25.79883 25.80078 h 25.94922 25.94922 v -25.80078 -25.79883 h -25.94922 z m 9.55277,9.57422 h 32.7929 v 32.46875 h -32.7929 z"
               style="fill:#2e1c59;fill-opacity:1"
               inkscape:connector-curvature="0" />
            <path
               sodipodi:nodetypes="cccccccccccccc"
               id="path4467"
               d="m 689.36212,632.73868 v 25.95117 25.94922 h 25.94922 25.95117 v -25.94922 -25.95117 h -25.95117 z m 9.56641,9.56836 h 32.76953 v 32.76562 h -32.76953 z"
               style="fill:#2e1c59;fill-opacity:1"
               inkscape:connector-curvature="0" />
            <path
               sodipodi:nodetypes="cccccccccccccc"
               id="path4469"
               d="m 809.6629,632.73868 v 25.95117 25.94922 h 25.94922 25.94922 v -25.94922 -25.95117 h -25.94922 z m 9.55277,9.56836 h 32.78118 v 32.76953 h -32.78118 z"
               style="fill:#2e1c59;fill-opacity:1"
               inkscape:connector-curvature="0" />
          </g>
        </g>
      </g>
      <path
         id="path1021-3"
         style="fill:#54c4c5;fill-opacity:1;stroke-width:0.0393263"
         d="m 251.24575,24.956173 c -1.45616,0 -1.71388,0.01397 -1.86131,0.05685 -0.55025,0.159955 -0.95468,0.553932 -1.14325,1.113661 -0.0782,0.232104 -0.0801,0.320811 -0.0801,3.69561 0,3.332768 0.003,3.466939 0.0777,3.709441 0.18229,0.590177 0.65457,1.02463 1.25937,1.158512 0.16237,0.03594 1.06946,0.04603 3.63768,0.04025 3.84055,-0.0087 3.59454,0.0098 4.06662,-0.305392 0.2703,-0.180509 0.50522,-0.479701 0.64181,-0.817408 l 0.0895,-0.220982 0.0117,-3.382075 c 0.007,-2.352851 -9.4e-4,-3.459195 -0.032,-3.635551 -0.0957,-0.554775 -0.42865,-1.00013 -0.93494,-1.250377 l -0.29908,-0.14786 -3.53778,-0.01088 c -0.792,-0.0025 -1.41049,-0.004 -1.89588,-0.004 z m 0.79052,0.984854 c 0.52503,0.0022 1.11384,0.03484 1.50616,0.09095 2.53512,0.362537 3.83887,1.68526 3.96453,4.022288 0.0425,0.791746 -0.11601,1.624046 -0.40641,2.132996 -0.42004,0.736146 -1.02055,1.231134 -1.89112,1.55885 l -0.24673,0.09286 h -2.45697 c -1.35135,0 -2.45652,-0.01328 -2.45597,-0.02949 6.2e-4,-0.01622 0.31003,-0.212944 0.68783,-0.437197 l 0.68689,-0.407705 0.0102,-2.203668 0.0102,-2.203585 0.33427,-0.107691 c 0.18384,-0.05921 0.50828,-0.180385 0.72101,-0.269294 0.21273,-0.0889 0.40317,-0.161687 0.42314,-0.161687 0.0218,0 0.0323,0.885275 0.0262,2.228474 l -0.0101,2.228476 -0.45225,0.248478 -0.45226,0.248479 1.28395,6.17e-4 1.28395,6.17e-4 0.23012,-0.120364 c 0.58153,-0.304296 0.82565,-0.782426 0.92241,-1.806328 0.0683,-0.722933 -0.0184,-1.700547 -0.20402,-2.302519 -0.4312,-1.397771 -1.57801,-2.0746 -3.51641,-2.075295 -0.70994,-3.13e-4 -1.07285,0.05985 -1.54578,0.25616 -1.06397,0.441619 -1.39311,1.349759 -0.94714,2.61329 0.0625,0.177088 0.11367,0.332578 0.11367,0.345488 0,0.06145 -0.40746,-0.19336 -0.58375,-0.365076 -0.46407,-0.452016 -0.65519,-0.901509 -0.6548,-1.5398 1.9e-4,-0.375585 0.0112,-0.434262 0.11483,-0.648885 0.35211,-0.725206 1.32792,-1.219261 2.68456,-1.359222 0.21288,-0.02194 0.50493,-0.03153 0.81994,-0.03019 z" />
    </g>
    <text
       xml:space="preserve"
       style="font-style:normal;font-weight:normal;font-size:1.65519px;line-height:1.25;font-family:sans-serif;fill:#2e1c59;fill-opacity:1;stroke:none;stroke-width:0.0775874"
       x="242.85649"
       y="31.080187"
       id="text987"><tspan
         sodipodi:role="line"
         id="tspan985"
         x="242.85649"
         y="31.080187"
         style="font-style:normal;font-variant:normal;font-weight:900;font-stretch:normal;font-size:1.65519px;font-family:IRANSansX;-inkscape-font-specification:'IRANSansX Heavy';text-align:center;text-anchor:middle;fill:#2e1c59;fill-opacity:1;stroke-width:0.0775874" /><tspan
         sodipodi:role="line"
         x="242.85649"
         y="33.360798"
         style="font-style:normal;font-variant:normal;font-weight:900;font-stretch:normal;font-size:1.65519px;font-family:IRANSansX;-inkscape-font-specification:'IRANSansX Heavy';text-align:center;text-anchor:middle;fill:#2e1c59;fill-opacity:1;stroke-width:0.0775874"
         id="tspan989">هوش‌آفرین</tspan></text>
    <text
       xml:space="preserve"
       style="font-style:normal;font-weight:normal;font-size:1.46222px;line-height:1.25;font-family:sans-serif;fill:#2e1c59;fill-opacity:1;stroke:none;stroke-width:0.0685415"
       x="242.92078"
       y="31.164682"
       id="text995"><tspan
         sodipodi:role="line"
         id="tspan991"
         x="242.92078"
         y="31.164682"
         style="font-style:normal;font-variant:normal;font-weight:900;font-stretch:normal;font-size:1.46222px;font-family:IRANSansX;-inkscape-font-specification:'IRANSansX Heavy';text-align:center;text-anchor:middle;fill:#2e1c59;fill-opacity:1;stroke-width:0.0685415">گروه مشارکت </tspan><tspan
         sodipodi:role="line"
         x="242.92078"
         y="33.179409"
         style="font-style:normal;font-variant:normal;font-weight:900;font-stretch:normal;font-size:1.46222px;font-family:IRANSansX;-inkscape-font-specification:'IRANSansX Heavy';text-align:center;text-anchor:middle;fill:#2e1c59;fill-opacity:1;stroke-width:0.0685415"
         id="tspan993" /></text>
    <g
       id="g1024"
       style="fill:#ffffff">
      <path
         d="m 261.18955,49.891596 q -0.37724,0.475424 -1.00769,0.599447 -0.50126,0.113688 -1.04904,0.206706 -0.10335,0.0052 -0.15503,-0.02067 -0.0568,-0.02067 0.0982,-0.129191 0.63045,-0.37207 1.25057,-0.733806 0.62529,-0.366903 0.95085,-0.775147 0.32556,-0.413411 0.59945,-0.971517 0.27388,-0.558107 0.49609,-1.043865 0.0568,-0.103353 0.12919,-0.07235 0.0723,0.02584 0.0103,0.186035 -0.18604,0.444418 -0.22221,0.733806 0.005,0.485759 0.20154,0.733806 0.2067,0.258382 0.46509,0.258382 0.0465,-0.0155 0.15503,-0.341065 0.11368,-0.325562 0.1912,-0.496094 0.22738,0.04651 0.32556,0.222209 0.10335,0.170532 0.11369,0.341065 0,0.589111 -0.3669,1.219565 -0.36174,0.625285 -0.95085,0.625285 -0.40307,-0.0155 -0.66663,-0.403077 -0.17053,-0.248047 -0.18087,-0.697632 -0.24288,0.392741 -0.38757,0.558106 z"
         style="font-style:normal;font-variant:normal;font-weight:normal;font-stretch:normal;font-size:19.9759px;line-height:1.45;font-family:'Dima SHekasteh Free2';-inkscape-font-specification:'Dima SHekasteh Free2';text-align:end;text-anchor:end;fill:#ffffff;fill-opacity:1;stroke:none;stroke-width:0.264583"
         id="path950" />
      <path
         d="m 259.24135,42.036773 q -0.0517,0.253214 -0.12403,1.007691 -0.0672,0.749309 -0.16019,2.02055 -0.0982,1.260906 -0.1757,2.04122 -0.0775,0.775147 -0.1447,1.095541 -0.22738,1.090374 -0.76481,2.165245 -0.57878,1.152385 -1.44694,1.881023 -0.99736,0.831991 -2.05156,0.831991 -1.06453,0 -1.63814,-0.604614 -0.53743,-0.568442 -0.53743,-1.550295 0,-1.560629 1.2454,-3.322796 0.0827,-0.113689 0.14986,-0.118857 0.062,-0.0052 0.062,0.08268 0,0.06718 -0.0568,0.170532 -0.72864,1.204062 -0.72864,2.077394 0,0.826824 0.62529,1.276409 0.53743,0.382406 1.33841,0.382406 1.20924,0 2.11357,-0.723471 0.90434,-0.718302 1.1834,-1.901694 0.0413,-0.191202 0.093,-0.842326 0.0568,-0.651123 0.11369,-1.777671 0.062,-1.167888 0.11368,-1.881023 0.0568,-0.713136 0.10853,-0.987021 0.0517,-0.289388 0.1757,-0.640788 0.12919,-0.356568 0.33073,-0.79065 0.21187,-0.454753 0.21187,-0.165364 0,0.10852 -0.0362,0.273885 z"
         style="font-style:normal;font-variant:normal;font-weight:normal;font-stretch:normal;font-size:19.9759px;line-height:1.45;font-family:'Dima SHekasteh Free2';-inkscape-font-specification:'Dima SHekasteh Free2';text-align:end;text-anchor:end;fill:#ffffff;fill-opacity:1;stroke:none;stroke-width:0.264583"
         id="path952" />
      <path
         d="m 255.77693,46.754834 q -0.55811,0.79065 -0.55811,1.364259 0,0.124024 0.0259,0.232544 0.0259,0.108521 0.062,0.191203 0.0362,0.07752 0.0775,0.124023 0.0465,0.04134 0.0878,0.04134 0.0775,0 0.22738,-0.366903 0.0775,-0.191202 0.093,-0.191202 0.15503,0 0.29972,0.253214 0.093,0.170532 0.093,0.366903 0,0.5271 -0.33073,1.043865 -0.38241,0.620118 -0.8785,0.620118 -0.31522,0 -0.53227,-0.294556 -0.21187,-0.299724 -0.21187,-0.656292 0,-0.583944 0.39791,-1.379761 0.32039,-0.645956 0.90434,-1.410768 -0.1602,-0.06718 -0.29973,-0.170532 -0.13952,-0.108521 -0.26872,-0.253215 -0.25321,-0.284221 -0.25321,-0.831991 0,-0.397909 0.15503,-1.080039 0.0568,-0.227376 0.0982,-0.377238 0.0413,-0.149861 0.0672,-0.227376 0.093,-0.294556 0.22221,-0.635621 0.13436,-0.346232 0.31006,-0.744141 0.34624,-0.795817 0.46509,-0.795817 0.0827,0.0052 0.0155,0.237711 -0.0672,0.196371 -0.12403,0.392741 -0.0568,0.191203 -0.11369,0.382406 -0.0259,0.113689 -0.0672,0.268718 -0.0362,0.149862 -0.0775,0.341065 -0.0413,0.191203 -0.0724,0.387573 -0.031,0.196371 -0.0413,0.408244 -0.005,0.361735 0.13952,0.625286 0.14987,0.258382 0.67697,0.30489 0.0465,0 0.0878,0 0.0465,-0.0052 0.0827,0 0.0362,0.0052 0.0568,0.03101 0.0207,0.02067 0.0207,0.06718 0,0.149862 -0.0723,0.356568 -0.0723,0.201538 -0.32556,0.676961 -0.093,0.160197 -0.18604,0.310059 -0.0879,0.144694 -0.1757,0.279053 l -0.0775,0.108521 z"
         style="font-style:normal;font-variant:normal;font-weight:normal;font-stretch:normal;font-size:19.9759px;line-height:1.45;font-family:'Dima SHekasteh Free2';-inkscape-font-specification:'Dima SHekasteh Free2';text-align:end;text-anchor:end;fill:#ffffff;fill-opacity:1;stroke:none;stroke-width:0.264583"
         id="path954" />
      <path
         d="m 253.46493,44.651602 q -0.20154,0.341065 -0.3669,0.341065 -0.031,0 -0.12403,-0.0155 -0.0879,-0.0155 -0.15503,-0.0155 -0.37207,0 -0.8785,0.289388 -0.25321,0.144695 -0.47025,0.320394 -0.21704,0.1757 -0.40825,0.392741 -0.0982,0.113689 -0.0982,0.222209 0,0.382406 0.96118,0.465088 0.58395,0.05684 0.58395,0.635621 0,0.79065 -0.75965,1.819012 -1.7725,2.408123 -5.13147,3.917076 -3.22978,1.452109 -6.42339,1.452109 -1.73633,0 -3.20911,-0.418579 -1.46244,-0.408245 -2.28926,-1.126547 -0.71831,-0.625286 -0.71831,-1.064536 0,-0.180868 0.14987,-0.180868 0.0672,0 0.13436,0.03618 2.58898,1.25057 6.59391,1.25057 2.71301,0 5.27617,-0.971517 2.06189,-0.785483 3.76205,-2.077394 1.34875,-1.023195 1.9482,-1.91203 0.10852,-0.160197 0.10852,-0.258382 0,-0.170533 -0.52193,-0.248047 -0.62012,-0.09302 -0.82166,-0.310059 -0.1602,-0.165364 -0.1602,-0.45992 0,-0.547771 0.5271,-1.224733 0.58395,-0.754476 1.5968,-1.353923 0.39275,-0.227377 0.68213,-0.227377 0.35141,0 0.35141,0.304892 0,0.180867 -0.13953,0.418579 z"
         style="font-style:normal;font-variant:normal;font-weight:normal;font-stretch:normal;font-size:19.9759px;line-height:1.45;font-family:'Dima SHekasteh Free2';-inkscape-font-specification:'Dima SHekasteh Free2';text-align:end;text-anchor:end;fill:#ffffff;fill-opacity:1;stroke:none;stroke-width:0.264583"
         id="path956" />
      <path
         style="font-style:normal;font-variant:normal;font-weight:normal;font-stretch:normal;font-size:19.9759px;line-height:1.25;font-family:'Dima Shekasteh Free';-inkscape-font-specification:'Dima Shekasteh Free';fill:#ffffff;fill-opacity:1;stroke:none;stroke-width:0.264583"
         d="m 249.31042,42.81473 q 0.005,0.06201 0.005,0.124024 0,0.434082 -0.28938,0.72347 -0.25322,0.248047 -0.45475,0.201538 -0.50126,-0.113688 -1.03353,-0.3514 0.28422,-0.656291 0.77515,-1.379761 0.53743,0.155029 0.72863,0.273885 0.24288,0.144694 0.26872,0.408244 z"
         id="path1083" />
      <path
         style="font-style:normal;font-variant:normal;font-weight:normal;font-stretch:normal;font-size:19.9759px;line-height:1.25;font-family:'Dima Shekasteh Free';-inkscape-font-specification:'Dima Shekasteh Free';fill:#ffffff;fill-opacity:1;stroke:none;stroke-width:0.264583"
         d="m 248.84533,45.636266 q -0.22221,1.364258 -0.57878,2.718182 -0.35656,1.353923 -1.89136,1.617473 -1.52962,0.26355 -0.62011,-0.28422 0.91467,-0.552939 1.33842,-0.914674 0.42891,-0.361735 0.64078,-0.63562 0.21188,-0.279054 0.37207,-0.754477 0.16537,-0.480591 0.3204,-1.002524 0.15503,-0.521932 0.22221,-0.707967 0.0723,-0.186035 0.1447,-0.180868 0.0827,0.0155 0.0517,0.144695 z"
         id="path1065" />
      <path
         style="font-style:normal;font-variant:normal;font-weight:normal;font-stretch:normal;font-size:19.9759px;line-height:1.25;font-family:'Dima Shekasteh Free';-inkscape-font-specification:'Dima Shekasteh Free';fill:#ffffff;fill-opacity:1;stroke:none;stroke-width:0.264583"
         d="m 244.83086,51.281529 q 0.005,0.06201 0.005,0.124023 0,0.434083 -0.28939,0.723471 -0.25322,0.248047 -0.45476,0.201538 -0.50126,-0.113688 -1.03353,-0.3514 0.28422,-0.656291 0.77515,-1.379762 0.53744,0.15503 0.72864,0.273886 0.24288,0.144694 0.26872,0.408244 z"
         id="path1087" />
      <path
         id="path1067"
         style="font-style:normal;font-variant:normal;font-weight:normal;font-stretch:normal;font-size:19.9759px;line-height:1.25;font-family:'Dima Shekasteh Free';-inkscape-font-specification:'Dima Shekasteh Free';fill:#ffffff;fill-opacity:1;stroke:none;stroke-width:0.264583"
         d="m 244.21785,42.730895 c -0.0155,-0.006 -0.0353,0.0097 -0.0594,0.04754 -0.0724,0.16881 -0.14297,0.339342 -0.21187,0.511596 -0.0655,0.172257 -0.12747,0.342789 -0.18603,0.511599 -0.0517,0.20326 -0.10508,0.470254 -0.1602,0.800983 -0.0551,0.330729 -0.10508,0.644234 -0.14986,0.940512 -0.0413,0.292833 -0.10508,0.780312 -0.19121,1.462442 -0.0827,0.68213 -0.12402,1.088652 -0.12402,1.219565 v 0.04651 c -0.0172,0.475421 0.0448,0.862996 0.18604,1.162719 0.15502,0.30317 0.37206,0.45992 0.65112,0.470254 0.27216,-0.01378 0.50298,-0.155027 0.69246,-0.423746 0.19293,-0.268718 0.34451,-0.611505 0.45476,-1.028361 0.1136,-0.420301 0.17216,-0.723469 0.1757,-0.909505 0.0103,-0.110241 -0.0121,-0.165365 -0.0672,-0.165365 -0.0482,0 -0.0982,0.07751 -0.14987,0.232545 -0.0517,0.151585 -0.11541,0.284221 -0.1912,0.397907 -0.0724,0.113692 -0.17914,0.186039 -0.32039,0.217043 -0.13781,0.031 -0.27734,0 -0.41858,-0.09302 -0.23082,-0.172254 -0.34623,-0.475421 -0.34623,-0.909505 V 46.9849 c 0,-0.120579 0.009,-0.322117 0.0258,-0.604616 0,-0.04479 0.012,-0.199816 0.0362,-0.465087 0.0276,-0.265274 0.0775,-0.704522 0.14986,-1.317749 0.0724,-0.616672 0.15159,-1.21095 0.23771,-1.782837 -0.007,-0.04996 -0.0181,-0.07769 -0.0336,-0.08372 z" />
      <path
         style="font-style:normal;font-variant:normal;font-weight:normal;font-stretch:normal;font-size:19.9759px;line-height:1.25;font-family:'Dima Shekasteh Free';-inkscape-font-specification:'Dima Shekasteh Free';fill:#ffffff;fill-opacity:1;stroke:none;stroke-width:0.264583"
         d="m 242.05504,38.856312 q 0.0413,0.149862 -0.005,0.310059 -0.0413,0.160197 -0.1602,0.335898 -0.0724,0.118855 -0.15503,0.217041 -0.0775,0.09302 -0.16537,0.180867 -0.0259,0.03101 -0.0827,0.07751 -0.0568,0.04651 -0.11885,0.08785 -0.062,0.04134 -0.11886,0.06201 -0.0568,0.0155 -0.0827,-0.0155 -0.18604,-0.149861 -0.3669,-0.304891 -0.18087,-0.15503 -0.39791,-0.289388 -0.0362,-0.02584 -0.031,-0.04651 0,-0.02584 0.0259,-0.07235 l 0.82682,-1.260905 q 0.0362,-0.05168 0.0724,-0.04651 0.0362,0 0.0775,0.02584 0.10852,0.06201 0.21704,0.139526 0.10852,0.07752 0.20154,0.170533 0.093,0.08785 0.1602,0.19637 0.0723,0.103353 0.10335,0.232544 z"
         id="path1093" />
      <path
         id="path1071"
         style="font-style:normal;font-variant:normal;font-weight:normal;font-stretch:normal;font-size:19.9759px;line-height:1.25;font-family:'Dima Shekasteh Free';-inkscape-font-specification:'Dima Shekasteh Free';fill:#ffffff;fill-opacity:1;stroke:none;stroke-width:0.264583"
         d="m 241.49709,41.775915 c -0.0723,0.144693 -0.17742,0.423746 -0.31523,0.837158 -0.031,0.08268 -0.0637,0.180866 -0.0982,0.294555 -0.0379,0.113689 -0.081,0.24288 -0.12919,0.387572 -0.0103,0.05168 0.0155,0.124024 0.0775,0.217043 0.0276,0.05168 0.0568,0.103352 0.0879,0.155028 0.031,0.05168 0.062,0.103354 0.093,0.15503 0.0654,0.134358 0.13436,0.292833 0.2067,0.475424 0.062,0.165365 0.093,0.280776 0.093,0.346231 0,0.196371 -0.10335,0.566719 -0.31006,1.111044 -0.0476,0.105386 -0.1528,0.366038 -0.31109,0.76998 -0.003,0.0038 -0.006,0.0063 -0.009,0.01035 -0.18259,0.375515 -0.27389,0.701077 -0.27389,0.976683 -0.003,0.230822 0.0431,0.404799 0.13953,0.521933 0.0999,0.113689 0.2291,0.199816 0.38757,0.258381 0.0655,0.02756 0.15159,0.05512 0.25838,0.08268 0.1068,0.02756 0.21016,0.05857 0.31006,0.09302 0.0999,0.03445 0.18432,0.07579 0.25322,0.124024 0.0724,0.04823 0.10688,0.106796 0.10335,0.175699 0,0.151585 -0.0672,0.337619 -0.20154,0.558104 -0.13091,0.220488 -0.31867,0.434083 -0.56327,0.640789 -0.24461,0.206706 -0.52538,0.380683 -0.84233,0.52193 -0.42374,0.192927 -0.86299,0.289388 -1.31774,0.289388 -0.54778,0 -0.9698,-0.120576 -1.26608,-0.361733 -0.29283,-0.241157 -0.45475,-0.566719 -0.48576,-0.976685 -0.0379,-0.389295 0.0551,-0.921562 0.27906,-1.596803 0.0999,-0.303167 0.22565,-0.620117 0.37723,-0.950846 0.15503,-0.334174 0.30834,-0.663178 0.45992,-0.987018 0.031,-0.07924 0.05,-0.134361 0.0568,-0.165364 0.0103,-0.03101 0.0103,-0.05168 0,-0.06201 h -0.005 c -0.031,-0.01378 -0.0672,0.01206 -0.10852,0.07752 -0.003,0.0069 -0.0207,0.03617 -0.0517,0.08785 -0.19292,0.337619 -0.38241,0.690743 -0.56844,1.059368 -0.18259,0.368625 -0.34623,0.745863 -0.49093,1.131713 -0.14469,0.38585 -0.26354,0.776869 -0.35656,1.173054 -0.093,0.396187 -0.14468,0.790649 -0.15503,1.183391 0,0.21704 0.0293,0.444418 0.0879,0.68213 0.0586,0.241155 0.16536,0.468532 0.32039,0.682128 0.34107,0.420304 0.8406,0.635622 1.49862,0.645956 0.57877,0 1.09037,-0.153307 1.53479,-0.45992 0.23082,-0.13436 0.44442,-0.301447 0.64079,-0.501263 0.19637,-0.199814 0.36173,-0.401352 0.49609,-0.604613 0.32039,-0.440973 0.57016,-0.959458 0.74931,-1.555461 0.18259,-0.599446 0.27388,-1.129991 0.27388,-1.591633 0,-0.306615 -0.0844,-0.516766 -0.25321,-0.630455 -0.0517,-0.04134 -0.18431,-0.09991 -0.39791,-0.175699 -0.21015,-0.07579 -0.35484,-0.139525 -0.43408,-0.191201 -0.072,-0.04909 -0.10392,-0.09819 -0.0982,-0.14728 0.002,-0.0029 0.004,-0.0048 0.005,-0.0078 0.11024,-0.292833 0.22393,-0.587388 0.34107,-0.883668 0.11713,-0.299723 0.23599,-0.596001 0.35657,-0.888834 0.19981,-0.547772 0.29972,-1.002522 0.29972,-1.364257 0,-0.351401 -0.0775,-0.69591 -0.23255,-1.033529 -0.16536,-0.334174 -0.33589,-0.530545 -0.51159,-0.589111 z" />
    </g>
    <g
       id="g1277"
       transform="translate(0.59789241)"
       style="fill:#ffffff">
      <path
         id="path968"
         style="font-style:normal;font-variant:normal;font-weight:normal;font-stretch:normal;font-size:19.9759px;line-height:1.45;font-family:'Dima SHekasteh Free2';-inkscape-font-specification:'Dima SHekasteh Free2';text-align:end;text-anchor:end;fill:#ffffff;fill-opacity:1;stroke:none;stroke-width:0.264583"
         d="m 262.92844,62.822776 c -0.0414,0 -0.093,0.0534 -0.15503,0.160197 -0.11714,0.213601 -0.18604,0.330734 -0.20671,0.351401 -0.0517,-0.06891 -0.11369,-0.129196 -0.18603,-0.180869 -0.12403,-0.07235 -0.23082,-0.108519 -0.3204,-0.108519 -0.1378,0 -0.27388,0.06718 -0.40824,0.201536 -0.093,0.09302 -0.16877,0.194648 -0.22737,0.304892 -0.0551,0.106799 -0.13264,0.273886 -0.23255,0.501261 -0.0414,0.130914 -0.10335,0.280776 -0.18603,0.449586 -0.0758,0.15503 -0.14471,0.261826 -0.20671,0.320394 -0.0115,0.01281 -0.0577,0.04882 -0.0806,0.06925 -0.0337,-0.06044 -0.0744,-0.117171 -0.12609,-0.167434 -0.11024,-0.110238 -0.23599,-0.155024 -0.37724,-0.134358 -0.14124,0.02067 -0.28249,0.08096 -0.42374,0.180867 -0.1378,0.09646 -0.267,0.22221 -0.38757,0.377237 -0.12058,0.151586 -0.21532,0.304893 -0.28422,0.459923 -0.069,0.151582 -0.10519,0.292833 -0.10853,0.423746 -0.003,0.130916 0.0431,0.22221 0.13953,0.273884 0.0655,0.03443 0.13436,0.05338 0.20671,0.05684 0.0723,0.0034 0.14469,0.0017 0.21704,-0.0052 0.0758,-0.0069 0.14986,-0.01204 0.22221,-0.0155 0.0758,-0.0069 0.14814,-0.0034 0.21704,0.01034 -0.0207,0.124023 -0.0896,0.260104 -0.20671,0.408244 -0.11713,0.148137 -0.26528,0.298 -0.44441,0.449582 -0.17915,0.151585 -0.38069,0.299723 -0.60462,0.444418 -0.22393,0.144693 -0.45304,0.275609 -0.68729,0.392743 -0.23428,0.113688 -0.4651,0.210153 -0.69247,0.289388 -0.22737,0.07925 -0.43236,0.129201 -0.61495,0.14986 0.15159,0.02412 0.3204,0.03273 0.50643,0.02584 0.18603,-0.01031 0.36345,-0.02755 0.53227,-0.05168 0.17225,-0.02411 0.32384,-0.04822 0.45475,-0.07235 0.13095,-0.02755 0.22052,-0.0465 0.26872,-0.05684 0.0827,-0.0206 0.1464,-0.03264 0.1912,-0.03617 0.0448,-0.0034 0.081,-0.0068 0.10852,-0.01034 0.031,-0.0034 0.0568,-0.0068 0.0775,-0.01033 0.0241,-0.0069 0.0568,-0.02412 0.0982,-0.05168 0.0413,-0.02756 0.0965,-0.06718 0.16536,-0.118856 0.0724,-0.05168 0.16882,-0.124026 0.28939,-0.217041 0.11025,-0.08268 0.23255,-0.201538 0.36691,-0.356568 0.13436,-0.15503 0.26354,-0.329007 0.38757,-0.52193 0.12747,-0.196371 0.24115,-0.403077 0.34106,-0.62012 0.10334,-0.217041 0.17741,-0.428914 0.22221,-0.635619 5.8e-4,-0.0025 4.6e-4,-0.0047 10e-4,-0.0072 0.0861,-0.121396 0.17286,-0.246941 0.26251,-0.390673 0.007,-0.0034 0.15158,-0.287666 0.43408,-0.852662 0.11024,-0.210151 0.24289,-0.315228 0.39791,-0.315228 0.062,0 0.16192,0.02584 0.29973,0.07752 0.13435,0.05512 0.23599,0.08268 0.30489,0.08268 0.21704,0 0.40824,-0.105074 0.5736,-0.315225 0.15504,-0.206708 0.23255,-0.444418 0.23255,-0.713137 0,-0.09302 -0.0448,-0.196368 -0.13436,-0.310057 -0.0861,-0.124023 -0.15844,-0.186036 -0.21704,-0.186036 z m -0.0258,3.917074 c -0.20325,0.04823 -0.44269,0.382405 -0.7183,1.002522 -0.27561,0.623565 -0.41341,1.116214 -0.41341,1.477947 0,0.155032 0.0292,0.29628 0.0879,0.423746 0.0586,0.127468 0.15502,0.191203 0.28938,0.191203 0.13092,0 0.23944,-0.06546 0.32557,-0.196371 0.093,-0.127471 0.13952,-0.266993 0.13952,-0.418578 -0.0103,-0.217041 -0.17569,-0.413409 -0.49609,-0.589111 0.0896,-0.582221 0.3514,-1.212675 0.78548,-1.891358 z" />
      <path
         id="path1139"
         style="font-style:normal;font-variant:normal;font-weight:normal;font-stretch:normal;font-size:19.9759px;line-height:1.45;font-family:'Dima SHekasteh Free2';-inkscape-font-specification:'Dima SHekasteh Free2';text-align:end;text-anchor:end;fill:#ffffff;fill-opacity:1;stroke:none;stroke-width:0.264583"
         d="m 254.65355,55.144352 c -0.1757,0.227375 -0.33417,0.447863 -0.47542,0.661459 -0.13781,0.21015 -0.26183,0.418578 -0.37207,0.625284 0.3514,0.117133 0.62873,0.273886 0.83199,0.470255 0.0448,0.0379 0.0758,0.05685 0.093,0.05685 0.0276,0 0.10163,-0.04478 0.22221,-0.134357 0.35484,-0.279054 0.53226,-0.585669 0.53226,-0.919843 0,-0.182589 -0.0586,-0.325562 -0.1757,-0.428913 -0.11713,-0.1068 -0.33589,-0.217041 -0.65629,-0.33073 z m -0.90433,1.891358 c -0.1757,0.227375 -0.33418,0.44786 -0.47542,0.661459 -0.13781,0.21015 -0.26183,0.418578 -0.37208,0.625284 0.3514,0.117134 0.62873,0.273884 0.83199,0.470254 0.0448,0.0379 0.0758,0.05685 0.093,0.05684 0.0275,0 0.10163,-0.04478 0.22221,-0.134358 0.15543,-0.122232 0.2749,-0.250114 0.36225,-0.382921 0.33838,0.116083 0.60772,0.269227 0.80564,0.460435 0.0448,0.0379 0.0758,0.05685 0.093,0.05684 0.0275,0 0.10163,-0.04478 0.22221,-0.134358 0.35485,-0.279054 0.53227,-0.585666 0.53227,-0.91984 0,-0.182589 -0.0586,-0.325562 -0.1757,-0.428914 -0.11714,-0.106798 -0.3359,-0.217042 -0.65629,-0.330729 -0.1757,0.227375 -0.33417,0.44786 -0.47542,0.661459 -0.0728,0.110987 -0.1411,0.221218 -0.20619,0.331245 0.02,-0.07617 0.0305,-0.153787 0.0305,-0.233061 0,-0.182589 -0.0586,-0.325562 -0.1757,-0.428914 -0.11714,-0.106798 -0.3359,-0.217042 -0.65629,-0.330729 z" />
      <path
         style="font-style:normal;font-variant:normal;font-weight:normal;font-stretch:normal;font-size:19.9759px;line-height:1.45;font-family:'Dima SHekasteh Free2';-inkscape-font-specification:'Dima SHekasteh Free2';text-align:end;text-anchor:end;fill:#ffffff;fill-opacity:1;stroke:none;stroke-width:0.264583"
         d="m 263.18797,57.191932 q -0.35657,0.826823 -0.85783,1.064535 -0.20154,0.09302 -2.07223,1.746665 -1.87069,1.653647 -3.7052,2.542482 -2.69234,1.302247 -5.7981,1.302247 -0.69763,0 -1.2609,-0.103353 -0.36174,-0.06201 -0.70281,-0.186035 -0.28421,-0.103353 -0.32556,-0.103353 -0.0672,0 -0.10852,0.08785 -1.85001,4.185794 -4.12378,6.196009 -1.71566,1.503784 -3.24528,1.503784 -0.42375,0 -0.7183,-0.129188 -0.22738,-0.103355 -0.22738,-0.382409 0,-0.242878 0.16536,-0.485757 0.16537,-0.237713 0.38758,-0.258381 3.514,-0.382408 6.06681,-4.06694 0.32556,-0.46509 0.64596,-1.049031 0.32039,-0.583946 0.64596,-1.297081 0.53226,-1.152385 0.78031,-1.359091 0.14986,-0.129191 0.28422,-0.129191 -0.0413,0 0.59428,0.10852 0.64079,0.108521 1.5658,0.108521 3.27629,0 5.9893,-1.2299 1.81385,-0.811321 3.73104,-2.413292 1.86552,-1.555461 2.22726,-1.700155 0.10852,-0.04134 0.12402,-0.04134 0.0258,0 0.0258,0.02584 0,0.031 -0.0878,0.248047 z"
         id="path972" />
      <g
         id="g1018"
         transform="matrix(0.52980545,0,0,0.52980545,67.131991,13.111114)"
         style="fill:#ffffff;fill-opacity:1">
        <path
           style="font-style:normal;font-variant:normal;font-weight:normal;font-stretch:normal;font-size:19.9759px;line-height:1.45;font-family:'Dima SHekasteh Free2';-inkscape-font-specification:'Dima SHekasteh Free2';text-align:end;text-anchor:end;fill:#ffffff;fill-opacity:1;stroke:none;stroke-width:0.499397"
           d="m 321.00647,108.42147 q -0.01,-0.01 -0.01,-0.039 -0.01,-0.0195 -0.01,-0.0293 0,-0.01 -0.01,-0.0195 l -0.0293,-0.0878 q -0.0195,-0.0585 -0.039,-0.0878 -0.039,-0.0975 -0.10729,-0.19507 l -0.0878,-0.11705 -0.11705,-0.13655 q -0.078,-0.078 -0.15606,-0.14631 -0.078,-0.0683 -0.16582,-0.13656 l -0.039,-0.0293 q -0.0585,-0.0488 -0.11705,-0.0878 -0.0585,-0.0293 -0.11705,-0.0683 -0.039,-0.0293 -0.078,-0.0488 -0.0195,-0.0195 -0.039,-0.0293 -0.0195,-0.01 -0.039,-0.0195 -0.0195,-0.0195 -0.039,-0.0293 -0.0195,0 -0.039,-0.0195 l -0.0683,-0.0293 q -0.01,-0.01 -0.0195,-0.01 -0.0195,-0.01 -0.0195,-0.01 -0.078,-0.0195 -0.14631,0.0683 -0.01,0.01 -0.01,0.0195 l -1.49234,2.27265 q -0.0488,0.078 -0.0488,0.11704 0,0.039 0.0488,0.0878 0,0.01 0.01,0.01 0.19508,0.1268 0.39991,0.28286 0.0683,0.0488 0.13655,0.1073 0.22434,0.16581 0.42917,0.34138 0.19508,0.17557 0.40967,0.34139 0.0585,0.0585 0.13655,0.0585 h 0.0683 l 0.0585,-0.0195 q 0.078,-0.0293 0.18532,-0.11704 l 0.0488,-0.039 0.0975,-0.0975 q 0.0488,-0.0293 0.078,-0.078 l 0.0585,-0.0585 q 0.0293,-0.0195 0.0585,-0.0488 0.0195,-0.0293 0.039,-0.0488 0,-0.01 0.0195,-0.0293 l 0.15606,-0.19508 q 0.0293,-0.0293 0.0683,-0.0878 0.0195,-0.0195 0.039,-0.0488 0.01,-0.0293 0.0293,-0.0488 l 0.0488,-0.0683 0.11704,-0.17557 q 0,-0.01 0.0195,-0.0293 0.0195,-0.039 0.0488,-0.078 0.0293,-0.0293 0.0488,-0.078 l 0.0488,-0.0878 q 0,-0.01 0.01,-0.0195 0,0 0,-0.01 0.0195,-0.039 0.039,-0.078 0.01,-0.039 0.0293,-0.078 l 0.039,-0.11705 q 0,-0.0195 0.01,-0.0293 0,-0.01 0,-0.0293 l 0.0293,-0.11705 q 0,-0.0195 0.01,-0.0488 0,-0.0195 0,-0.039 v -0.13655 q 0,-0.0195 0,-0.0488 -0.01,-0.0195 -0.01,-0.039 -0.01,-0.0195 -0.01,-0.0488 -0.01,-0.0195 -0.01,-0.0585 z"
           id="path1010" />
        <path
           style="font-style:normal;font-variant:normal;font-weight:normal;font-stretch:normal;font-size:19.9759px;line-height:1.45;font-family:'Dima SHekasteh Free2';-inkscape-font-specification:'Dima SHekasteh Free2';text-align:end;text-anchor:end;fill:#ffffff;fill-opacity:1;stroke:none;stroke-width:0.499397"
           d="m 323.99115,108.23615 q -0.0488,-0.2341 -0.17557,-0.42917 -0.1268,-0.18533 -0.29261,-0.35114 -0.16582,-0.16582 -0.37065,-0.30237 -0.19508,-0.1268 -0.39015,-0.24385 -0.078,-0.0488 -0.14631,-0.0585 -0.0585,0 -0.1268,0.0878 l -1.48259,2.2824 q -0.0488,0.078 -0.0488,0.1073 0,0.039 0.0488,0.10729 0.39016,0.24385 0.71203,0.51695 0.33164,0.28287 0.67302,0.55597 0.039,0.0293 0.0878,0.0488 0.0488,0.0195 0.11705,0 0.0683,-0.01 0.16582,-0.0683 0.0975,-0.0585 0.22434,-0.19508 0.20483,-0.19508 0.37064,-0.41942 0.17557,-0.21458 0.34139,-0.46818 0.20483,-0.31213 0.28286,-0.60474 0.0878,-0.29262 0.01,-0.56572 z"
           id="path1008" />
      </g>
      <path
         d="m 246.75854,59.134238 q 0.0517,0.403076 0.0517,0.857829 0,0.775148 -0.20671,2.309936 -0.10852,0.785484 -0.42375,1.757006 -0.31006,0.94051 -0.63562,1.51412 l -0.12919,0.227377 q -0.55294,0.65112 -1.22989,1.080034 -0.83717,0.527104 -1.61748,0.527104 -0.93018,0 -1.56063,-0.987022 0.40308,0.403076 1.28674,0.403076 1.51929,0 2.83188,-1.446941 -0.70797,-0.718305 -0.70797,-2.00505 0,-1.07487 0.47542,-2.273761 0.44959,-1.131717 1.12655,-1.906865 0.30489,-0.346233 0.51676,-0.346233 0.18604,0 0.22221,0.28939 z m -0.55294,1.260905 q 0,-0.785484 -0.093,-0.785484 -0.0672,0 -0.22737,0.170534 -0.50643,0.527103 -0.85266,1.529622 -0.36174,1.0387 -0.36174,2.04639 0,1.224736 0.54778,1.932699 0.41857,-0.552937 0.58394,-0.961178 0.21704,-0.542607 0.29455,-1.467615 0.10852,-1.281578 0.10852,-2.464968 z m 0.96119,-5.389854 q 0.26355,0.02585 0.50643,0.01552 0.24804,-0.01552 0.50126,-0.09302 0.25321,-0.07752 0.51676,-0.227377 0.26355,-0.155032 0.56328,-0.413412 0.062,-0.05166 0.12919,-0.124023 0.0723,-0.07235 0.13436,-0.139529 0.0672,-0.06718 0.11885,-0.10852 0.0517,-0.04652 0.0724,-0.04652 0.0465,-0.0053 0.0568,0.07752 0.0103,0.07752 -0.0516,0.196372 -0.12403,0.248044 -0.3514,0.583941 -0.22221,0.330731 -0.49093,0.599448 -0.49609,0.50126 -0.94051,0.744144 -0.44442,0.237708 -1.06453,0.263546 -0.27389,0 -0.48576,-0.01033 -0.21188,-0.01552 -0.57361,0.0053 -0.35657,0.01552 -0.66663,0.149861 -0.30489,0.134359 -0.53743,0.294556 -0.0362,0.01033 -0.0724,0.01033 -0.031,-0.0053 -0.0413,-0.02585 -0.0155,-0.02066 0.0568,-0.165363 0.093,-0.206709 0.3359,-0.496094 0.24804,-0.294556 0.64078,-0.589112 0.39791,-0.299727 0.75448,-0.408247 0.36174,-0.113686 0.88883,-0.09302 z"
         style="font-style:normal;font-variant:normal;font-weight:normal;font-stretch:normal;font-size:19.9759px;line-height:1.25;font-family:'Dima Shekasteh Free';-inkscape-font-specification:'Dima Shekasteh Free';fill:#ffffff;fill-opacity:1;stroke:none;stroke-width:0.264583"
         id="path1103" />
      <path
         style="font-style:normal;font-variant:normal;font-weight:normal;font-stretch:normal;font-size:19.9759px;line-height:1.25;font-family:'Dima Shekasteh Free';-inkscape-font-specification:'Dima Shekasteh Free';fill:#ffffff;fill-opacity:1;stroke:none;stroke-width:0.264583"
         d="m 243.11239,56.351702 q 0.0413,0.149861 -0.005,0.310058 -0.0413,0.160197 -0.1602,0.335897 -0.0724,0.118856 -0.15503,0.217045 -0.0775,0.09302 -0.16536,0.180865 -0.0259,0.03099 -0.0827,0.07752 -0.0568,0.04652 -0.11886,0.08785 -0.062,0.04133 -0.11886,0.06201 -0.0568,0.01552 -0.0827,-0.01552 -0.18604,-0.14986 -0.36691,-0.304892 -0.18086,-0.155027 -0.3979,-0.289385 -0.0362,-0.02585 -0.0362,-0.04652 0.005,-0.02585 0.031,-0.07235 l 0.82682,-1.260906 q 0.0362,-0.05166 0.0724,-0.04652 0.0362,0 0.0775,0.02585 0.10852,0.06201 0.21704,0.13953 0.10852,0.07751 0.20154,0.170528 0.093,0.08785 0.1602,0.196373 0.0724,0.103354 0.10335,0.232542 z"
         id="path1131" />
      <path
         style="font-style:normal;font-variant:normal;font-weight:normal;font-stretch:normal;font-size:19.9759px;line-height:1.25;font-family:'Dima Shekasteh Free';-inkscape-font-specification:'Dima Shekasteh Free';fill:#ffffff;fill-opacity:1;stroke:none;stroke-width:0.264583"
         d="m 242.46815,63.956143 q 0.48576,-0.196368 0.48576,-0.413413 -0.0155,-0.08785 -0.12402,-0.258381 -0.11886,-0.170534 -0.21188,-0.170534 -0.0724,0.03619 -0.18087,0.06201 -0.10335,0.02585 -0.22737,0.02585 -0.18603,0 -0.3359,-0.134359 -0.14469,-0.124022 -0.16536,-0.346233 -0.0155,-0.07752 0.093,-0.361735 0.10852,-0.289385 0.40307,-0.775148 0.29972,-0.490923 0.45992,-0.490923 0.43409,0 0.72864,0.387574 0.30489,0.387574 0.30489,1.038694 0,0.501265 -0.18087,0.97152 -0.1757,0.470255 -0.39791,0.816487 -0.2222,0.341063 -0.47542,0.527099 -0.1912,0.144695 -0.62528,0.304892 -0.42892,0.160197 -0.5271,0.196367 -0.42375,0.217046 -0.92501,0.769982 -0.49609,0.547771 -0.8785,1.012856 -0.85266,0.935345 -1.41594,1.291915 -0.56327,0.361735 -0.78548,0.47542 -0.22738,0.113691 -0.42891,0.227377 -0.17054,0.09302 -0.25322,0.04652 -0.0413,-0.04133 0.0362,-0.09818 0.0465,-0.03099 0.66145,-0.485757 0.63562,-0.501265 0.75965,-0.635623 0.35656,-0.330726 0.50642,-0.516762 0.1602,-0.13953 0.43409,-0.480592 0.1912,-0.232542 0.65629,-0.847493 0.47026,-0.61495 0.73897,-0.914677 0.26872,-0.304887 0.57878,-0.552937 0.31523,-0.248044 0.59945,-0.387574 0.28939,-0.139524 0.69246,-0.284218 z"
         id="path1105" />
      <path
         style="font-style:normal;font-variant:normal;font-weight:normal;font-stretch:normal;font-size:19.9759px;line-height:1.25;font-family:'Dima Shekasteh Free';-inkscape-font-specification:'Dima Shekasteh Free';fill:#ffffff;fill-opacity:1;stroke:none;stroke-width:0.264583"
         d="m 245.44174,57.526462 c -0.0724,0 -0.16536,0.148138 -0.27905,0.444418 -0.0482,0.124024 -0.13092,0.222208 -0.24805,0.294555 -0.11368,0.0689 -0.26011,0.09819 -0.43925,0.08785 -0.1071,-0.0063 -0.14126,-0.01283 -0.19844,-0.01913 L 244.155,58.187911 c -1.10244,0.31695 -2.64067,1.080037 -4.61471,2.289265 -2.1773,1.333254 -3.71209,2.539034 -4.60437,3.617351 -0.73036,0.885389 -1.29535,1.81212 -1.69499,2.780191 -0.36862,0.902619 -0.55293,1.734604 -0.55293,2.495972 0,0.830268 0.20843,1.434882 0.62528,1.813842 0.0689,0.06201 0.11715,0.09302 0.14469,0.09302 0.0586,0 0.13264,-0.124028 0.22222,-0.372072 0.16536,-0.458197 0.24804,-0.7183 0.24804,-0.780308 0,-0.05171 -0.0224,-0.09476 -0.0672,-0.129193 -0.3135,-0.23427 -0.52538,-0.456475 -0.63562,-0.666628 -0.0999,-0.192929 -0.14986,-0.456475 -0.14986,-0.79065 0,-1.236794 0.76998,-2.580375 2.30994,-4.03076 1.15066,-1.081762 2.65617,-2.163519 4.51652,-3.245281 1.2988,-0.751031 2.3306,-1.278131 3.09542,-1.581298 0.24115,-0.09646 0.42202,-0.144696 0.5426,-0.144696 0.32327,-0.08755 0.76829,-0.124002 1.03352,-0.294555 0.26183,-0.144693 0.45648,-0.318669 0.58395,-0.52193 0.12747,-0.203261 0.21704,-0.39102 0.26872,-0.563275 0.0551,-0.175699 0.0861,-0.339341 0.093,-0.490926 0,-0.08613 -0.0259,-0.132636 -0.0775,-0.139525 z"
         id="path1120" />
      <path
         style="font-style:normal;font-variant:normal;font-weight:normal;font-stretch:normal;font-size:19.9759px;line-height:1.25;font-family:'Dima Shekasteh Free';-inkscape-font-specification:'Dima Shekasteh Free';fill:#ffffff;fill-opacity:1;stroke:none;stroke-width:0.264583"
         d="m 236.8314,58.367595 c -0.0103,0 -0.0207,0.0069 -0.031,0.02066 -0.0103,0.01379 -0.0241,0.03445 -0.0413,0.06201 -0.1068,0.172254 -0.22393,0.363456 -0.3514,0.573609 -0.12402,0.210151 -0.24115,0.413409 -0.3514,0.60978 l -0.031,0.06201 c -0.0103,0.0241 -10e-6,0.04995 0.031,0.07751 l 0.42892,0.346231 c 0.0896,0.07235 0.16536,0.137803 0.22737,0.196371 0.062,0.05857 0.10852,0.106797 0.13953,0.144693 0.0172,0.031 0.0517,0.04651 0.10335,0.04651 0.007,0 0.0172,-0.0016 0.031,-0.0051 0.0138,-0.0034 0.0293,-0.01378 0.0465,-0.031 0.0517,-0.04134 0.0982,-0.08096 0.13953,-0.118856 0.0448,-0.0379 0.0861,-0.07924 0.12403,-0.124024 0.0413,-0.04478 0.0827,-0.09474 0.12402,-0.149862 0.0413,-0.05512 0.0861,-0.120579 0.13436,-0.196371 0.0758,-0.124024 0.12748,-0.235987 0.15503,-0.335897 0.031,-0.103351 0.0379,-0.201538 0.0207,-0.294555 -0.0379,-0.158475 -0.14297,-0.313505 -0.31523,-0.465087 -0.0896,-0.07924 -0.17742,-0.148141 -0.26355,-0.206706 -0.0827,-0.06201 -0.15675,-0.117134 -0.22221,-0.165365 -0.0275,-0.01378 -0.0482,-0.02585 -0.062,-0.03618 -0.0138,-0.01035 -0.0258,-0.01381 -0.0362,-0.01035 z"
         id="path1107" />
    </g>
  </g>
</svg>
