<?xml version="1.0" encoding="UTF-8" standalone="no"?>
<svg
   xmlns:dc="http://purl.org/dc/elements/1.1/"
   xmlns:cc="http://creativecommons.org/ns#"
   xmlns:rdf="http://www.w3.org/1999/02/22-rdf-syntax-ns#"
   xmlns:svg="http://www.w3.org/2000/svg"
   xmlns="http://www.w3.org/2000/svg"
   xmlns:sodipodi="http://sodipodi.sourceforge.net/DTD/sodipodi-0.dtd"
   xmlns:inkscape="http://www.inkscape.org/namespaces/inkscape"
   version="1.1"
   id="Layer_1"
   x="0px"
   y="0px"
   width="1669.5966"
   height="1033.8158"
   viewBox="0 0 1669.5966 1033.8158"
   enable-background="new 0 0 1984.25 1417.32"
   xml:space="preserve"
   inkscape:version="1.0.1 (3bc2e813f5, 2020-09-07)"
   sodipodi:docname="tip-colored.svg"><metadata
     id="metadata79"><rdf:RDF><cc:Work
         rdf:about=""><dc:format>image/svg+xml</dc:format><dc:type
           rdf:resource="http://purl.org/dc/dcmitype/StillImage" /><dc:title></dc:title></cc:Work></rdf:RDF></metadata><defs
     id="defs77" /><sodipodi:namedview
     pagecolor="#ffffff"
     bordercolor="#666666"
     borderopacity="1"
     objecttolerance="10"
     gridtolerance="10"
     guidetolerance="10"
     inkscape:pageopacity="0"
     inkscape:pageshadow="2"
     inkscape:window-width="1920"
     inkscape:window-height="1135"
     id="namedview75"
     showgrid="false"
     inkscape:zoom="0.23548275"
     inkscape:cx="2129.4145"
     inkscape:cy="-1249.1481"
     inkscape:window-x="1920"
     inkscape:window-y="0"
     inkscape:window-maximized="1"
     inkscape:current-layer="Layer_1"
     fit-margin-top="0"
     fit-margin-left="0"
     fit-margin-right="0"
     fit-margin-bottom="0"
     inkscape:document-rotation="0" /><g
     id="g879"
     transform="matrix(3.7795276,0,0,3.7795276,974.80041,-1297.5374)"><g
       transform="matrix(2.3715197,0,0,2.3559978,-1844.9869,-698.49432)"
       id="g4457"
       inkscape:label="Layer 1"><g
         id="g4459"><g
           id="g4461"
           transform="translate(-6.0683965,-190.54765)"><path
             id="path4463"
             d="m 749.36212,632.73868 v 58.04883 58.05078 h 25.80078 25.79883 V 690.78751 632.73868 H 775.1629 Z m 9.5633,9.56445 h 32.47186 v 96.97852 h -32.47186 c 0,-32.32617 0,-64.65235 0,-96.97852 z"
             style="fill:#2e1c59;fill-opacity:1"
             inkscape:connector-curvature="0"
             sodipodi:nodetypes="cccccccccccccc" /><path
             sodipodi:nodetypes="cccccccccccccc"
             id="path4465"
             d="m 809.6629,697.23868 v 25.79883 25.80078 h 25.94922 25.94922 v -25.80078 -25.79883 h -25.94922 z m 9.55277,9.57422 h 32.7929 v 32.46875 h -32.7929 z"
             style="fill:#2e1c59;fill-opacity:1"
             inkscape:connector-curvature="0" /><path
             sodipodi:nodetypes="cccccccccccccc"
             id="path4467"
             d="m 689.36212,632.73868 v 25.95117 25.94922 h 25.94922 25.95117 v -25.94922 -25.95117 h -25.95117 z m 9.56641,9.56836 h 32.76953 v 32.76562 h -32.76953 z"
             style="fill:#2e1c59;fill-opacity:1"
             inkscape:connector-curvature="0" /><path
             sodipodi:nodetypes="cccccccccccccc"
             id="path4469"
             d="m 809.6629,632.73868 v 25.95117 25.94922 h 25.94922 25.94922 v -25.94922 -25.95117 h -25.94922 z m 9.55277,9.56836 h 32.78118 v 32.76953 h -32.78118 z"
             style="fill:#2e1c59;fill-opacity:1"
             inkscape:connector-curvature="0" /></g></g></g><g
       id="g4233"
       transform="matrix(0.26278895,0,0,0.26458333,-300.55107,291.6609)"><rect
         id="rect43"
         height="15.618"
         width="19.243"
         y="1126.189"
         x="211.222"
         style="fill:#2e1c59" /><rect
         id="rect45"
         height="15.891"
         width="19.277"
         y="1135.531"
         x="732.375"
         style="fill:#2e1c59" /><rect
         id="rect47"
         height="15.891"
         width="19.375"
         y="1135.531"
         x="693.40302"
         style="fill:#2e1c59" /><g
         id="g49"><path
           id="path51"
           d="m 346.615,1180.426 c -14.681,0.828 -22.046,-6.096 -22.1,-20.806 l -0.213,-69.187 -17.741,0.064 0.228,78.254 c 2.073,18.752 12.533,28.24 31.335,28.463 l 70.831,0.402 c 10.654,-0.02 18.366,-4.265 23.112,-12.637 0.714,0.982 1.369,1.765 1.919,2.256 7.544,7.861 16.957,11.764 28.241,11.745 l 0.283,-0.248 v 0.248 c 11.293,-0.045 20.682,-3.997 28.171,-11.898 0.57,-0.496 1.196,-1.274 1.935,-2.281 4.786,8.397 12.508,12.548 23.161,12.528 l 45.108,-0.694 36.215,-0.223 c 16.615,0.179 26.738,-2.926 30.398,-9.398 3.739,-6.631 4.677,-12.637 2.832,-17.994 -1.949,-5.54 -5.912,-10.763 -11.884,-15.697 -3.496,-2.812 -7.916,-6.339 -13.252,-10.381 -6.527,-4.91 -28.365,-17.21 -23.896,-19.58 l 55.211,-26.341 v -17.84 c -45.649,19.913 -72.773,31.881 -77.093,39.093 -1.944,3.239 -2.168,3.953 -1.488,7.191 0.828,4.107 8.665,11.472 23.469,22.076 14.8,10.252 24.054,18.376 27.75,24.293 3.943,5.981 -3.283,8.843 -21.724,8.64 l -65.229,-0.645 c -10.737,0 -17.403,-7.102 -20.027,-21.346 -0.03,-11.14 -3.918,-20.741 -11.656,-28.776 -7.737,-8.104 -17.141,-12.146 -28.24,-12.102 h -0.268 c -11.11,0.045 -20.504,4.131 -28.201,12.28 -7.677,8.08 -11.517,17.701 -11.472,28.846 -2.514,14.264 -9.141,21.411 -19.883,21.456 m 75.289,-6.412 c -4.325,4.464 -9.493,6.696 -15.554,6.721 -5.862,0.02 -10.971,-2.212 -15.296,-6.612 -4.34,-4.508 -6.507,-9.756 -6.517,-15.717 -0.02,-6.185 2.113,-11.541 6.408,-15.985 4.221,-4.285 9.309,-6.453 15.261,-6.472 6.15,-0.025 11.352,2.118 15.583,6.383 4.33,4.419 6.507,9.736 6.522,15.941 0.021,5.935 -2.121,11.207 -6.407,15.741 z"
           inkscape:connector-curvature="0"
           style="fill:#2e1c59" /></g><g
         id="g53"><polygon
           id="polygon55"
           points="626.074,1069.925 626.074,1074.985 579.093,1096.84 579.093,1091.785 "
           style="fill:#2e1c59" /></g><path
         id="path57"
         d="m 207.878,1180.882 c -14.392,0.72 -28.213,-6.092 -28.213,-20.479 v -24.069 h -17.424 v 32.915 c 1.99,18.445 12.134,27.772 30.506,28.016 l 40.557,-0.132 v 0 l 6.024,-0.068 6.014,0.068 v 0 l 10.228,0.132 c 18.377,-0.244 28.526,-9.57 30.531,-28.016 v -32.915 h -17.433 v 24.069 c 0,14.387 -7.196,21.199 -21.598,20.479"
         inkscape:connector-curvature="0"
         style="fill:#2e1c59" /><path
         id="path59"
         d="m 756.328,1180.868 c -0.127,-0.01 -0.238,0.015 -0.365,0.015 l -52.44,0.175 -7.697,-0.175 c -14.402,0.72 -21.608,-6.092 -21.608,-20.479 v -24.069 h -17.404 l -0.282,0.219 v 46.758 c -3.6,19.36 -11.823,28.998 -35.849,28.998 l -0.068,15.944 c 28.55,0 45.609,-11.366 51.16,-34.078 4.16,2.082 9.342,3.089 15.55,3.089 l 16.197,-0.2 52.805,0.088 v -16.285 z"
         inkscape:connector-curvature="0"
         style="fill:#2e1c59" /></g><g
       id="g4224"
       transform="matrix(0.26390511,0,0,0.26458333,-300.79101,291.6609)"><g
         id="g3"><rect
           x="524.54797"
           y="963.84497"
           width="18.948"
           height="15.648"
           id="rect5"
           style="fill:#929497" /><rect
           x="484.96799"
           y="963.84497"
           width="18.982"
           height="15.648"
           id="rect7"
           style="fill:#929497" /><rect
           x="445.35599"
           y="963.84497"
           width="19.077999"
           height="15.648"
           id="rect9"
           style="fill:#929497" /></g><rect
         x="246.96201"
         y="963.84497"
         width="19.079"
         height="15.648"
         id="rect11"
         style="fill:#929497" /><path
         d="m 752.425,1015.478 c 1.447,-2.398 2.417,-5.177 2.89,-8.372 0.28,-7.956 -1.501,-15.768 -5.177,-23.426 l -1.11,-2.219 c -3.021,-5.684 -7.083,-11.281 -12.294,-16.806 -13.052,-13.91 -31.276,-21.742 -54.552,-23.445 v 16.956 c 15.725,1.187 28.839,6.813 39.324,16.868 6.577,6.277 10.654,11.904 12.758,17.018 0,0 0.077,12.477 0.077,12.888 -2.418,3.546 -7.604,5.36 -15.792,5.36 h -14.827 c 3.966,-4.704 5.93,-10.374 5.93,-16.912 0,-8.067 -3.092,-14.885 -9.283,-20.468 -6.19,-5.675 -13.741,-8.521 -22.682,-8.521 -8.873,0 -16.362,2.846 -22.466,8.521 -6.19,5.583 -9.293,12.401 -9.293,20.468 0,6.538 1.959,12.207 5.819,16.912 h -17.134 c 0.68,-6.345 0.333,-14.152 -1.013,-23.513 -0.873,-9.385 -4.497,-17.515 -10.87,-24.376 -7.055,-7.396 -15.846,-11.064 -26.456,-11.064 -10.379,0 -19.199,3.773 -26.393,11.411 -7.238,7.552 -10.827,16.589 -10.827,27.006 0,11.237 4.133,19.888 10.827,27.479 9.856,11.176 42.547,8.477 42.547,8.477 -6.471,9.404 -17.925,14.152 -34.427,14.152 l 0.193,15.184 c 25.746,0 46.788,-9.664 53.008,-28.883 h 95.352 c 18.464,0.876 25.948,-10.415 25.871,-10.695 z m -139.458,-5.177 h -16.429 c -5.66,0 -10.514,-2.094 -14.538,-6.147 -4.087,-4.101 -6.08,-9.037 -6.08,-14.885 0,-13.954 6.891,-20.946 20.618,-20.946 13.259,0 20.323,7.358 21.206,22.133 1.283,12.983 -0.314,19.565 -4.777,19.845 z m 64.718,-1.424 c -10.601,0 -15.865,-4.878 -15.865,-14.495 0,-9.688 5.264,-14.537 15.865,-14.537 10.74,0 16.082,4.849 16.082,14.537 0,9.617 -5.342,14.495 -16.082,14.495 z"
         id="path13"
         inkscape:connector-curvature="0"
         style="fill:#929497" /><path
         d="m 421.022,1005.129 c -4.438,-3.181 -8.122,-8.85 -8.874,-17.267 -0.948,-10.612 -3.69,-19.849 -11.044,-27.588 -7.399,-7.749 -16.416,-11.685 -27.026,-11.685 h -0.286 c -10.659,0 -19.646,3.936 -27.03,11.685 -7.389,7.739 -11.059,16.933 -11.059,27.588 -2.451,13.416 -8.602,20.164 -18.527,20.45 -9.036,-1.786 -13.623,-8.227 -13.623,-19.484 v -23.735 h -0.542 v -0.242 h -16.978 v 23.504 c 0,14.023 -7.034,20.683 -21.101,20.002 h -12.253 c -7.142,0.133 -12.39,-2.481 -15.72,-7.942 -1.061,-1.795 -2.372,-4.839 -3.946,-9.194 -1.248,-3.359 -17.683,-41.078 -17.683,-41.078 h -18.591 l 15.952,34.188 c 0.518,1.499 0.927,2.989 1.204,4.622 l 0.375,2.9 c 0,4.519 -1.435,8.203 -4.355,11.113 -3.956,3.581 -9.979,5.391 -18.058,5.391 h -29.393 v 16.031 h 30.197 c 14.147,0 25.062,-3.961 32.688,-11.789 2.683,7.828 11.996,11.789 27.829,11.789 h 20.179 c 9.071,-0.286 16.184,-2.678 21.363,-7.354 5.031,4.829 12.262,7.354 21.777,7.63 l 6.274,0.405 c 10.21,0 17.55,-3.966 22.157,-12.035 0.685,0.981 1.292,1.662 1.835,2.19 7.206,7.542 16.228,11.335 27.03,11.335 l 0.286,-0.232 v 0.232 c 10.782,0 19.78,-3.793 27.026,-11.335 0.508,-0.528 1.1,-1.209 1.85,-2.19 4.127,7.292 10.562,12.256 19.296,12.948 l 121.247,-0.247 v -19.054 H 426.219 c 0,0 -2.974,0.042 -5.197,-1.552 z m -32.334,-2.662 c -4.114,4.247 -9.086,6.373 -14.896,6.373 -5.623,0 -10.496,-2.126 -14.62,-6.373 -4.134,-4.341 -6.215,-9.357 -6.215,-15.069 0,-5.953 2.082,-11.024 6.215,-15.306 4.05,-4.079 8.943,-6.161 14.62,-6.161 5.91,0 10.872,2.081 14.896,6.161 4.114,4.282 6.23,9.352 6.23,15.306 0,5.712 -2.116,10.728 -6.23,15.069 z"
         id="path15"
         inkscape:connector-curvature="0"
         style="fill:#929497" /></g><g
       id="g4207"
       transform="matrix(0.27310496,0,0,0.26458333,-303.3251,291.6609)"><rect
         x="439.25699"
         y="798.32202"
         width="19.593"
         height="15.949"
         id="rect17"
         style="fill:#929497" /><path
         d="m 584.073,818.928 c 3.679,5.743 4.746,11.556 3.231,17.375 -1.984,8.48 -6.197,14.099 -12.639,16.941 -4.631,2.024 -12.549,3.061 -23.577,3.061 h -32.83 v -16.702 h 32.516 c 6.685,0 12.145,-1.172 16.427,-3.525 3.944,-2.404 4.681,-5.594 2.094,-9.493 -2.453,-3.699 -5.838,-7.309 -10.096,-10.689 -3.475,-3.041 -7.848,-6.281 -13.082,-9.782 l -16.383,-10.44 v -14.613 c 5.259,-0.324 11.656,2.119 19.299,7.388 7.045,4.657 13.531,9.373 19.459,14.264 7.535,6.498 12.749,11.902 15.581,16.215 z"
         id="path19"
         inkscape:connector-curvature="0"
         style="fill:#929497" /><path
         d="m 721.9,795.919 v 23.722 c 0,14.209 -7.065,20.954 -21.284,20.262 l -5.284,0.11 -44.487,-0.11 c -14.194,0.693 -21.303,-6.053 -21.303,-20.262 v -23.722 h -17.21 l -0.264,0.234 v 46.201 c -3.57,19.055 -12.504,28.547 -36.24,28.547 l 0.822,15.735 c 28.149,0 45,-11.173 50.459,-33.598 4.123,1.974 9.228,3.012 15.311,3.012 h 77.341 c 11.322,-3.246 17.829,-13.431 19.389,-27.635 v -32.496 z"
         id="path21"
         inkscape:connector-curvature="0"
         style="fill:#929497" /><g
         id="g23"><rect
           x="312.633"
           y="798.33801"
           width="19.613001"
           height="16.177999"
           id="rect25"
           style="fill:#929497" /><rect
           x="386.45001"
           y="798.33801"
           width="19.587999"
           height="16.177999"
           id="rect27"
           style="fill:#929497" /><rect
           x="349.47101"
           y="798.33801"
           width="19.728001"
           height="16.177999"
           id="rect29"
           style="fill:#929497" /></g><g
         id="g31"><rect
           x="645.755"
           y="869.65601"
           width="19.603001"
           height="16.183001"
           id="rect33"
           style="fill:#929497" /><rect
           x="719.57202"
           y="869.65601"
           width="19.577999"
           height="16.183001"
           id="rect35"
           style="fill:#929497" /><rect
           x="682.58899"
           y="869.65601"
           width="19.733"
           height="16.183001"
           id="rect37"
           style="fill:#929497" /></g><rect
         x="261.491"
         y="838.81"
         width="144.547"
         height="17.450001"
         id="rect39"
         style="fill:#929497" /><path
         d="m 249.804,798.412 -0.289,29.934 c 1.157,26.164 -7.748,40.662 -26.728,43.694 v -0.319 c -1.789,0.189 -3.53,0.434 -5.489,0.434 -23.093,0 -34.625,-14.912 -34.625,-44.865 V 812.333 H 166.27 V 835.4 c 0,14.623 3.086,26.03 8.914,34.59 -0.748,0.334 16.223,20.316 39.65,18.865 28.662,-1.769 45.932,-10.873 51.596,-32.715 0.02,0.01 0.04,0.01 0.065,0.02 v -57.748 z"
         id="path41"
         inkscape:connector-curvature="0"
         style="fill:#929497" /><path
         d="m 441.109,829.379 h 15.305 v 19.212 c -3.303,25.072 -19.443,37.621 -48.395,37.621 l 0.073,-14.972 c 22.153,0 29.711,-8.569 33.017,-26.351 z"
         id="path61"
         inkscape:connector-curvature="0"
         style="fill:#929497" /><path
         d="m 501.423,852.875 h -17.865 l 0.268,-103.46 h 17.597 z"
         id="path63"
         inkscape:connector-curvature="0"
         style="fill:#929497" /></g></g></svg>
