<?xml version="1.0" encoding="UTF-8" standalone="no"?>
<svg
   xmlns:dc="http://purl.org/dc/elements/1.1/"
   xmlns:cc="http://creativecommons.org/ns#"
   xmlns:rdf="http://www.w3.org/1999/02/22-rdf-syntax-ns#"
   xmlns:svg="http://www.w3.org/2000/svg"
   xmlns="http://www.w3.org/2000/svg"
   xmlns:sodipodi="http://sodipodi.sourceforge.net/DTD/sodipodi-0.dtd"
   xmlns:inkscape="http://www.inkscape.org/namespaces/inkscape"
   version="1.1"
   id="Layer_1"
   x="0px"
   y="0px"
   width="1715.1896"
   height="1050.322"
   viewBox="0 0 1715.1896 1050.322"
   enable-background="new 0 0 1984.25 1417.32"
   xml:space="preserve"
   inkscape:version="1.0.1 (3bc2e813f5, 2020-09-07)"
   sodipodi:docname="tip-logo-white.svg"><metadata
     id="metadata79"><rdf:RDF><cc:Work
         rdf:about=""><dc:format>image/svg+xml</dc:format><dc:type
           rdf:resource="http://purl.org/dc/dcmitype/StillImage" /><dc:title></dc:title></cc:Work></rdf:RDF></metadata><defs
     id="defs77" /><sodipodi:namedview
     pagecolor="#ffffff"
     bordercolor="#666666"
     borderopacity="1"
     objecttolerance="10"
     gridtolerance="10"
     guidetolerance="10"
     inkscape:pageopacity="0"
     inkscape:pageshadow="2"
     inkscape:window-width="1920"
     inkscape:window-height="1135"
     id="namedview75"
     showgrid="false"
     inkscape:zoom="0.25"
     inkscape:cx="689.93061"
     inkscape:cy="861.73689"
     inkscape:window-x="1920"
     inkscape:window-y="0"
     inkscape:window-maximized="1"
     inkscape:current-layer="Layer_1"
     fit-margin-top="0"
     fit-margin-left="0"
     fit-margin-right="0"
     fit-margin-bottom="0"
     showguides="true"
     inkscape:guide-bbox="true"
     inkscape:document-rotation="0"><sodipodi:guide
       position="626.87848,642.67777"
       orientation="1,0"
       id="guide912"
       inkscape:locked="false" /><sodipodi:guide
       position="642.3617,393.31357"
       orientation="1,0"
       id="guide953"
       inkscape:locked="false" /><sodipodi:guide
       position="49.43079,284.22907"
       orientation="1,0"
       id="guide955"
       inkscape:locked="false" /><sodipodi:guide
       position="1260.3307,-865.08243"
       orientation="1,0"
       id="guide1147"
       inkscape:locked="false" /><sodipodi:guide
       position="1916.4297,-1055.0984"
       orientation="1,0"
       id="guide1149"
       inkscape:locked="false" /><sodipodi:guide
       position="1187.152,-1441.3158"
       orientation="0,1"
       id="guide1169"
       inkscape:locked="false" /></sodipodi:namedview><g
     id="g968"
     style="fill:#ffffff"><rect
       style="fill:#ffffff;stroke-width:1.08313"
       x="621.42316"
       y="942.51575"
       width="20.879492"
       height="17.212013"
       id="rect45" /><rect
       style="fill:#ffffff;stroke-width:1.08313"
       x="575.39886"
       y="942.51575"
       width="20.985638"
       height="17.212013"
       id="rect47" /><path
       id="path51"
       d="m 199.70096,990.27202 c -15.90143,0.89683 -23.87868,-6.60276 -23.93717,-22.53559 l -0.23071,-74.9385 -19.2158,0.0693 0.24695,84.75923 c 2.24533,20.31085 13.57487,30.58764 33.93987,30.82914 l 76.71916,0.4354 c 11.53967,-0.022 19.89276,-4.6195 25.03329,-13.68751 0.77336,1.06364 1.48281,1.91173 2.07853,2.44354 8.17113,8.51447 18.36663,12.74197 30.58867,12.72137 l 0.30652,-0.2686 v 0.2686 c 12.23179,-0.049 22.40129,-4.3293 30.51285,-12.88709 0.61738,-0.53723 1.29542,-1.3799 2.09586,-2.47062 5.18385,9.09511 13.54778,13.59111 25.08636,13.56951 l 48.85782,-0.7517 39.22554,-0.2416 c 17.9962,0.1939 28.96072,-3.1692 32.92498,-10.17924 4.04982,-7.18223 5.06579,-13.68751 3.06742,-19.48983 -2.11102,-6.00054 -6.40346,-11.65773 -12.87191,-17.00189 -3.78663,-3.04576 -8.57406,-6.86596 -14.35364,-11.24397 -7.06959,-5.31817 -30.72297,-18.64066 -25.88247,-21.20768 l 59.80068,-28.53072 v -19.32303 c -49.44379,21.56836 -78.8226,34.53125 -83.50172,42.34279 -2.10561,3.50825 -2.34823,4.28161 -1.6117,7.78878 0.89683,4.44841 9.38532,12.42566 25.41997,23.91117 16.03032,11.10425 26.0536,19.90359 30.05685,26.31247 4.27078,6.4782 -3.55591,9.57812 -23.52991,9.35824 l -70.65146,-0.69862 c -11.62957,0 -18.84971,-7.69238 -21.69184,-23.12048 -0.0325,-12.06607 -4.24371,-22.4652 -12.62496,-31.16814 -8.38018,-8.77769 -18.56593,-13.1557 -30.58759,-13.10804 h -0.29027 c -12.03358,0.0487 -22.2085,4.47441 -30.54535,13.30083 -8.31518,8.75169 -12.4744,19.17248 -12.42566,31.24396 -2.72299,15.44977 -9.90089,23.19089 -21.53587,23.23963 m 81.54776,-6.94502 c -4.68454,4.83509 -10.28216,7.25263 -16.847,7.27971 -6.34931,0.0217 -11.88302,-2.39588 -16.56756,-7.16165 -4.70078,-4.88275 -7.04792,-10.56702 -7.05875,-17.02355 -0.0217,-6.69916 2.28865,-12.5004 6.94069,-17.31383 4.57189,-4.64121 10.08286,-6.98944 16.52965,-7.01002 6.66124,-0.0271 12.29568,2.29407 16.87841,6.91362 4.68995,4.78635 7.04792,10.54535 7.06417,17.26617 0.0227,6.42838 -2.29732,12.13864 -6.93961,17.04955 z"
       inkscape:connector-curvature="0"
       style="fill:#ffffff;stroke-width:1.08313" /><g
       id="g53"
       transform="matrix(1.0831297,0,0,1.0831297,-164.38855,-288.38408)"
       style="fill:#ffffff"><polygon
         style="fill:#ffffff"
         points="626.074,1069.925 626.074,1074.985 579.093,1096.84 579.093,1091.785 "
         id="polygon55" /></g><rect
       style="fill:#ffffff;stroke-width:1.08313"
       x="56.656891"
       y="931.52625"
       width="20.842665"
       height="16.916319"
       id="rect43" /><path
       style="fill:#ffffff;stroke-width:1.08313"
       inkscape:connector-curvature="0"
       d="M 49.430791,990.76593 C 33.842388,991.54578 18.872452,984.1675 18.872452,968.58452 V 942.51467 H 4.74812e-7 v 35.65121 C 2.1554286,998.14421 13.142696,1008.2466 33.041955,1008.5108 l 43.928491,-0.1429 v 0 l 6.524774,-0.074 6.513942,0.074 v 0 l 11.078248,0.1429 c 19.90468,-0.2642 30.89736,-10.36551 33.06904,-30.34492 v -35.65121 h -18.8822 v 26.06985 c 0,15.58298 -7.79421,22.96126 -23.39344,22.18141"
       id="path57" /><path
       style="fill:#ffffff;stroke-width:1.08313"
       inkscape:connector-curvature="0"
       d="m 642.30373,990.75077 c -0.13755,-0.0108 -0.25778,0.0162 -0.39534,0.0162 l -56.79932,0.18955 -8.33685,-0.18955 c -15.59923,0.77986 -23.40427,-6.59842 -23.40427,-22.18141 v -26.06985 h -18.85079 l -0.30544,0.23721 v 50.64497 c -3.89927,20.96941 -12.80584,31.40861 -38.82912,31.40861 l -0.0737,17.2694 c 30.92335,0 49.40046,-12.3108 55.41292,-36.9108 4.50582,2.255 10.11859,3.3457 16.84266,3.3457 l 17.54346,-0.2166 57.19466,0.095 v -17.63877 z"
       id="path59" /></g><g
     id="g4224"
     transform="matrix(1.0831297,0,0,1.0831297,-175.06304,-288.28244)"><g
       id="g3"><rect
         style="fill:#929497"
         id="rect5"
         height="15.648"
         width="18.948"
         y="963.84497"
         x="524.54797" /><rect
         style="fill:#929497"
         id="rect7"
         height="15.648"
         width="18.982"
         y="963.84497"
         x="484.96799" /><rect
         style="fill:#929497"
         id="rect9"
         height="15.648"
         width="19.077999"
         y="963.84497"
         x="445.35599" /></g><rect
       style="fill:#929497"
       id="rect11"
       height="15.648"
       width="19.079"
       y="963.84497"
       x="246.96201" /><path
       style="fill:#929497"
       inkscape:connector-curvature="0"
       id="path13"
       d="m 752.425,1015.478 c 1.447,-2.398 2.417,-5.177 2.89,-8.372 0.28,-7.956 -1.501,-15.768 -5.177,-23.426 l -1.11,-2.219 c -3.021,-5.684 -7.083,-11.281 -12.294,-16.806 -13.052,-13.91 -31.276,-21.742 -54.552,-23.445 v 16.956 c 15.725,1.187 28.839,6.813 39.324,16.868 6.577,6.277 10.654,11.904 12.758,17.018 0,0 0.077,12.477 0.077,12.888 -2.418,3.546 -7.604,5.36 -15.792,5.36 h -14.827 c 3.966,-4.704 5.93,-10.374 5.93,-16.912 0,-8.067 -3.092,-14.885 -9.283,-20.468 -6.19,-5.675 -13.741,-8.521 -22.682,-8.521 -8.873,0 -16.362,2.846 -22.466,8.521 -6.19,5.583 -9.293,12.401 -9.293,20.468 0,6.538 1.959,12.207 5.819,16.912 h -17.134 c 0.68,-6.345 0.333,-14.152 -1.013,-23.513 -0.873,-9.385 -4.497,-17.515 -10.87,-24.376 -7.055,-7.396 -15.846,-11.064 -26.456,-11.064 -10.379,0 -19.199,3.773 -26.393,11.411 -7.238,7.552 -10.827,16.589 -10.827,27.006 0,11.237 4.133,19.888 10.827,27.479 9.856,11.176 42.547,8.477 42.547,8.477 -6.471,9.404 -17.925,14.152 -34.427,14.152 l 0.193,15.184 c 25.746,0 46.788,-9.664 53.008,-28.883 h 95.352 c 18.464,0.876 25.948,-10.415 25.871,-10.695 z m -139.458,-5.177 h -16.429 c -5.66,0 -10.514,-2.094 -14.538,-6.147 -4.087,-4.101 -6.08,-9.037 -6.08,-14.885 0,-13.954 6.891,-20.946 20.618,-20.946 13.259,0 20.323,7.358 21.206,22.133 1.283,12.983 -0.314,19.565 -4.777,19.845 z m 64.718,-1.424 c -10.601,0 -15.865,-4.878 -15.865,-14.495 0,-9.688 5.264,-14.537 15.865,-14.537 10.74,0 16.082,4.849 16.082,14.537 0,9.617 -5.342,14.495 -16.082,14.495 z" /><path
       style="fill:#929497"
       inkscape:connector-curvature="0"
       id="path15"
       d="m 421.022,1005.129 c -4.438,-3.181 -8.122,-8.85 -8.874,-17.267 -0.948,-10.612 -3.69,-19.849 -11.044,-27.588 -7.399,-7.749 -16.416,-11.685 -27.026,-11.685 h -0.286 c -10.659,0 -19.646,3.936 -27.03,11.685 -7.389,7.739 -11.059,16.933 -11.059,27.588 -2.451,13.416 -8.602,20.164 -18.527,20.45 -9.036,-1.786 -13.623,-8.227 -13.623,-19.484 v -23.735 h -0.542 v -0.242 h -16.978 v 23.504 c 0,14.023 -7.034,20.683 -21.101,20.002 h -12.253 c -7.142,0.133 -12.39,-2.481 -15.72,-7.942 -1.061,-1.795 -2.372,-4.839 -3.946,-9.194 -1.248,-3.359 -17.683,-41.078 -17.683,-41.078 h -18.591 l 15.952,34.188 c 0.518,1.499 0.927,2.989 1.204,4.622 l 0.375,2.9 c 0,4.519 -1.435,8.203 -4.355,11.113 -3.956,3.581 -9.979,5.391 -18.058,5.391 h -29.393 v 16.031 h 30.197 c 14.147,0 25.062,-3.961 32.688,-11.789 2.683,7.828 11.996,11.789 27.829,11.789 h 20.179 c 9.071,-0.286 16.184,-2.678 21.363,-7.354 5.031,4.829 12.262,7.354 21.777,7.63 l 6.274,0.405 c 10.21,0 17.55,-3.966 22.157,-12.035 0.685,0.981 1.292,1.662 1.835,2.19 7.206,7.542 16.228,11.335 27.03,11.335 l 0.286,-0.232 v 0.232 c 10.782,0 19.78,-3.793 27.026,-11.335 0.508,-0.528 1.1,-1.209 1.85,-2.19 4.127,7.292 10.562,12.256 19.296,12.948 l 121.247,-0.247 v -19.054 H 426.219 c 0,0 -2.974,0.042 -5.197,-1.552 z m -32.334,-2.662 c -4.114,4.247 -9.086,6.373 -14.896,6.373 -5.623,0 -10.496,-2.126 -14.62,-6.373 -4.134,-4.341 -6.215,-9.357 -6.215,-15.069 0,-5.953 2.082,-11.024 6.215,-15.306 4.05,-4.079 8.943,-6.161 14.62,-6.161 5.91,0 10.872,2.081 14.896,6.161 4.114,4.282 6.23,9.352 6.23,15.306 0,5.712 -2.116,10.728 -6.23,15.069 z" /></g><rect
     x="300.70926"
     y="576.40381"
     width="21.22176"
     height="17.274836"
     id="rect17"
     style="fill:#929497;stroke-width:1.08313" /><path
     d="m 466.22881,598.7228 c 3.98484,6.22042 5.14054,12.51665 3.4996,18.81938 -2.14893,9.18494 -6.71216,15.27105 -13.68968,18.3493 -5.01597,2.19226 -13.59219,3.31546 -25.53695,3.31546 h -35.55915 v -18.09043 h 35.21905 c 7.24072,0 13.15461,-1.26943 17.79257,-3.81803 4.27186,-2.60385 5.07013,-6.05903 2.26807,-10.28215 -2.65691,-4.0065 -6.32331,-7.9166 -10.93527,-11.57758 -3.76388,-3.29379 -8.50041,-6.80313 -14.16951,-10.59517 L 407.37263,573.5357 v -15.82777 c 5.69618,-0.35093 12.62496,2.29515 20.90332,8.00216 7.63065,5.04414 14.65583,10.15218 21.07662,15.44976 8.16138,7.03818 13.80882,12.89141 16.87624,17.56295 z"
     id="path19"
     inkscape:connector-curvature="0"
     style="fill:#929497;stroke-width:1.08313" /><path
     d="m 623.61866,573.22612 v 25.69401 c 0,15.39019 -7.65231,22.6959 -23.05333,21.94637 l -5.72326,0.11914 -48.18519,-0.11914 c -15.37394,0.75061 -23.07391,-6.55618 -23.07391,-21.94637 v -25.69401 h -18.64066 l -0.28595,0.25346 v 50.04167 c -3.86677,20.63904 -13.54345,30.92011 -39.25262,30.92011 l 0.89033,17.04304 c 30.48902,0 48.74084,-12.10181 54.65364,-36.39099 4.46575,2.1381 9.99513,3.26239 16.5838,3.26239 h 83.77034 c 12.26319,-3.51584 19.31112,-14.54752 21.0008,-29.93229 v -35.19739 z"
     id="path21"
     inkscape:connector-curvature="0"
     style="fill:#929497;stroke-width:1.08313" /><g
     id="g23"
     transform="matrix(1.0831297,0,0,1.0831297,-175.06304,-288.28244)"><rect
       x="312.633"
       y="798.33801"
       width="19.613001"
       height="16.177999"
       id="rect25"
       style="fill:#929497" /><rect
       x="386.45001"
       y="798.33801"
       width="19.587999"
       height="16.177999"
       id="rect27"
       style="fill:#929497" /><rect
       x="349.47101"
       y="798.33801"
       width="19.728001"
       height="16.177999"
       id="rect29"
       style="fill:#929497" /></g><g
     id="g31"
     transform="matrix(1.0831297,0,0,1.0831297,-175.06304,-287.99414)"><rect
       x="645.755"
       y="869.65601"
       width="19.603001"
       height="16.183001"
       id="rect33"
       style="fill:#929497" /><rect
       x="719.57202"
       y="869.65601"
       width="19.577999"
       height="16.183001"
       id="rect35"
       style="fill:#929497" /><rect
       x="682.58899"
       y="869.65601"
       width="19.733"
       height="16.183001"
       id="rect37"
       style="fill:#929497" /></g><rect
     x="108.16563"
     y="620.25757"
     width="156.56314"
     height="18.900614"
     id="rect39"
     style="fill:#929497;stroke-width:1.08313" /><path
     d="m 91.174577,576.50131 -0.313025,32.42241 c 1.253181,28.339 -8.392089,44.04222 -28.94989,47.32627 v -0.34552 c -1.937719,0.20471 -3.823448,0.47008 -5.945299,0.47008 -25.012714,0 -37.503366,-16.15163 -37.503366,-48.59462 V 591.57956 H 0.69642038 v 24.98455 c 0,15.83861 3.34253822,28.19387 9.65501862,37.46546 -0.8101815,0.36177 17.571613,22.00486 42.946092,20.43324 31.044664,-1.91605 49.750309,-11.77687 55.885159,-35.43459 0.0217,0.0108 0.0433,0.0108 0.0704,0.0217 v -62.54858 z"
     id="path41"
     inkscape:connector-curvature="0"
     style="fill:#929497;stroke-width:1.08313" /><path
     d="m 302.71522,610.04259 h 16.5773 v 20.80909 c -3.57757,27.15623 -21.05929,40.74842 -52.41806,40.74842 l 0.0791,-16.21662 c 23.99457,0 32.18087,-9.28134 35.76169,-28.54155 z"
     id="path61"
     inkscape:connector-curvature="0"
     style="fill:#929497;stroke-width:1.08313" /><path
     d="M 368.04311,635.49181 H 348.693 l 0.29027,-112.0606 h 19.05984 z"
     id="path63"
     inkscape:connector-curvature="0"
     style="fill:#929497;stroke-width:1.08313" /><g
     style="fill:#ffffff;fill-opacity:1"
     transform="matrix(9.0467313,0,0,9.0467313,-3984.817,-1989.9865)"
     id="g3024"><path
       id="path4258"
       d="m 517.86333,219.96746 v 58.04883 58.05078 h 25.80079 25.79882 v -58.05078 -58.04883 h -25.79882 z m 6.9004,6.90039 h 18.90039 18.89844 v 51.14844 51.15039 h -18.89844 -18.90039 v -51.15039 z"
       style="fill:#ffffff;fill-opacity:1"
       inkscape:connector-curvature="0" /><path
       id="path4254"
       d="m 578.16412,284.46746 v 25.79883 25.80078 h 25.94921 25.94922 v -25.80078 -25.79883 h -25.94922 z m 7.19921,7.19922 h 18.75 18.75 v 18.75 18.75 h -18.75 -18.75 v -18.75 z"
       style="fill:#ffffff;fill-opacity:1"
       inkscape:connector-curvature="0" /><path
       id="path4242"
       d="m 457.86333,219.96746 v 25.95117 25.94922 h 25.94923 25.95117 v -25.94922 -25.95117 h -25.95117 z m 7.19923,7.20117 h 18.75 18.75 v 18.75 18.75 h -18.75 -18.75 v -18.75 z"
       style="fill:#ffffff;fill-opacity:1"
       inkscape:connector-curvature="0" /><path
       id="path4238"
       d="m 578.16412,219.96746 v 25.95117 25.94922 h 25.94921 25.94922 v -25.94922 -25.95117 h -25.94922 z m 7.19921,7.20117 h 18.75 18.75 v 18.75 18.75 h -18.75 -18.75 v -18.75 z"
       style="fill:#ffffff;fill-opacity:1"
       inkscape:connector-curvature="0" /></g><g
     id="g975"
     transform="translate(-4.74812e-7,-5.3634967e-6)"><g
   id="g955"
   transform="matrix(-9.0467313,0,0,9.0467313,5787.0433,-770.85919)"
   style="fill:#2e1c59;fill-opacity:1"><path
     inkscape:connector-curvature="0"
     style="fill:#2e1c59;fill-opacity:1"
     d="m 517.86333,219.96746 v 58.04883 58.05078 h 25.80079 25.79882 v -58.05078 -58.04883 h -25.79882 z m 6.9004,6.90039 h 18.90039 18.89844 v 51.14844 51.15039 h -18.89844 -18.90039 v -51.15039 z"
     id="path947" /><path
     inkscape:connector-curvature="0"
     style="fill:#2e1c59;fill-opacity:1"
     d="m 578.16412,284.46746 v 25.79883 25.80078 h 25.94921 25.94922 v -25.80078 -25.79883 h -25.94922 z m 7.19921,7.19922 h 18.75 18.75 v 18.75 18.75 h -18.75 -18.75 v -18.75 z"
     id="path949" /><path
     inkscape:connector-curvature="0"
     style="fill:#2e1c59;fill-opacity:1"
     d="m 457.86333,219.96746 v 25.95117 25.94922 h 25.94923 25.95117 v -25.94922 -25.95117 h -25.95117 z m 7.19923,7.20117 h 18.75 18.75 v 18.75 18.75 h -18.75 -18.75 v -18.75 z"
     id="path951" /><path
     inkscape:connector-curvature="0"
     style="fill:#2e1c59;fill-opacity:1"
     d="m 578.16412,219.96746 v 25.95117 25.94922 h 25.94921 25.94922 v -25.94922 -25.95117 h -25.94922 z m 7.19921,7.20117 h 18.75 18.75 v 18.75 18.75 h -18.75 -18.75 v -18.75 z"
     id="path953" /></g><text
   xml:space="preserve"
   style="font-style:normal;font-weight:normal;font-size:143.029px;line-height:1.25;font-family:sans-serif;letter-spacing:0px;word-spacing:0px;fill:#2e1c59;fill-opacity:1;stroke:none;stroke-width:3.57573"
   x="1161.7074"
   y="2085.2183"
   id="text1187"><tspan
     sodipodi:role="line"
     id="tspan1185"
     x="1161.7074"
     y="2085.2183"
     style="font-style:normal;font-variant:normal;font-weight:bold;font-stretch:normal;line-height:0;font-family:bandal;-inkscape-font-specification:'bandal Bold';letter-spacing:-7.08px;word-spacing:0px;fill:#2e1c59;fill-opacity:1;stroke-width:3.57573"
     dx="0">INTELLIGENT</tspan></text>
<text
   xml:space="preserve"
   style="font-style:normal;font-weight:normal;font-size:140.336px;line-height:1.25;font-family:sans-serif;letter-spacing:0px;word-spacing:0px;fill:#2e1c59;fill-opacity:1;stroke:none;stroke-width:3.50841"
   x="1162.3724"
   y="2269.4492"
   id="text1191"><tspan
     sodipodi:role="line"
     id="tspan1189"
     x="1162.3724"
     y="2269.4492"
     style="font-style:normal;font-variant:normal;font-weight:bold;font-stretch:normal;font-family:bandal;-inkscape-font-specification:'bandal Bold';letter-spacing:-1.19px;fill:#2e1c59;fill-opacity:1;stroke-width:3.50841">PROCESSING</tspan></text>
<g
   style="fill:#929497;fill-opacity:1"
   id="g1209"
   transform="matrix(1,0,0,1.1274865,-20.437527,-473.63069)"><path
     inkscape:connector-curvature="0"
     id="path1193"
     d="m 1526.9829,2031.4204 v 74 h 74 v -74 z m 24.6992,24.6992 h 24.5996 v 24.6016 h -24.5996 z"
     style="opacity:1;fill:#929497;fill-opacity:1;stroke:none;stroke-width:2.26316381;stroke-linecap:butt;stroke-linejoin:round;stroke-miterlimit:4;stroke-dasharray:none;stroke-opacity:1;paint-order:markers stroke fill" /><path
     inkscape:connector-curvature="0"
     id="path1195"
     d="m 1360.669,2031.4204 v 74 h 25 v -24.8008 l 24,24.8008 h 25 l -24,-24.8008 h 24 v -49.1992 z m 25,18.5 h 24 v 18.5 h -24 z"
     style="opacity:1;fill:#929497;fill-opacity:1;stroke:none;stroke-width:2.26316381;stroke-linecap:butt;stroke-linejoin:round;stroke-miterlimit:4;stroke-dasharray:none;stroke-opacity:1;paint-order:markers stroke fill" /><path
     inkscape:connector-curvature="0"
     id="path1197"
     d="m 1443.826,2031.4204 v 74 h 74 V 2062.27 h -43.1504 v 12.3008 h 18.4492 v 6.1484 h -18.4492 v 0 h -6.1504 v 0 -6.1484 -12.3008 -6.1504 h 6.1504 43.1504 v -24.6992 z"
     style="opacity:1;fill:#929497;fill-opacity:1;stroke:none;stroke-width:2.26316381;stroke-linecap:butt;stroke-linejoin:round;stroke-miterlimit:4;stroke-dasharray:none;stroke-opacity:1;paint-order:markers stroke fill" /><path
     inkscape:connector-curvature="0"
     id="path1199"
     d="m 1610.1399,2031.4204 v 74 h 25 v -37 l 12,12.3301 12,-12.3301 v 37 h 25 v -74 h -25 l -12,12.3301 -12,-12.3301 z"
     style="opacity:1;fill:#929497;fill-opacity:1;stroke:none;stroke-width:2.26316381;stroke-linecap:butt;stroke-linejoin:round;stroke-miterlimit:4;stroke-dasharray:none;stroke-opacity:1;paint-order:markers stroke fill" /><path
     inkscape:connector-curvature="0"
     id="path1201"
     d="m 1693.297,2031.4204 v 74 h 25 v -18.5 h 24 v 18.5 h 25 v -74 z m 25,18.5 h 24 v 18.5 h -24 z"
     style="opacity:1;fill:#929497;fill-opacity:1;stroke:none;stroke-width:2.26316381;stroke-linecap:butt;stroke-linejoin:round;stroke-miterlimit:4;stroke-dasharray:none;stroke-opacity:1;paint-order:markers stroke fill" /><path
     inkscape:connector-curvature="0"
     style="opacity:1;fill:#929497;fill-opacity:1;stroke:none;stroke-width:2.26316381;stroke-linecap:butt;stroke-linejoin:round;stroke-miterlimit:4;stroke-dasharray:none;stroke-opacity:1;paint-order:markers stroke fill"
     d="m 1277.512,2031.4204 v 74 h 25 v -18.5 h 24 v 18.5 h 25 v -74 z m 25,18.5 h 24 v 18.5 h -24 z"
     id="path1203" /><path
     inkscape:connector-curvature="0"
     style="opacity:1;fill:#929497;fill-opacity:1;stroke:none;stroke-width:2.26316381;stroke-linecap:butt;stroke-linejoin:round;stroke-miterlimit:4;stroke-dasharray:none;stroke-opacity:1;paint-order:markers stroke fill"
     d="m 1776.454,2031.4204 v 74 h 25 v -24.8008 l 24,24.8008 h 25 v -74 h -25 v 24.8008 l -24,-24.8008 z"
     id="path1205" /><path
     inkscape:connector-curvature="0"
     style="opacity:1;fill:#929497;fill-opacity:1;stroke:none;stroke-width:2.26316381;stroke-linecap:butt;stroke-linejoin:round;stroke-miterlimit:4;stroke-dasharray:none;stroke-opacity:1;paint-order:markers stroke fill"
     d="m 1194.355,2031.4204 v 24.8008 h 24.5996 v 49.1992 h 24.8008 v -49.1992 h 24.5996 v -24.8008 z"
     id="path1207" /></g></g></svg>
